%TF.GenerationSoftware,KiCad,Pcbnew,(6.0.10)*%
%TF.CreationDate,2024-06-04T10:03:53+09:00*%
%TF.ProjectId,extension_circuit_board,65787465-6e73-4696-9f6e-5f6369726375,rev?*%
%TF.SameCoordinates,Original*%
%TF.FileFunction,Legend,Top*%
%TF.FilePolarity,Positive*%
%FSLAX46Y46*%
G04 Gerber Fmt 4.6, Leading zero omitted, Abs format (unit mm)*
G04 Created by KiCad (PCBNEW (6.0.10)) date 2024-06-04 10:03:53*
%MOMM*%
%LPD*%
G01*
G04 APERTURE LIST*
%ADD10C,0.150000*%
%ADD11C,0.120000*%
G04 APERTURE END LIST*
D10*
X154809523Y-78852380D02*
X154238095Y-78852380D01*
X154523809Y-78852380D02*
X154523809Y-77852380D01*
X154428571Y-77995238D01*
X154333333Y-78090476D01*
X154238095Y-78138095D01*
X155666666Y-77852380D02*
X155476190Y-77852380D01*
X155380952Y-77900000D01*
X155333333Y-77947619D01*
X155238095Y-78090476D01*
X155190476Y-78280952D01*
X155190476Y-78661904D01*
X155238095Y-78757142D01*
X155285714Y-78804761D01*
X155380952Y-78852380D01*
X155571428Y-78852380D01*
X155666666Y-78804761D01*
X155714285Y-78757142D01*
X155761904Y-78661904D01*
X155761904Y-78423809D01*
X155714285Y-78328571D01*
X155666666Y-78280952D01*
X155571428Y-78233333D01*
X155380952Y-78233333D01*
X155285714Y-78280952D01*
X155238095Y-78328571D01*
X155190476Y-78423809D01*
X174471428Y-114085714D02*
X174471428Y-113323809D01*
X174852380Y-113704761D02*
X174090476Y-113704761D01*
X173852380Y-112371428D02*
X173852380Y-112847619D01*
X174328571Y-112895238D01*
X174280952Y-112847619D01*
X174233333Y-112752380D01*
X174233333Y-112514285D01*
X174280952Y-112419047D01*
X174328571Y-112371428D01*
X174423809Y-112323809D01*
X174661904Y-112323809D01*
X174757142Y-112371428D01*
X174804761Y-112419047D01*
X174852380Y-112514285D01*
X174852380Y-112752380D01*
X174804761Y-112847619D01*
X174757142Y-112895238D01*
X173852380Y-112038095D02*
X174852380Y-111704761D01*
X173852380Y-111371428D01*
X154838095Y-75300000D02*
X154742857Y-75252380D01*
X154600000Y-75252380D01*
X154457142Y-75300000D01*
X154361904Y-75395238D01*
X154314285Y-75490476D01*
X154266666Y-75680952D01*
X154266666Y-75823809D01*
X154314285Y-76014285D01*
X154361904Y-76109523D01*
X154457142Y-76204761D01*
X154600000Y-76252380D01*
X154695238Y-76252380D01*
X154838095Y-76204761D01*
X154885714Y-76157142D01*
X154885714Y-75823809D01*
X154695238Y-75823809D01*
X155314285Y-76252380D02*
X155314285Y-75252380D01*
X155885714Y-76252380D01*
X155885714Y-75252380D01*
X156361904Y-76252380D02*
X156361904Y-75252380D01*
X156600000Y-75252380D01*
X156742857Y-75300000D01*
X156838095Y-75395238D01*
X156885714Y-75490476D01*
X156933333Y-75680952D01*
X156933333Y-75823809D01*
X156885714Y-76014285D01*
X156838095Y-76109523D01*
X156742857Y-76204761D01*
X156600000Y-76252380D01*
X156361904Y-76252380D01*
X138209523Y-76252380D02*
X137638095Y-76252380D01*
X137923809Y-76252380D02*
X137923809Y-75252380D01*
X137828571Y-75395238D01*
X137733333Y-75490476D01*
X137638095Y-75538095D01*
X138542857Y-75252380D02*
X139161904Y-75252380D01*
X138828571Y-75633333D01*
X138971428Y-75633333D01*
X139066666Y-75680952D01*
X139114285Y-75728571D01*
X139161904Y-75823809D01*
X139161904Y-76061904D01*
X139114285Y-76157142D01*
X139066666Y-76204761D01*
X138971428Y-76252380D01*
X138685714Y-76252380D01*
X138590476Y-76204761D01*
X138542857Y-76157142D01*
X137038095Y-90700000D02*
X136942857Y-90652380D01*
X136800000Y-90652380D01*
X136657142Y-90700000D01*
X136561904Y-90795238D01*
X136514285Y-90890476D01*
X136466666Y-91080952D01*
X136466666Y-91223809D01*
X136514285Y-91414285D01*
X136561904Y-91509523D01*
X136657142Y-91604761D01*
X136800000Y-91652380D01*
X136895238Y-91652380D01*
X137038095Y-91604761D01*
X137085714Y-91557142D01*
X137085714Y-91223809D01*
X136895238Y-91223809D01*
X137514285Y-91652380D02*
X137514285Y-90652380D01*
X138085714Y-91652380D01*
X138085714Y-90652380D01*
X138561904Y-91652380D02*
X138561904Y-90652380D01*
X138800000Y-90652380D01*
X138942857Y-90700000D01*
X139038095Y-90795238D01*
X139085714Y-90890476D01*
X139133333Y-91080952D01*
X139133333Y-91223809D01*
X139085714Y-91414285D01*
X139038095Y-91509523D01*
X138942857Y-91604761D01*
X138800000Y-91652380D01*
X138561904Y-91652380D01*
X196200000Y-57261904D02*
X196152380Y-57357142D01*
X196152380Y-57500000D01*
X196200000Y-57642857D01*
X196295238Y-57738095D01*
X196390476Y-57785714D01*
X196580952Y-57833333D01*
X196723809Y-57833333D01*
X196914285Y-57785714D01*
X197009523Y-57738095D01*
X197104761Y-57642857D01*
X197152380Y-57500000D01*
X197152380Y-57404761D01*
X197104761Y-57261904D01*
X197057142Y-57214285D01*
X196723809Y-57214285D01*
X196723809Y-57404761D01*
X197152380Y-56785714D02*
X196152380Y-56785714D01*
X197152380Y-56214285D01*
X196152380Y-56214285D01*
X197152380Y-55738095D02*
X196152380Y-55738095D01*
X196152380Y-55500000D01*
X196200000Y-55357142D01*
X196295238Y-55261904D01*
X196390476Y-55214285D01*
X196580952Y-55166666D01*
X196723809Y-55166666D01*
X196914285Y-55214285D01*
X197009523Y-55261904D01*
X197104761Y-55357142D01*
X197152380Y-55500000D01*
X197152380Y-55738095D01*
X154714285Y-108785714D02*
X154714285Y-109452380D01*
X154476190Y-108404761D02*
X154238095Y-109119047D01*
X154857142Y-109119047D01*
X155428571Y-108452380D02*
X155523809Y-108452380D01*
X155619047Y-108500000D01*
X155666666Y-108547619D01*
X155714285Y-108642857D01*
X155761904Y-108833333D01*
X155761904Y-109071428D01*
X155714285Y-109261904D01*
X155666666Y-109357142D01*
X155619047Y-109404761D01*
X155523809Y-109452380D01*
X155428571Y-109452380D01*
X155333333Y-109404761D01*
X155285714Y-109357142D01*
X155238095Y-109261904D01*
X155190476Y-109071428D01*
X155190476Y-108833333D01*
X155238095Y-108642857D01*
X155285714Y-108547619D01*
X155333333Y-108500000D01*
X155428571Y-108452380D01*
X136609523Y-66204761D02*
X136752380Y-66252380D01*
X136990476Y-66252380D01*
X137085714Y-66204761D01*
X137133333Y-66157142D01*
X137180952Y-66061904D01*
X137180952Y-65966666D01*
X137133333Y-65871428D01*
X137085714Y-65823809D01*
X136990476Y-65776190D01*
X136800000Y-65728571D01*
X136704761Y-65680952D01*
X136657142Y-65633333D01*
X136609523Y-65538095D01*
X136609523Y-65442857D01*
X136657142Y-65347619D01*
X136704761Y-65300000D01*
X136800000Y-65252380D01*
X137038095Y-65252380D01*
X137180952Y-65300000D01*
X138180952Y-66157142D02*
X138133333Y-66204761D01*
X137990476Y-66252380D01*
X137895238Y-66252380D01*
X137752380Y-66204761D01*
X137657142Y-66109523D01*
X137609523Y-66014285D01*
X137561904Y-65823809D01*
X137561904Y-65680952D01*
X137609523Y-65490476D01*
X137657142Y-65395238D01*
X137752380Y-65300000D01*
X137895238Y-65252380D01*
X137990476Y-65252380D01*
X138133333Y-65300000D01*
X138180952Y-65347619D01*
X139085714Y-66252380D02*
X138609523Y-66252380D01*
X138609523Y-65252380D01*
X169104761Y-84690476D02*
X169152380Y-84547619D01*
X169152380Y-84309523D01*
X169104761Y-84214285D01*
X169057142Y-84166666D01*
X168961904Y-84119047D01*
X168866666Y-84119047D01*
X168771428Y-84166666D01*
X168723809Y-84214285D01*
X168676190Y-84309523D01*
X168628571Y-84500000D01*
X168580952Y-84595238D01*
X168533333Y-84642857D01*
X168438095Y-84690476D01*
X168342857Y-84690476D01*
X168247619Y-84642857D01*
X168200000Y-84595238D01*
X168152380Y-84500000D01*
X168152380Y-84261904D01*
X168200000Y-84119047D01*
X169057142Y-83119047D02*
X169104761Y-83166666D01*
X169152380Y-83309523D01*
X169152380Y-83404761D01*
X169104761Y-83547619D01*
X169009523Y-83642857D01*
X168914285Y-83690476D01*
X168723809Y-83738095D01*
X168580952Y-83738095D01*
X168390476Y-83690476D01*
X168295238Y-83642857D01*
X168200000Y-83547619D01*
X168152380Y-83404761D01*
X168152380Y-83309523D01*
X168200000Y-83166666D01*
X168247619Y-83119047D01*
X169152380Y-82214285D02*
X169152380Y-82690476D01*
X168152380Y-82690476D01*
X135000000Y-60671428D02*
X135761904Y-60671428D01*
X135380952Y-61052380D02*
X135380952Y-60290476D01*
X136142857Y-60052380D02*
X136761904Y-60052380D01*
X136428571Y-60433333D01*
X136571428Y-60433333D01*
X136666666Y-60480952D01*
X136714285Y-60528571D01*
X136761904Y-60623809D01*
X136761904Y-60861904D01*
X136714285Y-60957142D01*
X136666666Y-61004761D01*
X136571428Y-61052380D01*
X136285714Y-61052380D01*
X136190476Y-61004761D01*
X136142857Y-60957142D01*
X137190476Y-60957142D02*
X137238095Y-61004761D01*
X137190476Y-61052380D01*
X137142857Y-61004761D01*
X137190476Y-60957142D01*
X137190476Y-61052380D01*
X137571428Y-60052380D02*
X138190476Y-60052380D01*
X137857142Y-60433333D01*
X138000000Y-60433333D01*
X138095238Y-60480952D01*
X138142857Y-60528571D01*
X138190476Y-60623809D01*
X138190476Y-60861904D01*
X138142857Y-60957142D01*
X138095238Y-61004761D01*
X138000000Y-61052380D01*
X137714285Y-61052380D01*
X137619047Y-61004761D01*
X137571428Y-60957142D01*
X138476190Y-60052380D02*
X138809523Y-61052380D01*
X139142857Y-60052380D01*
X181500000Y-113511904D02*
X181452380Y-113607142D01*
X181452380Y-113750000D01*
X181500000Y-113892857D01*
X181595238Y-113988095D01*
X181690476Y-114035714D01*
X181880952Y-114083333D01*
X182023809Y-114083333D01*
X182214285Y-114035714D01*
X182309523Y-113988095D01*
X182404761Y-113892857D01*
X182452380Y-113750000D01*
X182452380Y-113654761D01*
X182404761Y-113511904D01*
X182357142Y-113464285D01*
X182023809Y-113464285D01*
X182023809Y-113654761D01*
X182452380Y-113035714D02*
X181452380Y-113035714D01*
X182452380Y-112464285D01*
X181452380Y-112464285D01*
X182452380Y-111988095D02*
X181452380Y-111988095D01*
X181452380Y-111750000D01*
X181500000Y-111607142D01*
X181595238Y-111511904D01*
X181690476Y-111464285D01*
X181880952Y-111416666D01*
X182023809Y-111416666D01*
X182214285Y-111464285D01*
X182309523Y-111511904D01*
X182404761Y-111607142D01*
X182452380Y-111750000D01*
X182452380Y-111988095D01*
X124185714Y-63604761D02*
X124328571Y-63652380D01*
X124566666Y-63652380D01*
X124661904Y-63604761D01*
X124709523Y-63557142D01*
X124757142Y-63461904D01*
X124757142Y-63366666D01*
X124709523Y-63271428D01*
X124661904Y-63223809D01*
X124566666Y-63176190D01*
X124376190Y-63128571D01*
X124280952Y-63080952D01*
X124233333Y-63033333D01*
X124185714Y-62938095D01*
X124185714Y-62842857D01*
X124233333Y-62747619D01*
X124280952Y-62700000D01*
X124376190Y-62652380D01*
X124614285Y-62652380D01*
X124757142Y-62700000D01*
X125185714Y-63652380D02*
X125185714Y-62652380D01*
X125423809Y-62652380D01*
X125566666Y-62700000D01*
X125661904Y-62795238D01*
X125709523Y-62890476D01*
X125757142Y-63080952D01*
X125757142Y-63223809D01*
X125709523Y-63414285D01*
X125661904Y-63509523D01*
X125566666Y-63604761D01*
X125423809Y-63652380D01*
X125185714Y-63652380D01*
X126138095Y-63366666D02*
X126614285Y-63366666D01*
X126042857Y-63652380D02*
X126376190Y-62652380D01*
X126709523Y-63652380D01*
X154314285Y-60671428D02*
X155076190Y-60671428D01*
X154695238Y-61052380D02*
X154695238Y-60290476D01*
X156028571Y-60052380D02*
X155552380Y-60052380D01*
X155504761Y-60528571D01*
X155552380Y-60480952D01*
X155647619Y-60433333D01*
X155885714Y-60433333D01*
X155980952Y-60480952D01*
X156028571Y-60528571D01*
X156076190Y-60623809D01*
X156076190Y-60861904D01*
X156028571Y-60957142D01*
X155980952Y-61004761D01*
X155885714Y-61052380D01*
X155647619Y-61052380D01*
X155552380Y-61004761D01*
X155504761Y-60957142D01*
X156361904Y-60052380D02*
X156695238Y-61052380D01*
X157028571Y-60052380D01*
X154838095Y-65300000D02*
X154742857Y-65252380D01*
X154600000Y-65252380D01*
X154457142Y-65300000D01*
X154361904Y-65395238D01*
X154314285Y-65490476D01*
X154266666Y-65680952D01*
X154266666Y-65823809D01*
X154314285Y-66014285D01*
X154361904Y-66109523D01*
X154457142Y-66204761D01*
X154600000Y-66252380D01*
X154695238Y-66252380D01*
X154838095Y-66204761D01*
X154885714Y-66157142D01*
X154885714Y-65823809D01*
X154695238Y-65823809D01*
X155314285Y-66252380D02*
X155314285Y-65252380D01*
X155885714Y-66252380D01*
X155885714Y-65252380D01*
X156361904Y-66252380D02*
X156361904Y-65252380D01*
X156600000Y-65252380D01*
X156742857Y-65300000D01*
X156838095Y-65395238D01*
X156885714Y-65490476D01*
X156933333Y-65680952D01*
X156933333Y-65823809D01*
X156885714Y-66014285D01*
X156838095Y-66109523D01*
X156742857Y-66204761D01*
X156600000Y-66252380D01*
X156361904Y-66252380D01*
X154438095Y-88147619D02*
X154485714Y-88100000D01*
X154580952Y-88052380D01*
X154819047Y-88052380D01*
X154914285Y-88100000D01*
X154961904Y-88147619D01*
X155009523Y-88242857D01*
X155009523Y-88338095D01*
X154961904Y-88480952D01*
X154390476Y-89052380D01*
X155009523Y-89052380D01*
X155866666Y-88385714D02*
X155866666Y-89052380D01*
X155628571Y-88004761D02*
X155390476Y-88719047D01*
X156009523Y-88719047D01*
X137590476Y-103252380D02*
X138209523Y-103252380D01*
X137876190Y-103633333D01*
X138019047Y-103633333D01*
X138114285Y-103680952D01*
X138161904Y-103728571D01*
X138209523Y-103823809D01*
X138209523Y-104061904D01*
X138161904Y-104157142D01*
X138114285Y-104204761D01*
X138019047Y-104252380D01*
X137733333Y-104252380D01*
X137638095Y-104204761D01*
X137590476Y-104157142D01*
X139114285Y-103252380D02*
X138638095Y-103252380D01*
X138590476Y-103728571D01*
X138638095Y-103680952D01*
X138733333Y-103633333D01*
X138971428Y-103633333D01*
X139066666Y-103680952D01*
X139114285Y-103728571D01*
X139161904Y-103823809D01*
X139161904Y-104061904D01*
X139114285Y-104157142D01*
X139066666Y-104204761D01*
X138971428Y-104252380D01*
X138733333Y-104252380D01*
X138638095Y-104204761D01*
X138590476Y-104157142D01*
X154504761Y-68080952D02*
X154409523Y-68033333D01*
X154361904Y-67985714D01*
X154314285Y-67890476D01*
X154314285Y-67842857D01*
X154361904Y-67747619D01*
X154409523Y-67700000D01*
X154504761Y-67652380D01*
X154695238Y-67652380D01*
X154790476Y-67700000D01*
X154838095Y-67747619D01*
X154885714Y-67842857D01*
X154885714Y-67890476D01*
X154838095Y-67985714D01*
X154790476Y-68033333D01*
X154695238Y-68080952D01*
X154504761Y-68080952D01*
X154409523Y-68128571D01*
X154361904Y-68176190D01*
X154314285Y-68271428D01*
X154314285Y-68461904D01*
X154361904Y-68557142D01*
X154409523Y-68604761D01*
X154504761Y-68652380D01*
X154695238Y-68652380D01*
X154790476Y-68604761D01*
X154838095Y-68557142D01*
X154885714Y-68461904D01*
X154885714Y-68271428D01*
X154838095Y-68176190D01*
X154790476Y-68128571D01*
X154695238Y-68080952D01*
X137638095Y-85547619D02*
X137685714Y-85500000D01*
X137780952Y-85452380D01*
X138019047Y-85452380D01*
X138114285Y-85500000D01*
X138161904Y-85547619D01*
X138209523Y-85642857D01*
X138209523Y-85738095D01*
X138161904Y-85880952D01*
X137590476Y-86452380D01*
X138209523Y-86452380D01*
X139161904Y-86452380D02*
X138590476Y-86452380D01*
X138876190Y-86452380D02*
X138876190Y-85452380D01*
X138780952Y-85595238D01*
X138685714Y-85690476D01*
X138590476Y-85738095D01*
X154438095Y-85547619D02*
X154485714Y-85500000D01*
X154580952Y-85452380D01*
X154819047Y-85452380D01*
X154914285Y-85500000D01*
X154961904Y-85547619D01*
X155009523Y-85642857D01*
X155009523Y-85738095D01*
X154961904Y-85880952D01*
X154390476Y-86452380D01*
X155009523Y-86452380D01*
X155390476Y-85547619D02*
X155438095Y-85500000D01*
X155533333Y-85452380D01*
X155771428Y-85452380D01*
X155866666Y-85500000D01*
X155914285Y-85547619D01*
X155961904Y-85642857D01*
X155961904Y-85738095D01*
X155914285Y-85880952D01*
X155342857Y-86452380D01*
X155961904Y-86452380D01*
X129221309Y-114447380D02*
X129221309Y-115161666D01*
X129173690Y-115304523D01*
X129078452Y-115399761D01*
X128935595Y-115447380D01*
X128840357Y-115447380D01*
X130078452Y-115399761D02*
X129983214Y-115447380D01*
X129792738Y-115447380D01*
X129697500Y-115399761D01*
X129649880Y-115304523D01*
X129649880Y-114923571D01*
X129697500Y-114828333D01*
X129792738Y-114780714D01*
X129983214Y-114780714D01*
X130078452Y-114828333D01*
X130126071Y-114923571D01*
X130126071Y-115018809D01*
X129649880Y-115114047D01*
X130411785Y-114780714D02*
X130792738Y-114780714D01*
X130554642Y-114447380D02*
X130554642Y-115304523D01*
X130602261Y-115399761D01*
X130697500Y-115447380D01*
X130792738Y-115447380D01*
X131459404Y-114923571D02*
X131602261Y-114971190D01*
X131649880Y-115018809D01*
X131697500Y-115114047D01*
X131697500Y-115256904D01*
X131649880Y-115352142D01*
X131602261Y-115399761D01*
X131507023Y-115447380D01*
X131126071Y-115447380D01*
X131126071Y-114447380D01*
X131459404Y-114447380D01*
X131554642Y-114495000D01*
X131602261Y-114542619D01*
X131649880Y-114637857D01*
X131649880Y-114733095D01*
X131602261Y-114828333D01*
X131554642Y-114875952D01*
X131459404Y-114923571D01*
X131126071Y-114923571D01*
X132268928Y-115447380D02*
X132173690Y-115399761D01*
X132126071Y-115352142D01*
X132078452Y-115256904D01*
X132078452Y-114971190D01*
X132126071Y-114875952D01*
X132173690Y-114828333D01*
X132268928Y-114780714D01*
X132411785Y-114780714D01*
X132507023Y-114828333D01*
X132554642Y-114875952D01*
X132602261Y-114971190D01*
X132602261Y-115256904D01*
X132554642Y-115352142D01*
X132507023Y-115399761D01*
X132411785Y-115447380D01*
X132268928Y-115447380D01*
X132887976Y-114780714D02*
X133268928Y-114780714D01*
X133030833Y-114447380D02*
X133030833Y-115304523D01*
X133078452Y-115399761D01*
X133173690Y-115447380D01*
X133268928Y-115447380D01*
X134364166Y-114923571D02*
X134697500Y-114923571D01*
X134840357Y-115447380D02*
X134364166Y-115447380D01*
X134364166Y-114447380D01*
X134840357Y-114447380D01*
X135173690Y-115447380D02*
X135697500Y-114780714D01*
X135173690Y-114780714D02*
X135697500Y-115447380D01*
X135935595Y-114780714D02*
X136316547Y-114780714D01*
X136078452Y-114447380D02*
X136078452Y-115304523D01*
X136126071Y-115399761D01*
X136221309Y-115447380D01*
X136316547Y-115447380D01*
X137030833Y-115399761D02*
X136935595Y-115447380D01*
X136745119Y-115447380D01*
X136649880Y-115399761D01*
X136602261Y-115304523D01*
X136602261Y-114923571D01*
X136649880Y-114828333D01*
X136745119Y-114780714D01*
X136935595Y-114780714D01*
X137030833Y-114828333D01*
X137078452Y-114923571D01*
X137078452Y-115018809D01*
X136602261Y-115114047D01*
X137507023Y-114780714D02*
X137507023Y-115447380D01*
X137507023Y-114875952D02*
X137554642Y-114828333D01*
X137649880Y-114780714D01*
X137792738Y-114780714D01*
X137887976Y-114828333D01*
X137935595Y-114923571D01*
X137935595Y-115447380D01*
X138364166Y-115399761D02*
X138459404Y-115447380D01*
X138649880Y-115447380D01*
X138745119Y-115399761D01*
X138792738Y-115304523D01*
X138792738Y-115256904D01*
X138745119Y-115161666D01*
X138649880Y-115114047D01*
X138507023Y-115114047D01*
X138411785Y-115066428D01*
X138364166Y-114971190D01*
X138364166Y-114923571D01*
X138411785Y-114828333D01*
X138507023Y-114780714D01*
X138649880Y-114780714D01*
X138745119Y-114828333D01*
X139221309Y-115447380D02*
X139221309Y-114780714D01*
X139221309Y-114447380D02*
X139173690Y-114495000D01*
X139221309Y-114542619D01*
X139268928Y-114495000D01*
X139221309Y-114447380D01*
X139221309Y-114542619D01*
X139840357Y-115447380D02*
X139745119Y-115399761D01*
X139697500Y-115352142D01*
X139649880Y-115256904D01*
X139649880Y-114971190D01*
X139697500Y-114875952D01*
X139745119Y-114828333D01*
X139840357Y-114780714D01*
X139983214Y-114780714D01*
X140078452Y-114828333D01*
X140126071Y-114875952D01*
X140173690Y-114971190D01*
X140173690Y-115256904D01*
X140126071Y-115352142D01*
X140078452Y-115399761D01*
X139983214Y-115447380D01*
X139840357Y-115447380D01*
X140602261Y-114780714D02*
X140602261Y-115447380D01*
X140602261Y-114875952D02*
X140649880Y-114828333D01*
X140745119Y-114780714D01*
X140887976Y-114780714D01*
X140983214Y-114828333D01*
X141030833Y-114923571D01*
X141030833Y-115447380D01*
X142602261Y-114923571D02*
X142745119Y-114971190D01*
X142792738Y-115018809D01*
X142840357Y-115114047D01*
X142840357Y-115256904D01*
X142792738Y-115352142D01*
X142745119Y-115399761D01*
X142649880Y-115447380D01*
X142268928Y-115447380D01*
X142268928Y-114447380D01*
X142602261Y-114447380D01*
X142697500Y-114495000D01*
X142745119Y-114542619D01*
X142792738Y-114637857D01*
X142792738Y-114733095D01*
X142745119Y-114828333D01*
X142697500Y-114875952D01*
X142602261Y-114923571D01*
X142268928Y-114923571D01*
X143411785Y-115447380D02*
X143316547Y-115399761D01*
X143268928Y-115352142D01*
X143221309Y-115256904D01*
X143221309Y-114971190D01*
X143268928Y-114875952D01*
X143316547Y-114828333D01*
X143411785Y-114780714D01*
X143554642Y-114780714D01*
X143649880Y-114828333D01*
X143697500Y-114875952D01*
X143745119Y-114971190D01*
X143745119Y-115256904D01*
X143697500Y-115352142D01*
X143649880Y-115399761D01*
X143554642Y-115447380D01*
X143411785Y-115447380D01*
X144602261Y-115447380D02*
X144602261Y-114923571D01*
X144554642Y-114828333D01*
X144459404Y-114780714D01*
X144268928Y-114780714D01*
X144173690Y-114828333D01*
X144602261Y-115399761D02*
X144507023Y-115447380D01*
X144268928Y-115447380D01*
X144173690Y-115399761D01*
X144126071Y-115304523D01*
X144126071Y-115209285D01*
X144173690Y-115114047D01*
X144268928Y-115066428D01*
X144507023Y-115066428D01*
X144602261Y-115018809D01*
X145078452Y-115447380D02*
X145078452Y-114780714D01*
X145078452Y-114971190D02*
X145126071Y-114875952D01*
X145173690Y-114828333D01*
X145268928Y-114780714D01*
X145364166Y-114780714D01*
X146126071Y-115447380D02*
X146126071Y-114447380D01*
X146126071Y-115399761D02*
X146030833Y-115447380D01*
X145840357Y-115447380D01*
X145745119Y-115399761D01*
X145697500Y-115352142D01*
X145649880Y-115256904D01*
X145649880Y-114971190D01*
X145697500Y-114875952D01*
X145745119Y-114828333D01*
X145840357Y-114780714D01*
X146030833Y-114780714D01*
X146126071Y-114828333D01*
X147268928Y-114780714D02*
X147507023Y-115447380D01*
X147745119Y-114780714D01*
X148126071Y-115352142D02*
X148173690Y-115399761D01*
X148126071Y-115447380D01*
X148078452Y-115399761D01*
X148126071Y-115352142D01*
X148126071Y-115447380D01*
X148554642Y-114542619D02*
X148602261Y-114495000D01*
X148697500Y-114447380D01*
X148935595Y-114447380D01*
X149030833Y-114495000D01*
X149078452Y-114542619D01*
X149126071Y-114637857D01*
X149126071Y-114733095D01*
X149078452Y-114875952D01*
X148507023Y-115447380D01*
X149126071Y-115447380D01*
X150268928Y-114542619D02*
X150316547Y-114495000D01*
X150411785Y-114447380D01*
X150649880Y-114447380D01*
X150745119Y-114495000D01*
X150792738Y-114542619D01*
X150840357Y-114637857D01*
X150840357Y-114733095D01*
X150792738Y-114875952D01*
X150221309Y-115447380D01*
X150840357Y-115447380D01*
X151459404Y-114447380D02*
X151554642Y-114447380D01*
X151649880Y-114495000D01*
X151697500Y-114542619D01*
X151745119Y-114637857D01*
X151792738Y-114828333D01*
X151792738Y-115066428D01*
X151745119Y-115256904D01*
X151697500Y-115352142D01*
X151649880Y-115399761D01*
X151554642Y-115447380D01*
X151459404Y-115447380D01*
X151364166Y-115399761D01*
X151316547Y-115352142D01*
X151268928Y-115256904D01*
X151221309Y-115066428D01*
X151221309Y-114828333D01*
X151268928Y-114637857D01*
X151316547Y-114542619D01*
X151364166Y-114495000D01*
X151459404Y-114447380D01*
X152173690Y-114542619D02*
X152221309Y-114495000D01*
X152316547Y-114447380D01*
X152554642Y-114447380D01*
X152649880Y-114495000D01*
X152697500Y-114542619D01*
X152745119Y-114637857D01*
X152745119Y-114733095D01*
X152697500Y-114875952D01*
X152126071Y-115447380D01*
X152745119Y-115447380D01*
X153602261Y-114780714D02*
X153602261Y-115447380D01*
X153364166Y-114399761D02*
X153126071Y-115114047D01*
X153745119Y-115114047D01*
X155173690Y-114447380D02*
X155173690Y-115161666D01*
X155126071Y-115304523D01*
X155030833Y-115399761D01*
X154887976Y-115447380D01*
X154792738Y-115447380D01*
X156078452Y-114780714D02*
X156078452Y-115447380D01*
X155649880Y-114780714D02*
X155649880Y-115304523D01*
X155697500Y-115399761D01*
X155792738Y-115447380D01*
X155935595Y-115447380D01*
X156030833Y-115399761D01*
X156078452Y-115352142D01*
X156554642Y-114780714D02*
X156554642Y-115447380D01*
X156554642Y-114875952D02*
X156602261Y-114828333D01*
X156697500Y-114780714D01*
X156840357Y-114780714D01*
X156935595Y-114828333D01*
X156983214Y-114923571D01*
X156983214Y-115447380D01*
X157459404Y-115352142D02*
X157507023Y-115399761D01*
X157459404Y-115447380D01*
X157411785Y-115399761D01*
X157459404Y-115352142D01*
X157459404Y-115447380D01*
X128935595Y-117057380D02*
X128935595Y-116057380D01*
X129364166Y-117057380D02*
X129364166Y-116533571D01*
X129316547Y-116438333D01*
X129221309Y-116390714D01*
X129078452Y-116390714D01*
X128983214Y-116438333D01*
X128935595Y-116485952D01*
X129697500Y-116390714D02*
X130078452Y-116390714D01*
X129840357Y-116057380D02*
X129840357Y-116914523D01*
X129887976Y-117009761D01*
X129983214Y-117057380D01*
X130078452Y-117057380D01*
X130268928Y-116390714D02*
X130649880Y-116390714D01*
X130411785Y-116057380D02*
X130411785Y-116914523D01*
X130459404Y-117009761D01*
X130554642Y-117057380D01*
X130649880Y-117057380D01*
X130983214Y-116390714D02*
X130983214Y-117390714D01*
X130983214Y-116438333D02*
X131078452Y-116390714D01*
X131268928Y-116390714D01*
X131364166Y-116438333D01*
X131411785Y-116485952D01*
X131459404Y-116581190D01*
X131459404Y-116866904D01*
X131411785Y-116962142D01*
X131364166Y-117009761D01*
X131268928Y-117057380D01*
X131078452Y-117057380D01*
X130983214Y-117009761D01*
X131840357Y-117009761D02*
X131935595Y-117057380D01*
X132126071Y-117057380D01*
X132221309Y-117009761D01*
X132268928Y-116914523D01*
X132268928Y-116866904D01*
X132221309Y-116771666D01*
X132126071Y-116724047D01*
X131983214Y-116724047D01*
X131887976Y-116676428D01*
X131840357Y-116581190D01*
X131840357Y-116533571D01*
X131887976Y-116438333D01*
X131983214Y-116390714D01*
X132126071Y-116390714D01*
X132221309Y-116438333D01*
X132697500Y-116962142D02*
X132745119Y-117009761D01*
X132697500Y-117057380D01*
X132649880Y-117009761D01*
X132697500Y-116962142D01*
X132697500Y-117057380D01*
X132697500Y-116438333D02*
X132745119Y-116485952D01*
X132697500Y-116533571D01*
X132649880Y-116485952D01*
X132697500Y-116438333D01*
X132697500Y-116533571D01*
X133887976Y-116009761D02*
X133030833Y-117295476D01*
X134935595Y-116009761D02*
X134078452Y-117295476D01*
X135697500Y-116390714D02*
X135697500Y-117200238D01*
X135649880Y-117295476D01*
X135602261Y-117343095D01*
X135507023Y-117390714D01*
X135364166Y-117390714D01*
X135268928Y-117343095D01*
X135697500Y-117009761D02*
X135602261Y-117057380D01*
X135411785Y-117057380D01*
X135316547Y-117009761D01*
X135268928Y-116962142D01*
X135221309Y-116866904D01*
X135221309Y-116581190D01*
X135268928Y-116485952D01*
X135316547Y-116438333D01*
X135411785Y-116390714D01*
X135602261Y-116390714D01*
X135697500Y-116438333D01*
X136173690Y-117057380D02*
X136173690Y-116390714D01*
X136173690Y-116057380D02*
X136126071Y-116105000D01*
X136173690Y-116152619D01*
X136221309Y-116105000D01*
X136173690Y-116057380D01*
X136173690Y-116152619D01*
X136507023Y-116390714D02*
X136887976Y-116390714D01*
X136649880Y-116057380D02*
X136649880Y-116914523D01*
X136697500Y-117009761D01*
X136792738Y-117057380D01*
X136887976Y-117057380D01*
X137221309Y-117057380D02*
X137221309Y-116057380D01*
X137649880Y-117057380D02*
X137649880Y-116533571D01*
X137602261Y-116438333D01*
X137507023Y-116390714D01*
X137364166Y-116390714D01*
X137268928Y-116438333D01*
X137221309Y-116485952D01*
X138554642Y-116390714D02*
X138554642Y-117057380D01*
X138126071Y-116390714D02*
X138126071Y-116914523D01*
X138173690Y-117009761D01*
X138268928Y-117057380D01*
X138411785Y-117057380D01*
X138507023Y-117009761D01*
X138554642Y-116962142D01*
X139030833Y-117057380D02*
X139030833Y-116057380D01*
X139030833Y-116438333D02*
X139126071Y-116390714D01*
X139316547Y-116390714D01*
X139411785Y-116438333D01*
X139459404Y-116485952D01*
X139507023Y-116581190D01*
X139507023Y-116866904D01*
X139459404Y-116962142D01*
X139411785Y-117009761D01*
X139316547Y-117057380D01*
X139126071Y-117057380D01*
X139030833Y-117009761D01*
X139935595Y-116962142D02*
X139983214Y-117009761D01*
X139935595Y-117057380D01*
X139887976Y-117009761D01*
X139935595Y-116962142D01*
X139935595Y-117057380D01*
X140840357Y-117009761D02*
X140745119Y-117057380D01*
X140554642Y-117057380D01*
X140459404Y-117009761D01*
X140411785Y-116962142D01*
X140364166Y-116866904D01*
X140364166Y-116581190D01*
X140411785Y-116485952D01*
X140459404Y-116438333D01*
X140554642Y-116390714D01*
X140745119Y-116390714D01*
X140840357Y-116438333D01*
X141411785Y-117057380D02*
X141316547Y-117009761D01*
X141268928Y-116962142D01*
X141221309Y-116866904D01*
X141221309Y-116581190D01*
X141268928Y-116485952D01*
X141316547Y-116438333D01*
X141411785Y-116390714D01*
X141554642Y-116390714D01*
X141649880Y-116438333D01*
X141697500Y-116485952D01*
X141745119Y-116581190D01*
X141745119Y-116866904D01*
X141697500Y-116962142D01*
X141649880Y-117009761D01*
X141554642Y-117057380D01*
X141411785Y-117057380D01*
X142173690Y-117057380D02*
X142173690Y-116390714D01*
X142173690Y-116485952D02*
X142221309Y-116438333D01*
X142316547Y-116390714D01*
X142459404Y-116390714D01*
X142554642Y-116438333D01*
X142602261Y-116533571D01*
X142602261Y-117057380D01*
X142602261Y-116533571D02*
X142649880Y-116438333D01*
X142745119Y-116390714D01*
X142887976Y-116390714D01*
X142983214Y-116438333D01*
X143030833Y-116533571D01*
X143030833Y-117057380D01*
X144221309Y-116009761D02*
X143364166Y-117295476D01*
X144554642Y-116390714D02*
X144554642Y-117057380D01*
X144554642Y-116485952D02*
X144602261Y-116438333D01*
X144697500Y-116390714D01*
X144840357Y-116390714D01*
X144935595Y-116438333D01*
X144983214Y-116533571D01*
X144983214Y-117057380D01*
X145887976Y-117057380D02*
X145887976Y-116533571D01*
X145840357Y-116438333D01*
X145745119Y-116390714D01*
X145554642Y-116390714D01*
X145459404Y-116438333D01*
X145887976Y-117009761D02*
X145792738Y-117057380D01*
X145554642Y-117057380D01*
X145459404Y-117009761D01*
X145411785Y-116914523D01*
X145411785Y-116819285D01*
X145459404Y-116724047D01*
X145554642Y-116676428D01*
X145792738Y-116676428D01*
X145887976Y-116628809D01*
X146507023Y-117057380D02*
X146411785Y-117009761D01*
X146364166Y-116962142D01*
X146316547Y-116866904D01*
X146316547Y-116581190D01*
X146364166Y-116485952D01*
X146411785Y-116438333D01*
X146507023Y-116390714D01*
X146649880Y-116390714D01*
X146745119Y-116438333D01*
X146792738Y-116485952D01*
X146840357Y-116581190D01*
X146840357Y-116866904D01*
X146792738Y-116962142D01*
X146745119Y-117009761D01*
X146649880Y-117057380D01*
X146507023Y-117057380D01*
X147173690Y-116390714D02*
X147411785Y-117057380D01*
X147649880Y-116390714D02*
X147411785Y-117057380D01*
X147316547Y-117295476D01*
X147268928Y-117343095D01*
X147173690Y-117390714D01*
X148459404Y-117057380D02*
X148459404Y-116533571D01*
X148411785Y-116438333D01*
X148316547Y-116390714D01*
X148126071Y-116390714D01*
X148030833Y-116438333D01*
X148459404Y-117009761D02*
X148364166Y-117057380D01*
X148126071Y-117057380D01*
X148030833Y-117009761D01*
X147983214Y-116914523D01*
X147983214Y-116819285D01*
X148030833Y-116724047D01*
X148126071Y-116676428D01*
X148364166Y-116676428D01*
X148459404Y-116628809D01*
X149459404Y-117057380D02*
X148887976Y-117057380D01*
X149173690Y-117057380D02*
X149173690Y-116057380D01*
X149078452Y-116200238D01*
X148983214Y-116295476D01*
X148887976Y-116343095D01*
X150411785Y-117057380D02*
X149840357Y-117057380D01*
X150126071Y-117057380D02*
X150126071Y-116057380D01*
X150030833Y-116200238D01*
X149935595Y-116295476D01*
X149840357Y-116343095D01*
X151364166Y-117057380D02*
X150792738Y-117057380D01*
X151078452Y-117057380D02*
X151078452Y-116057380D01*
X150983214Y-116200238D01*
X150887976Y-116295476D01*
X150792738Y-116343095D01*
X151983214Y-116057380D02*
X152078452Y-116057380D01*
X152173690Y-116105000D01*
X152221309Y-116152619D01*
X152268928Y-116247857D01*
X152316547Y-116438333D01*
X152316547Y-116676428D01*
X152268928Y-116866904D01*
X152221309Y-116962142D01*
X152173690Y-117009761D01*
X152078452Y-117057380D01*
X151983214Y-117057380D01*
X151887976Y-117009761D01*
X151840357Y-116962142D01*
X151792738Y-116866904D01*
X151745119Y-116676428D01*
X151745119Y-116438333D01*
X151792738Y-116247857D01*
X151840357Y-116152619D01*
X151887976Y-116105000D01*
X151983214Y-116057380D01*
X153459404Y-116009761D02*
X152602261Y-117295476D01*
X153792738Y-116390714D02*
X153792738Y-117247857D01*
X153745119Y-117343095D01*
X153649880Y-117390714D01*
X153602261Y-117390714D01*
X153792738Y-116057380D02*
X153745119Y-116105000D01*
X153792738Y-116152619D01*
X153840357Y-116105000D01*
X153792738Y-116057380D01*
X153792738Y-116152619D01*
X154649880Y-117009761D02*
X154554642Y-117057380D01*
X154364166Y-117057380D01*
X154268928Y-117009761D01*
X154221309Y-116914523D01*
X154221309Y-116533571D01*
X154268928Y-116438333D01*
X154364166Y-116390714D01*
X154554642Y-116390714D01*
X154649880Y-116438333D01*
X154697500Y-116533571D01*
X154697500Y-116628809D01*
X154221309Y-116724047D01*
X154983214Y-116390714D02*
X155364166Y-116390714D01*
X155126071Y-116057380D02*
X155126071Y-116914523D01*
X155173690Y-117009761D01*
X155268928Y-117057380D01*
X155364166Y-117057380D01*
X155697500Y-117057380D02*
X155697500Y-116057380D01*
X155697500Y-116438333D02*
X155792738Y-116390714D01*
X155983214Y-116390714D01*
X156078452Y-116438333D01*
X156126071Y-116485952D01*
X156173690Y-116581190D01*
X156173690Y-116866904D01*
X156126071Y-116962142D01*
X156078452Y-117009761D01*
X155983214Y-117057380D01*
X155792738Y-117057380D01*
X155697500Y-117009761D01*
X156745119Y-117057380D02*
X156649880Y-117009761D01*
X156602261Y-116962142D01*
X156554642Y-116866904D01*
X156554642Y-116581190D01*
X156602261Y-116485952D01*
X156649880Y-116438333D01*
X156745119Y-116390714D01*
X156887976Y-116390714D01*
X156983214Y-116438333D01*
X157030833Y-116485952D01*
X157078452Y-116581190D01*
X157078452Y-116866904D01*
X157030833Y-116962142D01*
X156983214Y-117009761D01*
X156887976Y-117057380D01*
X156745119Y-117057380D01*
X157364166Y-116390714D02*
X157745119Y-116390714D01*
X157507023Y-116057380D02*
X157507023Y-116914523D01*
X157554642Y-117009761D01*
X157649880Y-117057380D01*
X157745119Y-117057380D01*
X157840357Y-117152619D02*
X158602261Y-117152619D01*
X158745119Y-116057380D02*
X159364166Y-116057380D01*
X159030833Y-116438333D01*
X159173690Y-116438333D01*
X159268928Y-116485952D01*
X159316547Y-116533571D01*
X159364166Y-116628809D01*
X159364166Y-116866904D01*
X159316547Y-116962142D01*
X159268928Y-117009761D01*
X159173690Y-117057380D01*
X158887976Y-117057380D01*
X158792738Y-117009761D01*
X158745119Y-116962142D01*
X160221309Y-117057380D02*
X160221309Y-116057380D01*
X160221309Y-117009761D02*
X160126071Y-117057380D01*
X159935595Y-117057380D01*
X159840357Y-117009761D01*
X159792738Y-116962142D01*
X159745119Y-116866904D01*
X159745119Y-116581190D01*
X159792738Y-116485952D01*
X159840357Y-116438333D01*
X159935595Y-116390714D01*
X160126071Y-116390714D01*
X160221309Y-116438333D01*
X160459404Y-117152619D02*
X161221309Y-117152619D01*
X161459404Y-117057380D02*
X161459404Y-116390714D01*
X161459404Y-116485952D02*
X161507023Y-116438333D01*
X161602261Y-116390714D01*
X161745119Y-116390714D01*
X161840357Y-116438333D01*
X161887976Y-116533571D01*
X161887976Y-117057380D01*
X161887976Y-116533571D02*
X161935595Y-116438333D01*
X162030833Y-116390714D01*
X162173690Y-116390714D01*
X162268928Y-116438333D01*
X162316547Y-116533571D01*
X162316547Y-117057380D01*
X162935595Y-117057380D02*
X162840357Y-117009761D01*
X162792738Y-116962142D01*
X162745119Y-116866904D01*
X162745119Y-116581190D01*
X162792738Y-116485952D01*
X162840357Y-116438333D01*
X162935595Y-116390714D01*
X163078452Y-116390714D01*
X163173690Y-116438333D01*
X163221309Y-116485952D01*
X163268928Y-116581190D01*
X163268928Y-116866904D01*
X163221309Y-116962142D01*
X163173690Y-117009761D01*
X163078452Y-117057380D01*
X162935595Y-117057380D01*
X164126071Y-117057380D02*
X164126071Y-116057380D01*
X164126071Y-117009761D02*
X164030833Y-117057380D01*
X163840357Y-117057380D01*
X163745119Y-117009761D01*
X163697500Y-116962142D01*
X163649880Y-116866904D01*
X163649880Y-116581190D01*
X163697500Y-116485952D01*
X163745119Y-116438333D01*
X163840357Y-116390714D01*
X164030833Y-116390714D01*
X164126071Y-116438333D01*
X164983214Y-117009761D02*
X164887976Y-117057380D01*
X164697500Y-117057380D01*
X164602261Y-117009761D01*
X164554642Y-116914523D01*
X164554642Y-116533571D01*
X164602261Y-116438333D01*
X164697500Y-116390714D01*
X164887976Y-116390714D01*
X164983214Y-116438333D01*
X165030833Y-116533571D01*
X165030833Y-116628809D01*
X164554642Y-116724047D01*
X165602261Y-117057380D02*
X165507023Y-117009761D01*
X165459404Y-116914523D01*
X165459404Y-116057380D01*
X137638095Y-93147619D02*
X137685714Y-93100000D01*
X137780952Y-93052380D01*
X138019047Y-93052380D01*
X138114285Y-93100000D01*
X138161904Y-93147619D01*
X138209523Y-93242857D01*
X138209523Y-93338095D01*
X138161904Y-93480952D01*
X137590476Y-94052380D01*
X138209523Y-94052380D01*
X138542857Y-93052380D02*
X139209523Y-93052380D01*
X138780952Y-94052380D01*
X154438095Y-90547619D02*
X154485714Y-90500000D01*
X154580952Y-90452380D01*
X154819047Y-90452380D01*
X154914285Y-90500000D01*
X154961904Y-90547619D01*
X155009523Y-90642857D01*
X155009523Y-90738095D01*
X154961904Y-90880952D01*
X154390476Y-91452380D01*
X155009523Y-91452380D01*
X155866666Y-90452380D02*
X155676190Y-90452380D01*
X155580952Y-90500000D01*
X155533333Y-90547619D01*
X155438095Y-90690476D01*
X155390476Y-90880952D01*
X155390476Y-91261904D01*
X155438095Y-91357142D01*
X155485714Y-91404761D01*
X155580952Y-91452380D01*
X155771428Y-91452380D01*
X155866666Y-91404761D01*
X155914285Y-91357142D01*
X155961904Y-91261904D01*
X155961904Y-91023809D01*
X155914285Y-90928571D01*
X155866666Y-90880952D01*
X155771428Y-90833333D01*
X155580952Y-90833333D01*
X155485714Y-90880952D01*
X155438095Y-90928571D01*
X155390476Y-91023809D01*
X124209523Y-66604761D02*
X124352380Y-66652380D01*
X124590476Y-66652380D01*
X124685714Y-66604761D01*
X124733333Y-66557142D01*
X124780952Y-66461904D01*
X124780952Y-66366666D01*
X124733333Y-66271428D01*
X124685714Y-66223809D01*
X124590476Y-66176190D01*
X124400000Y-66128571D01*
X124304761Y-66080952D01*
X124257142Y-66033333D01*
X124209523Y-65938095D01*
X124209523Y-65842857D01*
X124257142Y-65747619D01*
X124304761Y-65700000D01*
X124400000Y-65652380D01*
X124638095Y-65652380D01*
X124780952Y-65700000D01*
X125780952Y-66557142D02*
X125733333Y-66604761D01*
X125590476Y-66652380D01*
X125495238Y-66652380D01*
X125352380Y-66604761D01*
X125257142Y-66509523D01*
X125209523Y-66414285D01*
X125161904Y-66223809D01*
X125161904Y-66080952D01*
X125209523Y-65890476D01*
X125257142Y-65795238D01*
X125352380Y-65700000D01*
X125495238Y-65652380D01*
X125590476Y-65652380D01*
X125733333Y-65700000D01*
X125780952Y-65747619D01*
X126685714Y-66652380D02*
X126209523Y-66652380D01*
X126209523Y-65652380D01*
X136585714Y-63604761D02*
X136728571Y-63652380D01*
X136966666Y-63652380D01*
X137061904Y-63604761D01*
X137109523Y-63557142D01*
X137157142Y-63461904D01*
X137157142Y-63366666D01*
X137109523Y-63271428D01*
X137061904Y-63223809D01*
X136966666Y-63176190D01*
X136776190Y-63128571D01*
X136680952Y-63080952D01*
X136633333Y-63033333D01*
X136585714Y-62938095D01*
X136585714Y-62842857D01*
X136633333Y-62747619D01*
X136680952Y-62700000D01*
X136776190Y-62652380D01*
X137014285Y-62652380D01*
X137157142Y-62700000D01*
X137585714Y-63652380D02*
X137585714Y-62652380D01*
X137823809Y-62652380D01*
X137966666Y-62700000D01*
X138061904Y-62795238D01*
X138109523Y-62890476D01*
X138157142Y-63080952D01*
X138157142Y-63223809D01*
X138109523Y-63414285D01*
X138061904Y-63509523D01*
X137966666Y-63604761D01*
X137823809Y-63652380D01*
X137585714Y-63652380D01*
X138538095Y-63366666D02*
X139014285Y-63366666D01*
X138442857Y-63652380D02*
X138776190Y-62652380D01*
X139109523Y-63652380D01*
X154809523Y-73652380D02*
X154238095Y-73652380D01*
X154523809Y-73652380D02*
X154523809Y-72652380D01*
X154428571Y-72795238D01*
X154333333Y-72890476D01*
X154238095Y-72938095D01*
X155190476Y-72747619D02*
X155238095Y-72700000D01*
X155333333Y-72652380D01*
X155571428Y-72652380D01*
X155666666Y-72700000D01*
X155714285Y-72747619D01*
X155761904Y-72842857D01*
X155761904Y-72938095D01*
X155714285Y-73080952D01*
X155142857Y-73652380D01*
X155761904Y-73652380D01*
X135000000Y-80871428D02*
X135761904Y-80871428D01*
X135380952Y-81252380D02*
X135380952Y-80490476D01*
X136142857Y-80252380D02*
X136761904Y-80252380D01*
X136428571Y-80633333D01*
X136571428Y-80633333D01*
X136666666Y-80680952D01*
X136714285Y-80728571D01*
X136761904Y-80823809D01*
X136761904Y-81061904D01*
X136714285Y-81157142D01*
X136666666Y-81204761D01*
X136571428Y-81252380D01*
X136285714Y-81252380D01*
X136190476Y-81204761D01*
X136142857Y-81157142D01*
X137190476Y-81157142D02*
X137238095Y-81204761D01*
X137190476Y-81252380D01*
X137142857Y-81204761D01*
X137190476Y-81157142D01*
X137190476Y-81252380D01*
X137571428Y-80252380D02*
X138190476Y-80252380D01*
X137857142Y-80633333D01*
X138000000Y-80633333D01*
X138095238Y-80680952D01*
X138142857Y-80728571D01*
X138190476Y-80823809D01*
X138190476Y-81061904D01*
X138142857Y-81157142D01*
X138095238Y-81204761D01*
X138000000Y-81252380D01*
X137714285Y-81252380D01*
X137619047Y-81204761D01*
X137571428Y-81157142D01*
X138476190Y-80252380D02*
X138809523Y-81252380D01*
X139142857Y-80252380D01*
X154838095Y-82900000D02*
X154742857Y-82852380D01*
X154600000Y-82852380D01*
X154457142Y-82900000D01*
X154361904Y-82995238D01*
X154314285Y-83090476D01*
X154266666Y-83280952D01*
X154266666Y-83423809D01*
X154314285Y-83614285D01*
X154361904Y-83709523D01*
X154457142Y-83804761D01*
X154600000Y-83852380D01*
X154695238Y-83852380D01*
X154838095Y-83804761D01*
X154885714Y-83757142D01*
X154885714Y-83423809D01*
X154695238Y-83423809D01*
X155314285Y-83852380D02*
X155314285Y-82852380D01*
X155885714Y-83852380D01*
X155885714Y-82852380D01*
X156361904Y-83852380D02*
X156361904Y-82852380D01*
X156600000Y-82852380D01*
X156742857Y-82900000D01*
X156838095Y-82995238D01*
X156885714Y-83090476D01*
X156933333Y-83280952D01*
X156933333Y-83423809D01*
X156885714Y-83614285D01*
X156838095Y-83709523D01*
X156742857Y-83804761D01*
X156600000Y-83852380D01*
X156361904Y-83852380D01*
X174690476Y-70028571D02*
X174357142Y-70028571D01*
X174357142Y-70552380D02*
X174357142Y-69552380D01*
X174833333Y-69552380D01*
X175595238Y-70504761D02*
X175500000Y-70552380D01*
X175309523Y-70552380D01*
X175214285Y-70504761D01*
X175166666Y-70409523D01*
X175166666Y-70028571D01*
X175214285Y-69933333D01*
X175309523Y-69885714D01*
X175500000Y-69885714D01*
X175595238Y-69933333D01*
X175642857Y-70028571D01*
X175642857Y-70123809D01*
X175166666Y-70219047D01*
X176500000Y-70552380D02*
X176500000Y-70028571D01*
X176452380Y-69933333D01*
X176357142Y-69885714D01*
X176166666Y-69885714D01*
X176071428Y-69933333D01*
X176500000Y-70504761D02*
X176404761Y-70552380D01*
X176166666Y-70552380D01*
X176071428Y-70504761D01*
X176023809Y-70409523D01*
X176023809Y-70314285D01*
X176071428Y-70219047D01*
X176166666Y-70171428D01*
X176404761Y-70171428D01*
X176500000Y-70123809D01*
X176833333Y-69885714D02*
X177214285Y-69885714D01*
X176976190Y-69552380D02*
X176976190Y-70409523D01*
X177023809Y-70504761D01*
X177119047Y-70552380D01*
X177214285Y-70552380D01*
X177547619Y-70552380D02*
X177547619Y-69552380D01*
X177976190Y-70552380D02*
X177976190Y-70028571D01*
X177928571Y-69933333D01*
X177833333Y-69885714D01*
X177690476Y-69885714D01*
X177595238Y-69933333D01*
X177547619Y-69980952D01*
X178833333Y-70504761D02*
X178738095Y-70552380D01*
X178547619Y-70552380D01*
X178452380Y-70504761D01*
X178404761Y-70409523D01*
X178404761Y-70028571D01*
X178452380Y-69933333D01*
X178547619Y-69885714D01*
X178738095Y-69885714D01*
X178833333Y-69933333D01*
X178880952Y-70028571D01*
X178880952Y-70123809D01*
X178404761Y-70219047D01*
X179309523Y-70552380D02*
X179309523Y-69885714D01*
X179309523Y-70076190D02*
X179357142Y-69980952D01*
X179404761Y-69933333D01*
X179500000Y-69885714D01*
X179595238Y-69885714D01*
X179833333Y-69552380D02*
X180071428Y-70552380D01*
X180261904Y-69838095D01*
X180452380Y-70552380D01*
X180690476Y-69552380D01*
X181071428Y-70552380D02*
X181071428Y-69885714D01*
X181071428Y-69552380D02*
X181023809Y-69600000D01*
X181071428Y-69647619D01*
X181119047Y-69600000D01*
X181071428Y-69552380D01*
X181071428Y-69647619D01*
X181547619Y-69885714D02*
X181547619Y-70552380D01*
X181547619Y-69980952D02*
X181595238Y-69933333D01*
X181690476Y-69885714D01*
X181833333Y-69885714D01*
X181928571Y-69933333D01*
X181976190Y-70028571D01*
X181976190Y-70552380D01*
X182880952Y-69885714D02*
X182880952Y-70695238D01*
X182833333Y-70790476D01*
X182785714Y-70838095D01*
X182690476Y-70885714D01*
X182547619Y-70885714D01*
X182452380Y-70838095D01*
X182880952Y-70504761D02*
X182785714Y-70552380D01*
X182595238Y-70552380D01*
X182500000Y-70504761D01*
X182452380Y-70457142D01*
X182404761Y-70361904D01*
X182404761Y-70076190D01*
X182452380Y-69980952D01*
X182500000Y-69933333D01*
X182595238Y-69885714D01*
X182785714Y-69885714D01*
X182880952Y-69933333D01*
X184119047Y-70552380D02*
X184119047Y-69552380D01*
X184357142Y-69552380D01*
X184500000Y-69600000D01*
X184595238Y-69695238D01*
X184642857Y-69790476D01*
X184690476Y-69980952D01*
X184690476Y-70123809D01*
X184642857Y-70314285D01*
X184595238Y-70409523D01*
X184500000Y-70504761D01*
X184357142Y-70552380D01*
X184119047Y-70552380D01*
X185690476Y-70457142D02*
X185642857Y-70504761D01*
X185500000Y-70552380D01*
X185404761Y-70552380D01*
X185261904Y-70504761D01*
X185166666Y-70409523D01*
X185119047Y-70314285D01*
X185071428Y-70123809D01*
X185071428Y-69980952D01*
X185119047Y-69790476D01*
X185166666Y-69695238D01*
X185261904Y-69600000D01*
X185404761Y-69552380D01*
X185500000Y-69552380D01*
X185642857Y-69600000D01*
X185690476Y-69647619D01*
X186880952Y-70552380D02*
X186880952Y-69552380D01*
X187214285Y-70266666D01*
X187547619Y-69552380D01*
X187547619Y-70552380D01*
X188166666Y-70552380D02*
X188071428Y-70504761D01*
X188023809Y-70457142D01*
X187976190Y-70361904D01*
X187976190Y-70076190D01*
X188023809Y-69980952D01*
X188071428Y-69933333D01*
X188166666Y-69885714D01*
X188309523Y-69885714D01*
X188404761Y-69933333D01*
X188452380Y-69980952D01*
X188500000Y-70076190D01*
X188500000Y-70361904D01*
X188452380Y-70457142D01*
X188404761Y-70504761D01*
X188309523Y-70552380D01*
X188166666Y-70552380D01*
X188785714Y-69885714D02*
X189166666Y-69885714D01*
X188928571Y-69552380D02*
X188928571Y-70409523D01*
X188976190Y-70504761D01*
X189071428Y-70552380D01*
X189166666Y-70552380D01*
X189642857Y-70552380D02*
X189547619Y-70504761D01*
X189500000Y-70457142D01*
X189452380Y-70361904D01*
X189452380Y-70076190D01*
X189500000Y-69980952D01*
X189547619Y-69933333D01*
X189642857Y-69885714D01*
X189785714Y-69885714D01*
X189880952Y-69933333D01*
X189928571Y-69980952D01*
X189976190Y-70076190D01*
X189976190Y-70361904D01*
X189928571Y-70457142D01*
X189880952Y-70504761D01*
X189785714Y-70552380D01*
X189642857Y-70552380D01*
X190404761Y-70552380D02*
X190404761Y-69885714D01*
X190404761Y-70076190D02*
X190452380Y-69980952D01*
X190500000Y-69933333D01*
X190595238Y-69885714D01*
X190690476Y-69885714D01*
X191785714Y-70552380D02*
X191785714Y-69552380D01*
X192023809Y-69552380D01*
X192166666Y-69600000D01*
X192261904Y-69695238D01*
X192309523Y-69790476D01*
X192357142Y-69980952D01*
X192357142Y-70123809D01*
X192309523Y-70314285D01*
X192261904Y-70409523D01*
X192166666Y-70504761D01*
X192023809Y-70552380D01*
X191785714Y-70552380D01*
X192785714Y-70552380D02*
X192785714Y-69885714D01*
X192785714Y-70076190D02*
X192833333Y-69980952D01*
X192880952Y-69933333D01*
X192976190Y-69885714D01*
X193071428Y-69885714D01*
X193404761Y-70552380D02*
X193404761Y-69885714D01*
X193404761Y-69552380D02*
X193357142Y-69600000D01*
X193404761Y-69647619D01*
X193452380Y-69600000D01*
X193404761Y-69552380D01*
X193404761Y-69647619D01*
X193785714Y-69885714D02*
X194023809Y-70552380D01*
X194261904Y-69885714D01*
X195023809Y-70504761D02*
X194928571Y-70552380D01*
X194738095Y-70552380D01*
X194642857Y-70504761D01*
X194595238Y-70409523D01*
X194595238Y-70028571D01*
X194642857Y-69933333D01*
X194738095Y-69885714D01*
X194928571Y-69885714D01*
X195023809Y-69933333D01*
X195071428Y-70028571D01*
X195071428Y-70123809D01*
X194595238Y-70219047D01*
X195500000Y-70552380D02*
X195500000Y-69885714D01*
X195500000Y-70076190D02*
X195547619Y-69980952D01*
X195595238Y-69933333D01*
X195690476Y-69885714D01*
X195785714Y-69885714D01*
X138209523Y-78852380D02*
X137638095Y-78852380D01*
X137923809Y-78852380D02*
X137923809Y-77852380D01*
X137828571Y-77995238D01*
X137733333Y-78090476D01*
X137638095Y-78138095D01*
X139114285Y-77852380D02*
X138638095Y-77852380D01*
X138590476Y-78328571D01*
X138638095Y-78280952D01*
X138733333Y-78233333D01*
X138971428Y-78233333D01*
X139066666Y-78280952D01*
X139114285Y-78328571D01*
X139161904Y-78423809D01*
X139161904Y-78661904D01*
X139114285Y-78757142D01*
X139066666Y-78804761D01*
X138971428Y-78852380D01*
X138733333Y-78852380D01*
X138638095Y-78804761D01*
X138590476Y-78757142D01*
X154190476Y-105852380D02*
X154809523Y-105852380D01*
X154476190Y-106233333D01*
X154619047Y-106233333D01*
X154714285Y-106280952D01*
X154761904Y-106328571D01*
X154809523Y-106423809D01*
X154809523Y-106661904D01*
X154761904Y-106757142D01*
X154714285Y-106804761D01*
X154619047Y-106852380D01*
X154333333Y-106852380D01*
X154238095Y-106804761D01*
X154190476Y-106757142D01*
X155380952Y-106280952D02*
X155285714Y-106233333D01*
X155238095Y-106185714D01*
X155190476Y-106090476D01*
X155190476Y-106042857D01*
X155238095Y-105947619D01*
X155285714Y-105900000D01*
X155380952Y-105852380D01*
X155571428Y-105852380D01*
X155666666Y-105900000D01*
X155714285Y-105947619D01*
X155761904Y-106042857D01*
X155761904Y-106090476D01*
X155714285Y-106185714D01*
X155666666Y-106233333D01*
X155571428Y-106280952D01*
X155380952Y-106280952D01*
X155285714Y-106328571D01*
X155238095Y-106376190D01*
X155190476Y-106471428D01*
X155190476Y-106661904D01*
X155238095Y-106757142D01*
X155285714Y-106804761D01*
X155380952Y-106852380D01*
X155571428Y-106852380D01*
X155666666Y-106804761D01*
X155714285Y-106757142D01*
X155761904Y-106661904D01*
X155761904Y-106471428D01*
X155714285Y-106376190D01*
X155666666Y-106328571D01*
X155571428Y-106280952D01*
X137590476Y-105852380D02*
X138209523Y-105852380D01*
X137876190Y-106233333D01*
X138019047Y-106233333D01*
X138114285Y-106280952D01*
X138161904Y-106328571D01*
X138209523Y-106423809D01*
X138209523Y-106661904D01*
X138161904Y-106757142D01*
X138114285Y-106804761D01*
X138019047Y-106852380D01*
X137733333Y-106852380D01*
X137638095Y-106804761D01*
X137590476Y-106757142D01*
X138542857Y-105852380D02*
X139209523Y-105852380D01*
X138780952Y-106852380D01*
X202338095Y-84800000D02*
X202242857Y-84752380D01*
X202100000Y-84752380D01*
X201957142Y-84800000D01*
X201861904Y-84895238D01*
X201814285Y-84990476D01*
X201766666Y-85180952D01*
X201766666Y-85323809D01*
X201814285Y-85514285D01*
X201861904Y-85609523D01*
X201957142Y-85704761D01*
X202100000Y-85752380D01*
X202195238Y-85752380D01*
X202338095Y-85704761D01*
X202385714Y-85657142D01*
X202385714Y-85323809D01*
X202195238Y-85323809D01*
X202814285Y-85752380D02*
X202814285Y-84752380D01*
X203385714Y-85752380D01*
X203385714Y-84752380D01*
X203861904Y-85752380D02*
X203861904Y-84752380D01*
X204100000Y-84752380D01*
X204242857Y-84800000D01*
X204338095Y-84895238D01*
X204385714Y-84990476D01*
X204433333Y-85180952D01*
X204433333Y-85323809D01*
X204385714Y-85514285D01*
X204338095Y-85609523D01*
X204242857Y-85704761D01*
X204100000Y-85752380D01*
X203861904Y-85752380D01*
X202238095Y-94800000D02*
X202142857Y-94752380D01*
X202000000Y-94752380D01*
X201857142Y-94800000D01*
X201761904Y-94895238D01*
X201714285Y-94990476D01*
X201666666Y-95180952D01*
X201666666Y-95323809D01*
X201714285Y-95514285D01*
X201761904Y-95609523D01*
X201857142Y-95704761D01*
X202000000Y-95752380D01*
X202095238Y-95752380D01*
X202238095Y-95704761D01*
X202285714Y-95657142D01*
X202285714Y-95323809D01*
X202095238Y-95323809D01*
X202714285Y-95752380D02*
X202714285Y-94752380D01*
X203285714Y-95752380D01*
X203285714Y-94752380D01*
X203761904Y-95752380D02*
X203761904Y-94752380D01*
X204000000Y-94752380D01*
X204142857Y-94800000D01*
X204238095Y-94895238D01*
X204285714Y-94990476D01*
X204333333Y-95180952D01*
X204333333Y-95323809D01*
X204285714Y-95514285D01*
X204238095Y-95609523D01*
X204142857Y-95704761D01*
X204000000Y-95752380D01*
X203761904Y-95752380D01*
X154190476Y-103252380D02*
X154809523Y-103252380D01*
X154476190Y-103633333D01*
X154619047Y-103633333D01*
X154714285Y-103680952D01*
X154761904Y-103728571D01*
X154809523Y-103823809D01*
X154809523Y-104061904D01*
X154761904Y-104157142D01*
X154714285Y-104204761D01*
X154619047Y-104252380D01*
X154333333Y-104252380D01*
X154238095Y-104204761D01*
X154190476Y-104157142D01*
X155666666Y-103252380D02*
X155476190Y-103252380D01*
X155380952Y-103300000D01*
X155333333Y-103347619D01*
X155238095Y-103490476D01*
X155190476Y-103680952D01*
X155190476Y-104061904D01*
X155238095Y-104157142D01*
X155285714Y-104204761D01*
X155380952Y-104252380D01*
X155571428Y-104252380D01*
X155666666Y-104204761D01*
X155714285Y-104157142D01*
X155761904Y-104061904D01*
X155761904Y-103823809D01*
X155714285Y-103728571D01*
X155666666Y-103680952D01*
X155571428Y-103633333D01*
X155380952Y-103633333D01*
X155285714Y-103680952D01*
X155238095Y-103728571D01*
X155190476Y-103823809D01*
X154838095Y-95700000D02*
X154742857Y-95652380D01*
X154600000Y-95652380D01*
X154457142Y-95700000D01*
X154361904Y-95795238D01*
X154314285Y-95890476D01*
X154266666Y-96080952D01*
X154266666Y-96223809D01*
X154314285Y-96414285D01*
X154361904Y-96509523D01*
X154457142Y-96604761D01*
X154600000Y-96652380D01*
X154695238Y-96652380D01*
X154838095Y-96604761D01*
X154885714Y-96557142D01*
X154885714Y-96223809D01*
X154695238Y-96223809D01*
X155314285Y-96652380D02*
X155314285Y-95652380D01*
X155885714Y-96652380D01*
X155885714Y-95652380D01*
X156361904Y-96652380D02*
X156361904Y-95652380D01*
X156600000Y-95652380D01*
X156742857Y-95700000D01*
X156838095Y-95795238D01*
X156885714Y-95890476D01*
X156933333Y-96080952D01*
X156933333Y-96223809D01*
X156885714Y-96414285D01*
X156838095Y-96509523D01*
X156742857Y-96604761D01*
X156600000Y-96652380D01*
X156361904Y-96652380D01*
X201771428Y-58300000D02*
X201771428Y-57538095D01*
X202152380Y-57919047D02*
X201390476Y-57919047D01*
X201152380Y-57157142D02*
X201152380Y-56538095D01*
X201533333Y-56871428D01*
X201533333Y-56728571D01*
X201580952Y-56633333D01*
X201628571Y-56585714D01*
X201723809Y-56538095D01*
X201961904Y-56538095D01*
X202057142Y-56585714D01*
X202104761Y-56633333D01*
X202152380Y-56728571D01*
X202152380Y-57014285D01*
X202104761Y-57109523D01*
X202057142Y-57157142D01*
X202057142Y-56109523D02*
X202104761Y-56061904D01*
X202152380Y-56109523D01*
X202104761Y-56157142D01*
X202057142Y-56109523D01*
X202152380Y-56109523D01*
X201152380Y-55728571D02*
X201152380Y-55109523D01*
X201533333Y-55442857D01*
X201533333Y-55300000D01*
X201580952Y-55204761D01*
X201628571Y-55157142D01*
X201723809Y-55109523D01*
X201961904Y-55109523D01*
X202057142Y-55157142D01*
X202104761Y-55204761D01*
X202152380Y-55300000D01*
X202152380Y-55585714D01*
X202104761Y-55680952D01*
X202057142Y-55728571D01*
X201152380Y-54823809D02*
X202152380Y-54490476D01*
X201152380Y-54157142D01*
X128861904Y-96252380D02*
X128861904Y-95252380D01*
X129242857Y-95252380D01*
X129338095Y-95300000D01*
X129385714Y-95347619D01*
X129433333Y-95442857D01*
X129433333Y-95585714D01*
X129385714Y-95680952D01*
X129338095Y-95728571D01*
X129242857Y-95776190D01*
X128861904Y-95776190D01*
X130052380Y-95252380D02*
X130242857Y-95252380D01*
X130338095Y-95300000D01*
X130433333Y-95395238D01*
X130480952Y-95585714D01*
X130480952Y-95919047D01*
X130433333Y-96109523D01*
X130338095Y-96204761D01*
X130242857Y-96252380D01*
X130052380Y-96252380D01*
X129957142Y-96204761D01*
X129861904Y-96109523D01*
X129814285Y-95919047D01*
X129814285Y-95585714D01*
X129861904Y-95395238D01*
X129957142Y-95300000D01*
X130052380Y-95252380D01*
X130814285Y-95252380D02*
X131052380Y-96252380D01*
X131242857Y-95538095D01*
X131433333Y-96252380D01*
X131671428Y-95252380D01*
X132052380Y-95728571D02*
X132385714Y-95728571D01*
X132528571Y-96252380D02*
X132052380Y-96252380D01*
X132052380Y-95252380D01*
X132528571Y-95252380D01*
X133528571Y-96252380D02*
X133195238Y-95776190D01*
X132957142Y-96252380D02*
X132957142Y-95252380D01*
X133338095Y-95252380D01*
X133433333Y-95300000D01*
X133480952Y-95347619D01*
X133528571Y-95442857D01*
X133528571Y-95585714D01*
X133480952Y-95680952D01*
X133433333Y-95728571D01*
X133338095Y-95776190D01*
X132957142Y-95776190D01*
X134671428Y-96204761D02*
X134814285Y-96252380D01*
X135052380Y-96252380D01*
X135147619Y-96204761D01*
X135195238Y-96157142D01*
X135242857Y-96061904D01*
X135242857Y-95966666D01*
X135195238Y-95871428D01*
X135147619Y-95823809D01*
X135052380Y-95776190D01*
X134861904Y-95728571D01*
X134766666Y-95680952D01*
X134719047Y-95633333D01*
X134671428Y-95538095D01*
X134671428Y-95442857D01*
X134719047Y-95347619D01*
X134766666Y-95300000D01*
X134861904Y-95252380D01*
X135100000Y-95252380D01*
X135242857Y-95300000D01*
X135576190Y-95252380D02*
X135814285Y-96252380D01*
X136004761Y-95538095D01*
X136195238Y-96252380D01*
X136433333Y-95252380D01*
X122600000Y-60871428D02*
X123361904Y-60871428D01*
X122980952Y-61252380D02*
X122980952Y-60490476D01*
X123742857Y-60252380D02*
X124361904Y-60252380D01*
X124028571Y-60633333D01*
X124171428Y-60633333D01*
X124266666Y-60680952D01*
X124314285Y-60728571D01*
X124361904Y-60823809D01*
X124361904Y-61061904D01*
X124314285Y-61157142D01*
X124266666Y-61204761D01*
X124171428Y-61252380D01*
X123885714Y-61252380D01*
X123790476Y-61204761D01*
X123742857Y-61157142D01*
X124790476Y-61157142D02*
X124838095Y-61204761D01*
X124790476Y-61252380D01*
X124742857Y-61204761D01*
X124790476Y-61157142D01*
X124790476Y-61252380D01*
X125171428Y-60252380D02*
X125790476Y-60252380D01*
X125457142Y-60633333D01*
X125600000Y-60633333D01*
X125695238Y-60680952D01*
X125742857Y-60728571D01*
X125790476Y-60823809D01*
X125790476Y-61061904D01*
X125742857Y-61157142D01*
X125695238Y-61204761D01*
X125600000Y-61252380D01*
X125314285Y-61252380D01*
X125219047Y-61204761D01*
X125171428Y-61157142D01*
X126076190Y-60252380D02*
X126409523Y-61252380D01*
X126742857Y-60252380D01*
X166704761Y-84714285D02*
X166752380Y-84571428D01*
X166752380Y-84333333D01*
X166704761Y-84238095D01*
X166657142Y-84190476D01*
X166561904Y-84142857D01*
X166466666Y-84142857D01*
X166371428Y-84190476D01*
X166323809Y-84238095D01*
X166276190Y-84333333D01*
X166228571Y-84523809D01*
X166180952Y-84619047D01*
X166133333Y-84666666D01*
X166038095Y-84714285D01*
X165942857Y-84714285D01*
X165847619Y-84666666D01*
X165800000Y-84619047D01*
X165752380Y-84523809D01*
X165752380Y-84285714D01*
X165800000Y-84142857D01*
X166752380Y-83714285D02*
X165752380Y-83714285D01*
X165752380Y-83476190D01*
X165800000Y-83333333D01*
X165895238Y-83238095D01*
X165990476Y-83190476D01*
X166180952Y-83142857D01*
X166323809Y-83142857D01*
X166514285Y-83190476D01*
X166609523Y-83238095D01*
X166704761Y-83333333D01*
X166752380Y-83476190D01*
X166752380Y-83714285D01*
X166466666Y-82761904D02*
X166466666Y-82285714D01*
X166752380Y-82857142D02*
X165752380Y-82523809D01*
X166752380Y-82190476D01*
X195971428Y-91452380D02*
X195971428Y-90452380D01*
X196304761Y-91166666D01*
X196638095Y-90452380D01*
X196638095Y-91452380D01*
X197257142Y-91452380D02*
X197161904Y-91404761D01*
X197114285Y-91357142D01*
X197066666Y-91261904D01*
X197066666Y-90976190D01*
X197114285Y-90880952D01*
X197161904Y-90833333D01*
X197257142Y-90785714D01*
X197400000Y-90785714D01*
X197495238Y-90833333D01*
X197542857Y-90880952D01*
X197590476Y-90976190D01*
X197590476Y-91261904D01*
X197542857Y-91357142D01*
X197495238Y-91404761D01*
X197400000Y-91452380D01*
X197257142Y-91452380D01*
X197876190Y-90785714D02*
X198257142Y-90785714D01*
X198019047Y-90452380D02*
X198019047Y-91309523D01*
X198066666Y-91404761D01*
X198161904Y-91452380D01*
X198257142Y-91452380D01*
X198733333Y-91452380D02*
X198638095Y-91404761D01*
X198590476Y-91357142D01*
X198542857Y-91261904D01*
X198542857Y-90976190D01*
X198590476Y-90880952D01*
X198638095Y-90833333D01*
X198733333Y-90785714D01*
X198876190Y-90785714D01*
X198971428Y-90833333D01*
X199019047Y-90880952D01*
X199066666Y-90976190D01*
X199066666Y-91261904D01*
X199019047Y-91357142D01*
X198971428Y-91404761D01*
X198876190Y-91452380D01*
X198733333Y-91452380D01*
X199495238Y-91452380D02*
X199495238Y-90785714D01*
X199495238Y-90976190D02*
X199542857Y-90880952D01*
X199590476Y-90833333D01*
X199685714Y-90785714D01*
X199780952Y-90785714D01*
X200876190Y-91452380D02*
X200876190Y-90452380D01*
X201257142Y-90452380D01*
X201352380Y-90500000D01*
X201400000Y-90547619D01*
X201447619Y-90642857D01*
X201447619Y-90785714D01*
X201400000Y-90880952D01*
X201352380Y-90928571D01*
X201257142Y-90976190D01*
X200876190Y-90976190D01*
X202019047Y-91452380D02*
X201923809Y-91404761D01*
X201876190Y-91357142D01*
X201828571Y-91261904D01*
X201828571Y-90976190D01*
X201876190Y-90880952D01*
X201923809Y-90833333D01*
X202019047Y-90785714D01*
X202161904Y-90785714D01*
X202257142Y-90833333D01*
X202304761Y-90880952D01*
X202352380Y-90976190D01*
X202352380Y-91261904D01*
X202304761Y-91357142D01*
X202257142Y-91404761D01*
X202161904Y-91452380D01*
X202019047Y-91452380D01*
X202685714Y-90785714D02*
X202876190Y-91452380D01*
X203066666Y-90976190D01*
X203257142Y-91452380D01*
X203447619Y-90785714D01*
X204209523Y-91404761D02*
X204114285Y-91452380D01*
X203923809Y-91452380D01*
X203828571Y-91404761D01*
X203780952Y-91309523D01*
X203780952Y-90928571D01*
X203828571Y-90833333D01*
X203923809Y-90785714D01*
X204114285Y-90785714D01*
X204209523Y-90833333D01*
X204257142Y-90928571D01*
X204257142Y-91023809D01*
X203780952Y-91119047D01*
X204685714Y-91452380D02*
X204685714Y-90785714D01*
X204685714Y-90976190D02*
X204733333Y-90880952D01*
X204780952Y-90833333D01*
X204876190Y-90785714D01*
X204971428Y-90785714D01*
X195880952Y-95371428D02*
X196642857Y-95371428D01*
X196261904Y-95752380D02*
X196261904Y-94990476D01*
X197452380Y-95228571D02*
X197595238Y-95276190D01*
X197642857Y-95323809D01*
X197690476Y-95419047D01*
X197690476Y-95561904D01*
X197642857Y-95657142D01*
X197595238Y-95704761D01*
X197500000Y-95752380D01*
X197119047Y-95752380D01*
X197119047Y-94752380D01*
X197452380Y-94752380D01*
X197547619Y-94800000D01*
X197595238Y-94847619D01*
X197642857Y-94942857D01*
X197642857Y-95038095D01*
X197595238Y-95133333D01*
X197547619Y-95180952D01*
X197452380Y-95228571D01*
X197119047Y-95228571D01*
X198547619Y-95752380D02*
X198547619Y-95228571D01*
X198500000Y-95133333D01*
X198404761Y-95085714D01*
X198214285Y-95085714D01*
X198119047Y-95133333D01*
X198547619Y-95704761D02*
X198452380Y-95752380D01*
X198214285Y-95752380D01*
X198119047Y-95704761D01*
X198071428Y-95609523D01*
X198071428Y-95514285D01*
X198119047Y-95419047D01*
X198214285Y-95371428D01*
X198452380Y-95371428D01*
X198547619Y-95323809D01*
X198880952Y-95085714D02*
X199261904Y-95085714D01*
X199023809Y-94752380D02*
X199023809Y-95609523D01*
X199071428Y-95704761D01*
X199166666Y-95752380D01*
X199261904Y-95752380D01*
X137038095Y-108500000D02*
X136942857Y-108452380D01*
X136800000Y-108452380D01*
X136657142Y-108500000D01*
X136561904Y-108595238D01*
X136514285Y-108690476D01*
X136466666Y-108880952D01*
X136466666Y-109023809D01*
X136514285Y-109214285D01*
X136561904Y-109309523D01*
X136657142Y-109404761D01*
X136800000Y-109452380D01*
X136895238Y-109452380D01*
X137038095Y-109404761D01*
X137085714Y-109357142D01*
X137085714Y-109023809D01*
X136895238Y-109023809D01*
X137514285Y-109452380D02*
X137514285Y-108452380D01*
X138085714Y-109452380D01*
X138085714Y-108452380D01*
X138561904Y-109452380D02*
X138561904Y-108452380D01*
X138800000Y-108452380D01*
X138942857Y-108500000D01*
X139038095Y-108595238D01*
X139085714Y-108690476D01*
X139133333Y-108880952D01*
X139133333Y-109023809D01*
X139085714Y-109214285D01*
X139038095Y-109309523D01*
X138942857Y-109404761D01*
X138800000Y-109452380D01*
X138561904Y-109452380D01*
X187071428Y-114819047D02*
X187071428Y-114057142D01*
X187452380Y-114438095D02*
X186690476Y-114438095D01*
X186928571Y-113247619D02*
X186976190Y-113104761D01*
X187023809Y-113057142D01*
X187119047Y-113009523D01*
X187261904Y-113009523D01*
X187357142Y-113057142D01*
X187404761Y-113104761D01*
X187452380Y-113200000D01*
X187452380Y-113580952D01*
X186452380Y-113580952D01*
X186452380Y-113247619D01*
X186500000Y-113152380D01*
X186547619Y-113104761D01*
X186642857Y-113057142D01*
X186738095Y-113057142D01*
X186833333Y-113104761D01*
X186880952Y-113152380D01*
X186928571Y-113247619D01*
X186928571Y-113580952D01*
X187452380Y-112152380D02*
X186928571Y-112152380D01*
X186833333Y-112200000D01*
X186785714Y-112295238D01*
X186785714Y-112485714D01*
X186833333Y-112580952D01*
X187404761Y-112152380D02*
X187452380Y-112247619D01*
X187452380Y-112485714D01*
X187404761Y-112580952D01*
X187309523Y-112628571D01*
X187214285Y-112628571D01*
X187119047Y-112580952D01*
X187071428Y-112485714D01*
X187071428Y-112247619D01*
X187023809Y-112152380D01*
X186785714Y-111819047D02*
X186785714Y-111438095D01*
X186452380Y-111676190D02*
X187309523Y-111676190D01*
X187404761Y-111628571D01*
X187452380Y-111533333D01*
X187452380Y-111438095D01*
X154438095Y-93147619D02*
X154485714Y-93100000D01*
X154580952Y-93052380D01*
X154819047Y-93052380D01*
X154914285Y-93100000D01*
X154961904Y-93147619D01*
X155009523Y-93242857D01*
X155009523Y-93338095D01*
X154961904Y-93480952D01*
X154390476Y-94052380D01*
X155009523Y-94052380D01*
X155580952Y-93480952D02*
X155485714Y-93433333D01*
X155438095Y-93385714D01*
X155390476Y-93290476D01*
X155390476Y-93242857D01*
X155438095Y-93147619D01*
X155485714Y-93100000D01*
X155580952Y-93052380D01*
X155771428Y-93052380D01*
X155866666Y-93100000D01*
X155914285Y-93147619D01*
X155961904Y-93242857D01*
X155961904Y-93290476D01*
X155914285Y-93385714D01*
X155866666Y-93433333D01*
X155771428Y-93480952D01*
X155580952Y-93480952D01*
X155485714Y-93528571D01*
X155438095Y-93576190D01*
X155390476Y-93671428D01*
X155390476Y-93861904D01*
X155438095Y-93957142D01*
X155485714Y-94004761D01*
X155580952Y-94052380D01*
X155771428Y-94052380D01*
X155866666Y-94004761D01*
X155914285Y-93957142D01*
X155961904Y-93861904D01*
X155961904Y-93671428D01*
X155914285Y-93576190D01*
X155866666Y-93528571D01*
X155771428Y-93480952D01*
X178900000Y-113511904D02*
X178852380Y-113607142D01*
X178852380Y-113750000D01*
X178900000Y-113892857D01*
X178995238Y-113988095D01*
X179090476Y-114035714D01*
X179280952Y-114083333D01*
X179423809Y-114083333D01*
X179614285Y-114035714D01*
X179709523Y-113988095D01*
X179804761Y-113892857D01*
X179852380Y-113750000D01*
X179852380Y-113654761D01*
X179804761Y-113511904D01*
X179757142Y-113464285D01*
X179423809Y-113464285D01*
X179423809Y-113654761D01*
X179852380Y-113035714D02*
X178852380Y-113035714D01*
X179852380Y-112464285D01*
X178852380Y-112464285D01*
X179852380Y-111988095D02*
X178852380Y-111988095D01*
X178852380Y-111750000D01*
X178900000Y-111607142D01*
X178995238Y-111511904D01*
X179090476Y-111464285D01*
X179280952Y-111416666D01*
X179423809Y-111416666D01*
X179614285Y-111464285D01*
X179709523Y-111511904D01*
X179804761Y-111607142D01*
X179852380Y-111750000D01*
X179852380Y-111988095D01*
X154390476Y-98052380D02*
X155009523Y-98052380D01*
X154676190Y-98433333D01*
X154819047Y-98433333D01*
X154914285Y-98480952D01*
X154961904Y-98528571D01*
X155009523Y-98623809D01*
X155009523Y-98861904D01*
X154961904Y-98957142D01*
X154914285Y-99004761D01*
X154819047Y-99052380D01*
X154533333Y-99052380D01*
X154438095Y-99004761D01*
X154390476Y-98957142D01*
X155390476Y-98147619D02*
X155438095Y-98100000D01*
X155533333Y-98052380D01*
X155771428Y-98052380D01*
X155866666Y-98100000D01*
X155914285Y-98147619D01*
X155961904Y-98242857D01*
X155961904Y-98338095D01*
X155914285Y-98480952D01*
X155342857Y-99052380D01*
X155961904Y-99052380D01*
X137590476Y-100852380D02*
X138209523Y-100852380D01*
X137876190Y-101233333D01*
X138019047Y-101233333D01*
X138114285Y-101280952D01*
X138161904Y-101328571D01*
X138209523Y-101423809D01*
X138209523Y-101661904D01*
X138161904Y-101757142D01*
X138114285Y-101804761D01*
X138019047Y-101852380D01*
X137733333Y-101852380D01*
X137638095Y-101804761D01*
X137590476Y-101757142D01*
X138542857Y-100852380D02*
X139161904Y-100852380D01*
X138828571Y-101233333D01*
X138971428Y-101233333D01*
X139066666Y-101280952D01*
X139114285Y-101328571D01*
X139161904Y-101423809D01*
X139161904Y-101661904D01*
X139114285Y-101757142D01*
X139066666Y-101804761D01*
X138971428Y-101852380D01*
X138685714Y-101852380D01*
X138590476Y-101804761D01*
X138542857Y-101757142D01*
X154838095Y-100700000D02*
X154742857Y-100652380D01*
X154600000Y-100652380D01*
X154457142Y-100700000D01*
X154361904Y-100795238D01*
X154314285Y-100890476D01*
X154266666Y-101080952D01*
X154266666Y-101223809D01*
X154314285Y-101414285D01*
X154361904Y-101509523D01*
X154457142Y-101604761D01*
X154600000Y-101652380D01*
X154695238Y-101652380D01*
X154838095Y-101604761D01*
X154885714Y-101557142D01*
X154885714Y-101223809D01*
X154695238Y-101223809D01*
X155314285Y-101652380D02*
X155314285Y-100652380D01*
X155885714Y-101652380D01*
X155885714Y-100652380D01*
X156361904Y-101652380D02*
X156361904Y-100652380D01*
X156600000Y-100652380D01*
X156742857Y-100700000D01*
X156838095Y-100795238D01*
X156885714Y-100890476D01*
X156933333Y-101080952D01*
X156933333Y-101223809D01*
X156885714Y-101414285D01*
X156838095Y-101509523D01*
X156742857Y-101604761D01*
X156600000Y-101652380D01*
X156361904Y-101652380D01*
X138209523Y-73652380D02*
X137638095Y-73652380D01*
X137923809Y-73652380D02*
X137923809Y-72652380D01*
X137828571Y-72795238D01*
X137733333Y-72890476D01*
X137638095Y-72938095D01*
X139161904Y-73652380D02*
X138590476Y-73652380D01*
X138876190Y-73652380D02*
X138876190Y-72652380D01*
X138780952Y-72795238D01*
X138685714Y-72890476D01*
X138590476Y-72938095D01*
X154314285Y-63271428D02*
X155076190Y-63271428D01*
X154695238Y-63652380D02*
X154695238Y-62890476D01*
X156028571Y-62652380D02*
X155552380Y-62652380D01*
X155504761Y-63128571D01*
X155552380Y-63080952D01*
X155647619Y-63033333D01*
X155885714Y-63033333D01*
X155980952Y-63080952D01*
X156028571Y-63128571D01*
X156076190Y-63223809D01*
X156076190Y-63461904D01*
X156028571Y-63557142D01*
X155980952Y-63604761D01*
X155885714Y-63652380D01*
X155647619Y-63652380D01*
X155552380Y-63604761D01*
X155504761Y-63557142D01*
X156361904Y-62652380D02*
X156695238Y-63652380D01*
X157028571Y-62652380D01*
X154809523Y-81252380D02*
X154238095Y-81252380D01*
X154523809Y-81252380D02*
X154523809Y-80252380D01*
X154428571Y-80395238D01*
X154333333Y-80490476D01*
X154238095Y-80538095D01*
X155380952Y-80680952D02*
X155285714Y-80633333D01*
X155238095Y-80585714D01*
X155190476Y-80490476D01*
X155190476Y-80442857D01*
X155238095Y-80347619D01*
X155285714Y-80300000D01*
X155380952Y-80252380D01*
X155571428Y-80252380D01*
X155666666Y-80300000D01*
X155714285Y-80347619D01*
X155761904Y-80442857D01*
X155761904Y-80490476D01*
X155714285Y-80585714D01*
X155666666Y-80633333D01*
X155571428Y-80680952D01*
X155380952Y-80680952D01*
X155285714Y-80728571D01*
X155238095Y-80776190D01*
X155190476Y-80871428D01*
X155190476Y-81061904D01*
X155238095Y-81157142D01*
X155285714Y-81204761D01*
X155380952Y-81252380D01*
X155571428Y-81252380D01*
X155666666Y-81204761D01*
X155714285Y-81157142D01*
X155761904Y-81061904D01*
X155761904Y-80871428D01*
X155714285Y-80776190D01*
X155666666Y-80728571D01*
X155571428Y-80680952D01*
X137038095Y-70500000D02*
X136942857Y-70452380D01*
X136800000Y-70452380D01*
X136657142Y-70500000D01*
X136561904Y-70595238D01*
X136514285Y-70690476D01*
X136466666Y-70880952D01*
X136466666Y-71023809D01*
X136514285Y-71214285D01*
X136561904Y-71309523D01*
X136657142Y-71404761D01*
X136800000Y-71452380D01*
X136895238Y-71452380D01*
X137038095Y-71404761D01*
X137085714Y-71357142D01*
X137085714Y-71023809D01*
X136895238Y-71023809D01*
X137514285Y-71452380D02*
X137514285Y-70452380D01*
X138085714Y-71452380D01*
X138085714Y-70452380D01*
X138561904Y-71452380D02*
X138561904Y-70452380D01*
X138800000Y-70452380D01*
X138942857Y-70500000D01*
X139038095Y-70595238D01*
X139085714Y-70690476D01*
X139133333Y-70880952D01*
X139133333Y-71023809D01*
X139085714Y-71214285D01*
X139038095Y-71309523D01*
X138942857Y-71404761D01*
X138800000Y-71452380D01*
X138561904Y-71452380D01*
X138466666Y-67652380D02*
X139133333Y-67652380D01*
X138704761Y-68652380D01*
X137638095Y-88147619D02*
X137685714Y-88100000D01*
X137780952Y-88052380D01*
X138019047Y-88052380D01*
X138114285Y-88100000D01*
X138161904Y-88147619D01*
X138209523Y-88242857D01*
X138209523Y-88338095D01*
X138161904Y-88480952D01*
X137590476Y-89052380D01*
X138209523Y-89052380D01*
X138542857Y-88052380D02*
X139161904Y-88052380D01*
X138828571Y-88433333D01*
X138971428Y-88433333D01*
X139066666Y-88480952D01*
X139114285Y-88528571D01*
X139161904Y-88623809D01*
X139161904Y-88861904D01*
X139114285Y-88957142D01*
X139066666Y-89004761D01*
X138971428Y-89052380D01*
X138685714Y-89052380D01*
X138590476Y-89004761D01*
X138542857Y-88957142D01*
X137638095Y-95747619D02*
X137685714Y-95700000D01*
X137780952Y-95652380D01*
X138019047Y-95652380D01*
X138114285Y-95700000D01*
X138161904Y-95747619D01*
X138209523Y-95842857D01*
X138209523Y-95938095D01*
X138161904Y-96080952D01*
X137590476Y-96652380D01*
X138209523Y-96652380D01*
X138685714Y-96652380D02*
X138876190Y-96652380D01*
X138971428Y-96604761D01*
X139019047Y-96557142D01*
X139114285Y-96414285D01*
X139161904Y-96223809D01*
X139161904Y-95842857D01*
X139114285Y-95747619D01*
X139066666Y-95700000D01*
X138971428Y-95652380D01*
X138780952Y-95652380D01*
X138685714Y-95700000D01*
X138638095Y-95747619D01*
X138590476Y-95842857D01*
X138590476Y-96080952D01*
X138638095Y-96176190D01*
X138685714Y-96223809D01*
X138780952Y-96271428D01*
X138971428Y-96271428D01*
X139066666Y-96223809D01*
X139114285Y-96176190D01*
X139161904Y-96080952D01*
X138209523Y-83852380D02*
X137638095Y-83852380D01*
X137923809Y-83852380D02*
X137923809Y-82852380D01*
X137828571Y-82995238D01*
X137733333Y-83090476D01*
X137638095Y-83138095D01*
X138685714Y-83852380D02*
X138876190Y-83852380D01*
X138971428Y-83804761D01*
X139019047Y-83757142D01*
X139114285Y-83614285D01*
X139161904Y-83423809D01*
X139161904Y-83042857D01*
X139114285Y-82947619D01*
X139066666Y-82900000D01*
X138971428Y-82852380D01*
X138780952Y-82852380D01*
X138685714Y-82900000D01*
X138638095Y-82947619D01*
X138590476Y-83042857D01*
X138590476Y-83280952D01*
X138638095Y-83376190D01*
X138685714Y-83423809D01*
X138780952Y-83471428D01*
X138971428Y-83471428D01*
X139066666Y-83423809D01*
X139114285Y-83376190D01*
X139161904Y-83280952D01*
X154809523Y-71252380D02*
X154238095Y-71252380D01*
X154523809Y-71252380D02*
X154523809Y-70252380D01*
X154428571Y-70395238D01*
X154333333Y-70490476D01*
X154238095Y-70538095D01*
X155428571Y-70252380D02*
X155523809Y-70252380D01*
X155619047Y-70300000D01*
X155666666Y-70347619D01*
X155714285Y-70442857D01*
X155761904Y-70633333D01*
X155761904Y-70871428D01*
X155714285Y-71061904D01*
X155666666Y-71157142D01*
X155619047Y-71204761D01*
X155523809Y-71252380D01*
X155428571Y-71252380D01*
X155333333Y-71204761D01*
X155285714Y-71157142D01*
X155238095Y-71061904D01*
X155190476Y-70871428D01*
X155190476Y-70633333D01*
X155238095Y-70442857D01*
X155285714Y-70347619D01*
X155333333Y-70300000D01*
X155428571Y-70252380D01*
X195980952Y-85371428D02*
X196742857Y-85371428D01*
X196361904Y-85752380D02*
X196361904Y-84990476D01*
X197552380Y-85228571D02*
X197695238Y-85276190D01*
X197742857Y-85323809D01*
X197790476Y-85419047D01*
X197790476Y-85561904D01*
X197742857Y-85657142D01*
X197695238Y-85704761D01*
X197600000Y-85752380D01*
X197219047Y-85752380D01*
X197219047Y-84752380D01*
X197552380Y-84752380D01*
X197647619Y-84800000D01*
X197695238Y-84847619D01*
X197742857Y-84942857D01*
X197742857Y-85038095D01*
X197695238Y-85133333D01*
X197647619Y-85180952D01*
X197552380Y-85228571D01*
X197219047Y-85228571D01*
X198647619Y-85752380D02*
X198647619Y-85228571D01*
X198600000Y-85133333D01*
X198504761Y-85085714D01*
X198314285Y-85085714D01*
X198219047Y-85133333D01*
X198647619Y-85704761D02*
X198552380Y-85752380D01*
X198314285Y-85752380D01*
X198219047Y-85704761D01*
X198171428Y-85609523D01*
X198171428Y-85514285D01*
X198219047Y-85419047D01*
X198314285Y-85371428D01*
X198552380Y-85371428D01*
X198647619Y-85323809D01*
X198980952Y-85085714D02*
X199361904Y-85085714D01*
X199123809Y-84752380D02*
X199123809Y-85609523D01*
X199171428Y-85704761D01*
X199266666Y-85752380D01*
X199361904Y-85752380D01*
X137590476Y-98252380D02*
X138209523Y-98252380D01*
X137876190Y-98633333D01*
X138019047Y-98633333D01*
X138114285Y-98680952D01*
X138161904Y-98728571D01*
X138209523Y-98823809D01*
X138209523Y-99061904D01*
X138161904Y-99157142D01*
X138114285Y-99204761D01*
X138019047Y-99252380D01*
X137733333Y-99252380D01*
X137638095Y-99204761D01*
X137590476Y-99157142D01*
X139161904Y-99252380D02*
X138590476Y-99252380D01*
X138876190Y-99252380D02*
X138876190Y-98252380D01*
X138780952Y-98395238D01*
X138685714Y-98490476D01*
X138590476Y-98538095D01*
%TO.C,*%
%TO.C,U1*%
X173404761Y-99322380D02*
X173404761Y-98322380D01*
X173642857Y-98322380D01*
X173785714Y-98370000D01*
X173880952Y-98465238D01*
X173928571Y-98560476D01*
X173976190Y-98750952D01*
X173976190Y-98893809D01*
X173928571Y-99084285D01*
X173880952Y-99179523D01*
X173785714Y-99274761D01*
X173642857Y-99322380D01*
X173404761Y-99322380D01*
X174738095Y-98798571D02*
X174404761Y-98798571D01*
X174404761Y-99322380D02*
X174404761Y-98322380D01*
X174880952Y-98322380D01*
X175833333Y-99322380D02*
X175500000Y-98846190D01*
X175261904Y-99322380D02*
X175261904Y-98322380D01*
X175642857Y-98322380D01*
X175738095Y-98370000D01*
X175785714Y-98417619D01*
X175833333Y-98512857D01*
X175833333Y-98655714D01*
X175785714Y-98750952D01*
X175738095Y-98798571D01*
X175642857Y-98846190D01*
X175261904Y-98846190D01*
X176452380Y-98322380D02*
X176547619Y-98322380D01*
X176642857Y-98370000D01*
X176690476Y-98417619D01*
X176738095Y-98512857D01*
X176785714Y-98703333D01*
X176785714Y-98941428D01*
X176738095Y-99131904D01*
X176690476Y-99227142D01*
X176642857Y-99274761D01*
X176547619Y-99322380D01*
X176452380Y-99322380D01*
X176357142Y-99274761D01*
X176309523Y-99227142D01*
X176261904Y-99131904D01*
X176214285Y-98941428D01*
X176214285Y-98703333D01*
X176261904Y-98512857D01*
X176309523Y-98417619D01*
X176357142Y-98370000D01*
X176452380Y-98322380D01*
X177119047Y-98322380D02*
X177785714Y-98322380D01*
X177357142Y-99322380D01*
X178642857Y-98322380D02*
X178166666Y-98322380D01*
X178119047Y-98798571D01*
X178166666Y-98750952D01*
X178261904Y-98703333D01*
X178500000Y-98703333D01*
X178595238Y-98750952D01*
X178642857Y-98798571D01*
X178690476Y-98893809D01*
X178690476Y-99131904D01*
X178642857Y-99227142D01*
X178595238Y-99274761D01*
X178500000Y-99322380D01*
X178261904Y-99322380D01*
X178166666Y-99274761D01*
X178119047Y-99227142D01*
X179023809Y-98322380D02*
X179642857Y-98322380D01*
X179309523Y-98703333D01*
X179452380Y-98703333D01*
X179547619Y-98750952D01*
X179595238Y-98798571D01*
X179642857Y-98893809D01*
X179642857Y-99131904D01*
X179595238Y-99227142D01*
X179547619Y-99274761D01*
X179452380Y-99322380D01*
X179166666Y-99322380D01*
X179071428Y-99274761D01*
X179023809Y-99227142D01*
%TO.C,J7*%
X197357142Y-100928571D02*
X197500000Y-100976190D01*
X197547619Y-101023809D01*
X197595238Y-101119047D01*
X197595238Y-101261904D01*
X197547619Y-101357142D01*
X197500000Y-101404761D01*
X197404761Y-101452380D01*
X197023809Y-101452380D01*
X197023809Y-100452380D01*
X197357142Y-100452380D01*
X197452380Y-100500000D01*
X197500000Y-100547619D01*
X197547619Y-100642857D01*
X197547619Y-100738095D01*
X197500000Y-100833333D01*
X197452380Y-100880952D01*
X197357142Y-100928571D01*
X197023809Y-100928571D01*
X198452380Y-101452380D02*
X198452380Y-100928571D01*
X198404761Y-100833333D01*
X198309523Y-100785714D01*
X198119047Y-100785714D01*
X198023809Y-100833333D01*
X198452380Y-101404761D02*
X198357142Y-101452380D01*
X198119047Y-101452380D01*
X198023809Y-101404761D01*
X197976190Y-101309523D01*
X197976190Y-101214285D01*
X198023809Y-101119047D01*
X198119047Y-101071428D01*
X198357142Y-101071428D01*
X198452380Y-101023809D01*
X198785714Y-100785714D02*
X199166666Y-100785714D01*
X198928571Y-100452380D02*
X198928571Y-101309523D01*
X198976190Y-101404761D01*
X199071428Y-101452380D01*
X199166666Y-101452380D01*
X199357142Y-100785714D02*
X199738095Y-100785714D01*
X199500000Y-100452380D02*
X199500000Y-101309523D01*
X199547619Y-101404761D01*
X199642857Y-101452380D01*
X199738095Y-101452380D01*
X200452380Y-101404761D02*
X200357142Y-101452380D01*
X200166666Y-101452380D01*
X200071428Y-101404761D01*
X200023809Y-101309523D01*
X200023809Y-100928571D01*
X200071428Y-100833333D01*
X200166666Y-100785714D01*
X200357142Y-100785714D01*
X200452380Y-100833333D01*
X200500000Y-100928571D01*
X200500000Y-101023809D01*
X200023809Y-101119047D01*
X200928571Y-101452380D02*
X200928571Y-100785714D01*
X200928571Y-100976190D02*
X200976190Y-100880952D01*
X201023809Y-100833333D01*
X201119047Y-100785714D01*
X201214285Y-100785714D01*
X201452380Y-100785714D02*
X201690476Y-101452380D01*
X201928571Y-100785714D02*
X201690476Y-101452380D01*
X201595238Y-101690476D01*
X201547619Y-101738095D01*
X201452380Y-101785714D01*
X203071428Y-101452380D02*
X203071428Y-100452380D01*
X203547619Y-100785714D02*
X203547619Y-101452380D01*
X203547619Y-100880952D02*
X203595238Y-100833333D01*
X203690476Y-100785714D01*
X203833333Y-100785714D01*
X203928571Y-100833333D01*
X203976190Y-100928571D01*
X203976190Y-101452380D01*
D11*
%TO.C,J3*%
X150870000Y-110190000D02*
X153530000Y-110190000D01*
X150870000Y-60600000D02*
X150870000Y-59270000D01*
X150870000Y-61870000D02*
X153530000Y-61870000D01*
X153530000Y-61870000D02*
X153530000Y-110190000D01*
X150870000Y-59270000D02*
X152200000Y-59270000D01*
X150870000Y-61870000D02*
X150870000Y-110190000D01*
%TO.C,J5*%
X130195000Y-61870000D02*
X130195000Y-59270000D01*
X127595000Y-61870000D02*
X127595000Y-67010000D01*
X127595000Y-61870000D02*
X130195000Y-61870000D01*
X127595000Y-60600000D02*
X127595000Y-59270000D01*
X127595000Y-67010000D02*
X132795000Y-67010000D01*
X130195000Y-59270000D02*
X132795000Y-59270000D01*
X127595000Y-59270000D02*
X128925000Y-59270000D01*
X132795000Y-59270000D02*
X132795000Y-67010000D01*
%TO.C,U1*%
X188100000Y-109470000D02*
X164100000Y-109470000D01*
X164100000Y-109470000D02*
X164100000Y-89470000D01*
X164100000Y-89470000D02*
X188100000Y-89470000D01*
X188100000Y-89470000D02*
X188100000Y-109470000D01*
%TO.C,J1*%
X139870000Y-60600000D02*
X139870000Y-59270000D01*
X139870000Y-110190000D02*
X142530000Y-110190000D01*
X139870000Y-61870000D02*
X139870000Y-110190000D01*
X139870000Y-61870000D02*
X142530000Y-61870000D01*
X142530000Y-61870000D02*
X142530000Y-110190000D01*
X139870000Y-59270000D02*
X141200000Y-59270000D01*
%TO.C,J4*%
X159865000Y-58670000D02*
X159865000Y-81530000D01*
X210665000Y-58670000D02*
X159865000Y-58670000D01*
X210665000Y-81530000D02*
X210665000Y-58670000D01*
X159865000Y-81530000D02*
X210665000Y-81530000D01*
%TO.C,J2*%
X144070000Y-110190000D02*
X149270000Y-110190000D01*
X146670000Y-59270000D02*
X149270000Y-59270000D01*
X149270000Y-59270000D02*
X149270000Y-110190000D01*
X146670000Y-61870000D02*
X146670000Y-59270000D01*
X144070000Y-61870000D02*
X146670000Y-61870000D01*
X144070000Y-59270000D02*
X145400000Y-59270000D01*
X144070000Y-60600000D02*
X144070000Y-59270000D01*
X144070000Y-61870000D02*
X144070000Y-110190000D01*
%TD*%
M02*
