%TF.GenerationSoftware,KiCad,Pcbnew,(6.0.10)*%
%TF.CreationDate,2024-06-04T10:03:53+09:00*%
%TF.ProjectId,extension_circuit_board,65787465-6e73-4696-9f6e-5f6369726375,rev?*%
%TF.SameCoordinates,Original*%
%TF.FileFunction,Soldermask,Bot*%
%TF.FilePolarity,Negative*%
%FSLAX46Y46*%
G04 Gerber Fmt 4.6, Leading zero omitted, Abs format (unit mm)*
G04 Created by KiCad (PCBNEW (6.0.10)) date 2024-06-04 10:03:53*
%MOMM*%
%LPD*%
G01*
G04 APERTURE LIST*
%ADD10C,2.000000*%
%ADD11C,3.200000*%
%ADD12R,1.700000X1.700000*%
%ADD13O,1.700000X1.700000*%
%ADD14C,3.000000*%
G04 APERTURE END LIST*
D10*
%TO.C,*%
X160020000Y-50800000D03*
%TD*%
%TO.C,*%
X160020000Y-53340000D03*
%TD*%
%TO.C,*%
X162560000Y-50800000D03*
%TD*%
%TO.C,*%
X162560000Y-53340000D03*
%TD*%
%TO.C,*%
X165100000Y-50800000D03*
%TD*%
%TO.C,*%
X165100000Y-53340000D03*
%TD*%
%TO.C,*%
X167640000Y-50800000D03*
%TD*%
%TO.C,*%
X167640000Y-53340000D03*
%TD*%
%TO.C,*%
X170180000Y-50800000D03*
%TD*%
%TO.C,*%
X170180000Y-53340000D03*
%TD*%
%TO.C,*%
X172720000Y-50800000D03*
%TD*%
%TO.C,*%
X172720000Y-53340000D03*
%TD*%
%TO.C,*%
X175260000Y-50800000D03*
%TD*%
%TO.C,*%
X175260000Y-53340000D03*
%TD*%
%TO.C,*%
X177800000Y-50800000D03*
%TD*%
%TO.C,*%
X177800000Y-53340000D03*
%TD*%
%TO.C,*%
X180340000Y-50800000D03*
%TD*%
%TO.C,*%
X180340000Y-53340000D03*
%TD*%
%TO.C,*%
X182880000Y-50800000D03*
%TD*%
%TO.C,*%
X182880000Y-53340000D03*
%TD*%
%TO.C,*%
X185420000Y-50800000D03*
%TD*%
%TO.C,*%
X185420000Y-53340000D03*
%TD*%
%TO.C,*%
X187960000Y-50800000D03*
%TD*%
%TO.C,*%
X187960000Y-53340000D03*
%TD*%
%TO.C,*%
X190500000Y-50800000D03*
%TD*%
%TO.C,*%
X190500000Y-53340000D03*
%TD*%
%TO.C,*%
X193040000Y-53340000D03*
%TD*%
%TO.C,*%
X193040000Y-50800000D03*
%TD*%
%TO.C,*%
X195580000Y-114300000D03*
%TD*%
%TO.C,*%
X193040000Y-109220000D03*
%TD*%
%TO.C,*%
X193040000Y-106680000D03*
%TD*%
%TO.C,*%
X195580000Y-104140000D03*
%TD*%
%TO.C,*%
X193040000Y-104140000D03*
%TD*%
%TO.C,*%
X193040000Y-114300000D03*
%TD*%
%TO.C,*%
X193040000Y-111760000D03*
%TD*%
%TO.C,*%
X195580000Y-109220000D03*
%TD*%
%TO.C,*%
X195580000Y-106680000D03*
%TD*%
%TO.C,*%
X195580000Y-111760000D03*
%TD*%
%TO.C,*%
X205740000Y-114300000D03*
%TD*%
%TO.C,*%
X203200000Y-114300000D03*
%TD*%
%TO.C,*%
X200660000Y-114300000D03*
%TD*%
%TO.C,*%
X198120000Y-114300000D03*
%TD*%
%TO.C,*%
X198120000Y-111760000D03*
%TD*%
%TO.C,*%
X198120000Y-109220000D03*
%TD*%
%TO.C,*%
X198120000Y-106680000D03*
%TD*%
%TO.C,*%
X198120000Y-104140000D03*
%TD*%
%TO.C,*%
X200660000Y-104140000D03*
%TD*%
%TO.C,*%
X200660000Y-106680000D03*
%TD*%
%TO.C,*%
X200660000Y-109220000D03*
%TD*%
%TO.C,*%
X200660000Y-111760000D03*
%TD*%
%TO.C,*%
X203200000Y-111760000D03*
%TD*%
%TO.C,*%
X205740000Y-111760000D03*
%TD*%
%TO.C,*%
X208280000Y-111760000D03*
%TD*%
%TO.C,*%
X210820000Y-109220000D03*
%TD*%
%TO.C,*%
X208280000Y-109220000D03*
%TD*%
%TO.C,*%
X205740000Y-109220000D03*
%TD*%
%TO.C,*%
X203200000Y-109220000D03*
%TD*%
%TO.C,*%
X203200000Y-104140000D03*
%TD*%
%TO.C,*%
X203200000Y-106680000D03*
%TD*%
%TO.C,*%
X205740000Y-106680000D03*
%TD*%
%TO.C,*%
X208280000Y-106680000D03*
%TD*%
%TO.C,*%
X210813266Y-106666533D03*
%TD*%
%TO.C,*%
X210820000Y-104140000D03*
%TD*%
%TO.C,*%
X205740000Y-101600000D03*
%TD*%
%TO.C,*%
X205740000Y-104140000D03*
%TD*%
%TO.C,*%
X208280000Y-104140000D03*
%TD*%
%TO.C,*%
X210820000Y-86360000D03*
%TD*%
%TO.C,*%
X208280000Y-86360000D03*
%TD*%
%TO.C,*%
X210820000Y-101600000D03*
%TD*%
%TO.C,*%
X208280000Y-101600000D03*
%TD*%
%TO.C,*%
X210820000Y-99060000D03*
%TD*%
%TO.C,*%
X208280000Y-99060000D03*
%TD*%
%TO.C,*%
X210820000Y-96520000D03*
%TD*%
%TO.C,*%
X208280000Y-96520000D03*
%TD*%
%TO.C,*%
X210820000Y-93980000D03*
%TD*%
%TO.C,*%
X208280000Y-93980000D03*
%TD*%
%TO.C,*%
X208280000Y-91440000D03*
%TD*%
%TO.C,*%
X208280000Y-88900000D03*
%TD*%
%TO.C,*%
X210820000Y-88900000D03*
%TD*%
%TO.C,*%
X210820000Y-91440000D03*
%TD*%
D11*
%TO.C,REF\u002A\u002A*%
X213000000Y-50000000D03*
%TD*%
D12*
%TO.C,J3*%
X152200000Y-60600000D03*
D13*
X152200000Y-63140000D03*
X152200000Y-65680000D03*
X152200000Y-68220000D03*
X152200000Y-70760000D03*
X152200000Y-73300000D03*
X152200000Y-75840000D03*
X152200000Y-78380000D03*
X152200000Y-80920000D03*
X152200000Y-83460000D03*
X152200000Y-86000000D03*
X152200000Y-88540000D03*
X152200000Y-91080000D03*
X152200000Y-93620000D03*
X152200000Y-96160000D03*
X152200000Y-98700000D03*
X152200000Y-101240000D03*
X152200000Y-103780000D03*
X152200000Y-106320000D03*
X152200000Y-108860000D03*
%TD*%
D12*
%TO.C,J5*%
X128925000Y-60600000D03*
D13*
X131465000Y-60600000D03*
X128925000Y-63140000D03*
X131465000Y-63140000D03*
X128925000Y-65680000D03*
X131465000Y-65680000D03*
%TD*%
D11*
%TO.C,REF\u002A\u002A*%
X124000000Y-50000000D03*
%TD*%
D14*
%TO.C,J6*%
X197920000Y-88000000D03*
X203000000Y-88000000D03*
%TD*%
D11*
%TO.C,REF\u002A\u002A*%
X124000000Y-116000000D03*
%TD*%
D12*
%TO.C,J1*%
X141200000Y-60600000D03*
D13*
X141200000Y-63140000D03*
X141200000Y-65680000D03*
X141200000Y-68220000D03*
X141200000Y-70760000D03*
X141200000Y-73300000D03*
X141200000Y-75840000D03*
X141200000Y-78380000D03*
X141200000Y-80920000D03*
X141200000Y-83460000D03*
X141200000Y-86000000D03*
X141200000Y-88540000D03*
X141200000Y-91080000D03*
X141200000Y-93620000D03*
X141200000Y-96160000D03*
X141200000Y-98700000D03*
X141200000Y-101240000D03*
X141200000Y-103780000D03*
X141200000Y-106320000D03*
X141200000Y-108860000D03*
%TD*%
D11*
%TO.C,REF\u002A\u002A*%
X213000000Y-116000000D03*
%TD*%
D10*
%TO.C,J4*%
X204315000Y-59940000D03*
X201775000Y-59940000D03*
X199235000Y-59940000D03*
X196695000Y-59940000D03*
X194155000Y-59940000D03*
X191615000Y-59940000D03*
X189075000Y-59940000D03*
X186535000Y-59940000D03*
X183995000Y-59940000D03*
X181455000Y-59940000D03*
X178915000Y-59940000D03*
X176375000Y-59940000D03*
X173835000Y-59940000D03*
X171295000Y-59940000D03*
X168755000Y-59940000D03*
X166215000Y-59940000D03*
X194155000Y-80260000D03*
X191615000Y-80260000D03*
X189075000Y-80260000D03*
X186535000Y-80260000D03*
X183995000Y-80260000D03*
X181455000Y-80260000D03*
X178915000Y-80260000D03*
X176375000Y-80260000D03*
X173835000Y-80260000D03*
X171295000Y-80260000D03*
X168755000Y-80260000D03*
X166215000Y-80260000D03*
%TD*%
D14*
%TO.C,J7*%
X197920000Y-98000000D03*
X203000000Y-98000000D03*
%TD*%
D10*
%TO.C,SW1*%
X130060000Y-92700000D03*
X132600000Y-92700000D03*
X135140000Y-92700000D03*
X124980000Y-92700000D03*
%TD*%
D12*
%TO.C,J2*%
X145400000Y-60600000D03*
D13*
X147940000Y-60600000D03*
X145400000Y-63140000D03*
X147940000Y-63140000D03*
X145400000Y-65680000D03*
X147940000Y-65680000D03*
X145400000Y-68220000D03*
X147940000Y-68220000D03*
X145400000Y-70760000D03*
X147940000Y-70760000D03*
X145400000Y-73300000D03*
X147940000Y-73300000D03*
X145400000Y-75840000D03*
X147940000Y-75840000D03*
X145400000Y-78380000D03*
X147940000Y-78380000D03*
X145400000Y-80920000D03*
X147940000Y-80920000D03*
X145400000Y-83460000D03*
X147940000Y-83460000D03*
X145400000Y-86000000D03*
X147940000Y-86000000D03*
X145400000Y-88540000D03*
X147940000Y-88540000D03*
X145400000Y-91080000D03*
X147940000Y-91080000D03*
X145400000Y-93620000D03*
X147940000Y-93620000D03*
X145400000Y-96160000D03*
X147940000Y-96160000D03*
X145400000Y-98700000D03*
X147940000Y-98700000D03*
X145400000Y-101240000D03*
X147940000Y-101240000D03*
X145400000Y-103780000D03*
X147940000Y-103780000D03*
X145400000Y-106320000D03*
X147940000Y-106320000D03*
X145400000Y-108860000D03*
X147940000Y-108860000D03*
%TD*%
M02*
