%TF.GenerationSoftware,KiCad,Pcbnew,(6.0.10)*%
%TF.CreationDate,2024-06-07T15:58:53+09:00*%
%TF.ProjectId,extension_circuit_board,65787465-6e73-4696-9f6e-5f6369726375,rev?*%
%TF.SameCoordinates,Original*%
%TF.FileFunction,Legend,Top*%
%TF.FilePolarity,Positive*%
%FSLAX46Y46*%
G04 Gerber Fmt 4.6, Leading zero omitted, Abs format (unit mm)*
G04 Created by KiCad (PCBNEW (6.0.10)) date 2024-06-07 15:58:53*
%MOMM*%
%LPD*%
G01*
G04 APERTURE LIST*
%ADD10C,0.150000*%
%ADD11C,0.120000*%
G04 APERTURE END LIST*
D10*
X124331071Y-91554761D02*
X124473928Y-91602380D01*
X124712023Y-91602380D01*
X124807261Y-91554761D01*
X124854880Y-91507142D01*
X124902500Y-91411904D01*
X124902500Y-91316666D01*
X124854880Y-91221428D01*
X124807261Y-91173809D01*
X124712023Y-91126190D01*
X124521547Y-91078571D01*
X124426309Y-91030952D01*
X124378690Y-90983333D01*
X124331071Y-90888095D01*
X124331071Y-90792857D01*
X124378690Y-90697619D01*
X124426309Y-90650000D01*
X124521547Y-90602380D01*
X124759642Y-90602380D01*
X124902500Y-90650000D01*
X125902500Y-91507142D02*
X125854880Y-91554761D01*
X125712023Y-91602380D01*
X125616785Y-91602380D01*
X125473928Y-91554761D01*
X125378690Y-91459523D01*
X125331071Y-91364285D01*
X125283452Y-91173809D01*
X125283452Y-91030952D01*
X125331071Y-90840476D01*
X125378690Y-90745238D01*
X125473928Y-90650000D01*
X125616785Y-90602380D01*
X125712023Y-90602380D01*
X125854880Y-90650000D01*
X125902500Y-90697619D01*
X126807261Y-91602380D02*
X126331071Y-91602380D01*
X126331071Y-90602380D01*
X122664404Y-86121428D02*
X123426309Y-86121428D01*
X123045357Y-86502380D02*
X123045357Y-85740476D01*
X123807261Y-85502380D02*
X124426309Y-85502380D01*
X124092976Y-85883333D01*
X124235833Y-85883333D01*
X124331071Y-85930952D01*
X124378690Y-85978571D01*
X124426309Y-86073809D01*
X124426309Y-86311904D01*
X124378690Y-86407142D01*
X124331071Y-86454761D01*
X124235833Y-86502380D01*
X123950119Y-86502380D01*
X123854880Y-86454761D01*
X123807261Y-86407142D01*
X124854880Y-86407142D02*
X124902500Y-86454761D01*
X124854880Y-86502380D01*
X124807261Y-86454761D01*
X124854880Y-86407142D01*
X124854880Y-86502380D01*
X125235833Y-85502380D02*
X125854880Y-85502380D01*
X125521547Y-85883333D01*
X125664404Y-85883333D01*
X125759642Y-85930952D01*
X125807261Y-85978571D01*
X125854880Y-86073809D01*
X125854880Y-86311904D01*
X125807261Y-86407142D01*
X125759642Y-86454761D01*
X125664404Y-86502380D01*
X125378690Y-86502380D01*
X125283452Y-86454761D01*
X125235833Y-86407142D01*
X126140595Y-85502380D02*
X126473928Y-86502380D01*
X126807261Y-85502380D01*
X124283452Y-89054761D02*
X124426309Y-89102380D01*
X124664404Y-89102380D01*
X124759642Y-89054761D01*
X124807261Y-89007142D01*
X124854880Y-88911904D01*
X124854880Y-88816666D01*
X124807261Y-88721428D01*
X124759642Y-88673809D01*
X124664404Y-88626190D01*
X124473928Y-88578571D01*
X124378690Y-88530952D01*
X124331071Y-88483333D01*
X124283452Y-88388095D01*
X124283452Y-88292857D01*
X124331071Y-88197619D01*
X124378690Y-88150000D01*
X124473928Y-88102380D01*
X124712023Y-88102380D01*
X124854880Y-88150000D01*
X125283452Y-89102380D02*
X125283452Y-88102380D01*
X125521547Y-88102380D01*
X125664404Y-88150000D01*
X125759642Y-88245238D01*
X125807261Y-88340476D01*
X125854880Y-88530952D01*
X125854880Y-88673809D01*
X125807261Y-88864285D01*
X125759642Y-88959523D01*
X125664404Y-89054761D01*
X125521547Y-89102380D01*
X125283452Y-89102380D01*
X126235833Y-88816666D02*
X126712023Y-88816666D01*
X126140595Y-89102380D02*
X126473928Y-88102380D01*
X126807261Y-89102380D01*
X154809523Y-78852380D02*
X154238095Y-78852380D01*
X154523809Y-78852380D02*
X154523809Y-77852380D01*
X154428571Y-77995238D01*
X154333333Y-78090476D01*
X154238095Y-78138095D01*
X155666666Y-77852380D02*
X155476190Y-77852380D01*
X155380952Y-77900000D01*
X155333333Y-77947619D01*
X155238095Y-78090476D01*
X155190476Y-78280952D01*
X155190476Y-78661904D01*
X155238095Y-78757142D01*
X155285714Y-78804761D01*
X155380952Y-78852380D01*
X155571428Y-78852380D01*
X155666666Y-78804761D01*
X155714285Y-78757142D01*
X155761904Y-78661904D01*
X155761904Y-78423809D01*
X155714285Y-78328571D01*
X155666666Y-78280952D01*
X155571428Y-78233333D01*
X155380952Y-78233333D01*
X155285714Y-78280952D01*
X155238095Y-78328571D01*
X155190476Y-78423809D01*
X174471428Y-114085714D02*
X174471428Y-113323809D01*
X174852380Y-113704761D02*
X174090476Y-113704761D01*
X173852380Y-112371428D02*
X173852380Y-112847619D01*
X174328571Y-112895238D01*
X174280952Y-112847619D01*
X174233333Y-112752380D01*
X174233333Y-112514285D01*
X174280952Y-112419047D01*
X174328571Y-112371428D01*
X174423809Y-112323809D01*
X174661904Y-112323809D01*
X174757142Y-112371428D01*
X174804761Y-112419047D01*
X174852380Y-112514285D01*
X174852380Y-112752380D01*
X174804761Y-112847619D01*
X174757142Y-112895238D01*
X173852380Y-112038095D02*
X174852380Y-111704761D01*
X173852380Y-111371428D01*
X154838095Y-75300000D02*
X154742857Y-75252380D01*
X154600000Y-75252380D01*
X154457142Y-75300000D01*
X154361904Y-75395238D01*
X154314285Y-75490476D01*
X154266666Y-75680952D01*
X154266666Y-75823809D01*
X154314285Y-76014285D01*
X154361904Y-76109523D01*
X154457142Y-76204761D01*
X154600000Y-76252380D01*
X154695238Y-76252380D01*
X154838095Y-76204761D01*
X154885714Y-76157142D01*
X154885714Y-75823809D01*
X154695238Y-75823809D01*
X155314285Y-76252380D02*
X155314285Y-75252380D01*
X155885714Y-76252380D01*
X155885714Y-75252380D01*
X156361904Y-76252380D02*
X156361904Y-75252380D01*
X156600000Y-75252380D01*
X156742857Y-75300000D01*
X156838095Y-75395238D01*
X156885714Y-75490476D01*
X156933333Y-75680952D01*
X156933333Y-75823809D01*
X156885714Y-76014285D01*
X156838095Y-76109523D01*
X156742857Y-76204761D01*
X156600000Y-76252380D01*
X156361904Y-76252380D01*
X138209523Y-76252380D02*
X137638095Y-76252380D01*
X137923809Y-76252380D02*
X137923809Y-75252380D01*
X137828571Y-75395238D01*
X137733333Y-75490476D01*
X137638095Y-75538095D01*
X138542857Y-75252380D02*
X139161904Y-75252380D01*
X138828571Y-75633333D01*
X138971428Y-75633333D01*
X139066666Y-75680952D01*
X139114285Y-75728571D01*
X139161904Y-75823809D01*
X139161904Y-76061904D01*
X139114285Y-76157142D01*
X139066666Y-76204761D01*
X138971428Y-76252380D01*
X138685714Y-76252380D01*
X138590476Y-76204761D01*
X138542857Y-76157142D01*
X137038095Y-90700000D02*
X136942857Y-90652380D01*
X136800000Y-90652380D01*
X136657142Y-90700000D01*
X136561904Y-90795238D01*
X136514285Y-90890476D01*
X136466666Y-91080952D01*
X136466666Y-91223809D01*
X136514285Y-91414285D01*
X136561904Y-91509523D01*
X136657142Y-91604761D01*
X136800000Y-91652380D01*
X136895238Y-91652380D01*
X137038095Y-91604761D01*
X137085714Y-91557142D01*
X137085714Y-91223809D01*
X136895238Y-91223809D01*
X137514285Y-91652380D02*
X137514285Y-90652380D01*
X138085714Y-91652380D01*
X138085714Y-90652380D01*
X138561904Y-91652380D02*
X138561904Y-90652380D01*
X138800000Y-90652380D01*
X138942857Y-90700000D01*
X139038095Y-90795238D01*
X139085714Y-90890476D01*
X139133333Y-91080952D01*
X139133333Y-91223809D01*
X139085714Y-91414285D01*
X139038095Y-91509523D01*
X138942857Y-91604761D01*
X138800000Y-91652380D01*
X138561904Y-91652380D01*
X196300000Y-57561904D02*
X196252380Y-57657142D01*
X196252380Y-57800000D01*
X196300000Y-57942857D01*
X196395238Y-58038095D01*
X196490476Y-58085714D01*
X196680952Y-58133333D01*
X196823809Y-58133333D01*
X197014285Y-58085714D01*
X197109523Y-58038095D01*
X197204761Y-57942857D01*
X197252380Y-57800000D01*
X197252380Y-57704761D01*
X197204761Y-57561904D01*
X197157142Y-57514285D01*
X196823809Y-57514285D01*
X196823809Y-57704761D01*
X197252380Y-57085714D02*
X196252380Y-57085714D01*
X197252380Y-56514285D01*
X196252380Y-56514285D01*
X197252380Y-56038095D02*
X196252380Y-56038095D01*
X196252380Y-55800000D01*
X196300000Y-55657142D01*
X196395238Y-55561904D01*
X196490476Y-55514285D01*
X196680952Y-55466666D01*
X196823809Y-55466666D01*
X197014285Y-55514285D01*
X197109523Y-55561904D01*
X197204761Y-55657142D01*
X197252380Y-55800000D01*
X197252380Y-56038095D01*
X154714285Y-108785714D02*
X154714285Y-109452380D01*
X154476190Y-108404761D02*
X154238095Y-109119047D01*
X154857142Y-109119047D01*
X155428571Y-108452380D02*
X155523809Y-108452380D01*
X155619047Y-108500000D01*
X155666666Y-108547619D01*
X155714285Y-108642857D01*
X155761904Y-108833333D01*
X155761904Y-109071428D01*
X155714285Y-109261904D01*
X155666666Y-109357142D01*
X155619047Y-109404761D01*
X155523809Y-109452380D01*
X155428571Y-109452380D01*
X155333333Y-109404761D01*
X155285714Y-109357142D01*
X155238095Y-109261904D01*
X155190476Y-109071428D01*
X155190476Y-108833333D01*
X155238095Y-108642857D01*
X155285714Y-108547619D01*
X155333333Y-108500000D01*
X155428571Y-108452380D01*
X136609523Y-66204761D02*
X136752380Y-66252380D01*
X136990476Y-66252380D01*
X137085714Y-66204761D01*
X137133333Y-66157142D01*
X137180952Y-66061904D01*
X137180952Y-65966666D01*
X137133333Y-65871428D01*
X137085714Y-65823809D01*
X136990476Y-65776190D01*
X136800000Y-65728571D01*
X136704761Y-65680952D01*
X136657142Y-65633333D01*
X136609523Y-65538095D01*
X136609523Y-65442857D01*
X136657142Y-65347619D01*
X136704761Y-65300000D01*
X136800000Y-65252380D01*
X137038095Y-65252380D01*
X137180952Y-65300000D01*
X138180952Y-66157142D02*
X138133333Y-66204761D01*
X137990476Y-66252380D01*
X137895238Y-66252380D01*
X137752380Y-66204761D01*
X137657142Y-66109523D01*
X137609523Y-66014285D01*
X137561904Y-65823809D01*
X137561904Y-65680952D01*
X137609523Y-65490476D01*
X137657142Y-65395238D01*
X137752380Y-65300000D01*
X137895238Y-65252380D01*
X137990476Y-65252380D01*
X138133333Y-65300000D01*
X138180952Y-65347619D01*
X139085714Y-66252380D02*
X138609523Y-66252380D01*
X138609523Y-65252380D01*
X169104761Y-84690476D02*
X169152380Y-84547619D01*
X169152380Y-84309523D01*
X169104761Y-84214285D01*
X169057142Y-84166666D01*
X168961904Y-84119047D01*
X168866666Y-84119047D01*
X168771428Y-84166666D01*
X168723809Y-84214285D01*
X168676190Y-84309523D01*
X168628571Y-84500000D01*
X168580952Y-84595238D01*
X168533333Y-84642857D01*
X168438095Y-84690476D01*
X168342857Y-84690476D01*
X168247619Y-84642857D01*
X168200000Y-84595238D01*
X168152380Y-84500000D01*
X168152380Y-84261904D01*
X168200000Y-84119047D01*
X169057142Y-83119047D02*
X169104761Y-83166666D01*
X169152380Y-83309523D01*
X169152380Y-83404761D01*
X169104761Y-83547619D01*
X169009523Y-83642857D01*
X168914285Y-83690476D01*
X168723809Y-83738095D01*
X168580952Y-83738095D01*
X168390476Y-83690476D01*
X168295238Y-83642857D01*
X168200000Y-83547619D01*
X168152380Y-83404761D01*
X168152380Y-83309523D01*
X168200000Y-83166666D01*
X168247619Y-83119047D01*
X169152380Y-82214285D02*
X169152380Y-82690476D01*
X168152380Y-82690476D01*
X135000000Y-60671428D02*
X135761904Y-60671428D01*
X135380952Y-61052380D02*
X135380952Y-60290476D01*
X136142857Y-60052380D02*
X136761904Y-60052380D01*
X136428571Y-60433333D01*
X136571428Y-60433333D01*
X136666666Y-60480952D01*
X136714285Y-60528571D01*
X136761904Y-60623809D01*
X136761904Y-60861904D01*
X136714285Y-60957142D01*
X136666666Y-61004761D01*
X136571428Y-61052380D01*
X136285714Y-61052380D01*
X136190476Y-61004761D01*
X136142857Y-60957142D01*
X137190476Y-60957142D02*
X137238095Y-61004761D01*
X137190476Y-61052380D01*
X137142857Y-61004761D01*
X137190476Y-60957142D01*
X137190476Y-61052380D01*
X137571428Y-60052380D02*
X138190476Y-60052380D01*
X137857142Y-60433333D01*
X138000000Y-60433333D01*
X138095238Y-60480952D01*
X138142857Y-60528571D01*
X138190476Y-60623809D01*
X138190476Y-60861904D01*
X138142857Y-60957142D01*
X138095238Y-61004761D01*
X138000000Y-61052380D01*
X137714285Y-61052380D01*
X137619047Y-61004761D01*
X137571428Y-60957142D01*
X138476190Y-60052380D02*
X138809523Y-61052380D01*
X139142857Y-60052380D01*
X181500000Y-113511904D02*
X181452380Y-113607142D01*
X181452380Y-113750000D01*
X181500000Y-113892857D01*
X181595238Y-113988095D01*
X181690476Y-114035714D01*
X181880952Y-114083333D01*
X182023809Y-114083333D01*
X182214285Y-114035714D01*
X182309523Y-113988095D01*
X182404761Y-113892857D01*
X182452380Y-113750000D01*
X182452380Y-113654761D01*
X182404761Y-113511904D01*
X182357142Y-113464285D01*
X182023809Y-113464285D01*
X182023809Y-113654761D01*
X182452380Y-113035714D02*
X181452380Y-113035714D01*
X182452380Y-112464285D01*
X181452380Y-112464285D01*
X182452380Y-111988095D02*
X181452380Y-111988095D01*
X181452380Y-111750000D01*
X181500000Y-111607142D01*
X181595238Y-111511904D01*
X181690476Y-111464285D01*
X181880952Y-111416666D01*
X182023809Y-111416666D01*
X182214285Y-111464285D01*
X182309523Y-111511904D01*
X182404761Y-111607142D01*
X182452380Y-111750000D01*
X182452380Y-111988095D01*
X124283452Y-63604761D02*
X124426309Y-63652380D01*
X124664404Y-63652380D01*
X124759642Y-63604761D01*
X124807261Y-63557142D01*
X124854880Y-63461904D01*
X124854880Y-63366666D01*
X124807261Y-63271428D01*
X124759642Y-63223809D01*
X124664404Y-63176190D01*
X124473928Y-63128571D01*
X124378690Y-63080952D01*
X124331071Y-63033333D01*
X124283452Y-62938095D01*
X124283452Y-62842857D01*
X124331071Y-62747619D01*
X124378690Y-62700000D01*
X124473928Y-62652380D01*
X124712023Y-62652380D01*
X124854880Y-62700000D01*
X125283452Y-63652380D02*
X125283452Y-62652380D01*
X125521547Y-62652380D01*
X125664404Y-62700000D01*
X125759642Y-62795238D01*
X125807261Y-62890476D01*
X125854880Y-63080952D01*
X125854880Y-63223809D01*
X125807261Y-63414285D01*
X125759642Y-63509523D01*
X125664404Y-63604761D01*
X125521547Y-63652380D01*
X125283452Y-63652380D01*
X126235833Y-63366666D02*
X126712023Y-63366666D01*
X126140595Y-63652380D02*
X126473928Y-62652380D01*
X126807261Y-63652380D01*
X154314285Y-60671428D02*
X155076190Y-60671428D01*
X154695238Y-61052380D02*
X154695238Y-60290476D01*
X156028571Y-60052380D02*
X155552380Y-60052380D01*
X155504761Y-60528571D01*
X155552380Y-60480952D01*
X155647619Y-60433333D01*
X155885714Y-60433333D01*
X155980952Y-60480952D01*
X156028571Y-60528571D01*
X156076190Y-60623809D01*
X156076190Y-60861904D01*
X156028571Y-60957142D01*
X155980952Y-61004761D01*
X155885714Y-61052380D01*
X155647619Y-61052380D01*
X155552380Y-61004761D01*
X155504761Y-60957142D01*
X156361904Y-60052380D02*
X156695238Y-61052380D01*
X157028571Y-60052380D01*
X154838095Y-65300000D02*
X154742857Y-65252380D01*
X154600000Y-65252380D01*
X154457142Y-65300000D01*
X154361904Y-65395238D01*
X154314285Y-65490476D01*
X154266666Y-65680952D01*
X154266666Y-65823809D01*
X154314285Y-66014285D01*
X154361904Y-66109523D01*
X154457142Y-66204761D01*
X154600000Y-66252380D01*
X154695238Y-66252380D01*
X154838095Y-66204761D01*
X154885714Y-66157142D01*
X154885714Y-65823809D01*
X154695238Y-65823809D01*
X155314285Y-66252380D02*
X155314285Y-65252380D01*
X155885714Y-66252380D01*
X155885714Y-65252380D01*
X156361904Y-66252380D02*
X156361904Y-65252380D01*
X156600000Y-65252380D01*
X156742857Y-65300000D01*
X156838095Y-65395238D01*
X156885714Y-65490476D01*
X156933333Y-65680952D01*
X156933333Y-65823809D01*
X156885714Y-66014285D01*
X156838095Y-66109523D01*
X156742857Y-66204761D01*
X156600000Y-66252380D01*
X156361904Y-66252380D01*
X154438095Y-88147619D02*
X154485714Y-88100000D01*
X154580952Y-88052380D01*
X154819047Y-88052380D01*
X154914285Y-88100000D01*
X154961904Y-88147619D01*
X155009523Y-88242857D01*
X155009523Y-88338095D01*
X154961904Y-88480952D01*
X154390476Y-89052380D01*
X155009523Y-89052380D01*
X155866666Y-88385714D02*
X155866666Y-89052380D01*
X155628571Y-88004761D02*
X155390476Y-88719047D01*
X156009523Y-88719047D01*
X137590476Y-103252380D02*
X138209523Y-103252380D01*
X137876190Y-103633333D01*
X138019047Y-103633333D01*
X138114285Y-103680952D01*
X138161904Y-103728571D01*
X138209523Y-103823809D01*
X138209523Y-104061904D01*
X138161904Y-104157142D01*
X138114285Y-104204761D01*
X138019047Y-104252380D01*
X137733333Y-104252380D01*
X137638095Y-104204761D01*
X137590476Y-104157142D01*
X139114285Y-103252380D02*
X138638095Y-103252380D01*
X138590476Y-103728571D01*
X138638095Y-103680952D01*
X138733333Y-103633333D01*
X138971428Y-103633333D01*
X139066666Y-103680952D01*
X139114285Y-103728571D01*
X139161904Y-103823809D01*
X139161904Y-104061904D01*
X139114285Y-104157142D01*
X139066666Y-104204761D01*
X138971428Y-104252380D01*
X138733333Y-104252380D01*
X138638095Y-104204761D01*
X138590476Y-104157142D01*
X154504761Y-68080952D02*
X154409523Y-68033333D01*
X154361904Y-67985714D01*
X154314285Y-67890476D01*
X154314285Y-67842857D01*
X154361904Y-67747619D01*
X154409523Y-67700000D01*
X154504761Y-67652380D01*
X154695238Y-67652380D01*
X154790476Y-67700000D01*
X154838095Y-67747619D01*
X154885714Y-67842857D01*
X154885714Y-67890476D01*
X154838095Y-67985714D01*
X154790476Y-68033333D01*
X154695238Y-68080952D01*
X154504761Y-68080952D01*
X154409523Y-68128571D01*
X154361904Y-68176190D01*
X154314285Y-68271428D01*
X154314285Y-68461904D01*
X154361904Y-68557142D01*
X154409523Y-68604761D01*
X154504761Y-68652380D01*
X154695238Y-68652380D01*
X154790476Y-68604761D01*
X154838095Y-68557142D01*
X154885714Y-68461904D01*
X154885714Y-68271428D01*
X154838095Y-68176190D01*
X154790476Y-68128571D01*
X154695238Y-68080952D01*
X137638095Y-85547619D02*
X137685714Y-85500000D01*
X137780952Y-85452380D01*
X138019047Y-85452380D01*
X138114285Y-85500000D01*
X138161904Y-85547619D01*
X138209523Y-85642857D01*
X138209523Y-85738095D01*
X138161904Y-85880952D01*
X137590476Y-86452380D01*
X138209523Y-86452380D01*
X139161904Y-86452380D02*
X138590476Y-86452380D01*
X138876190Y-86452380D02*
X138876190Y-85452380D01*
X138780952Y-85595238D01*
X138685714Y-85690476D01*
X138590476Y-85738095D01*
X154438095Y-85547619D02*
X154485714Y-85500000D01*
X154580952Y-85452380D01*
X154819047Y-85452380D01*
X154914285Y-85500000D01*
X154961904Y-85547619D01*
X155009523Y-85642857D01*
X155009523Y-85738095D01*
X154961904Y-85880952D01*
X154390476Y-86452380D01*
X155009523Y-86452380D01*
X155390476Y-85547619D02*
X155438095Y-85500000D01*
X155533333Y-85452380D01*
X155771428Y-85452380D01*
X155866666Y-85500000D01*
X155914285Y-85547619D01*
X155961904Y-85642857D01*
X155961904Y-85738095D01*
X155914285Y-85880952D01*
X155342857Y-86452380D01*
X155961904Y-86452380D01*
X129221309Y-114447380D02*
X129221309Y-115161666D01*
X129173690Y-115304523D01*
X129078452Y-115399761D01*
X128935595Y-115447380D01*
X128840357Y-115447380D01*
X130078452Y-115399761D02*
X129983214Y-115447380D01*
X129792738Y-115447380D01*
X129697500Y-115399761D01*
X129649880Y-115304523D01*
X129649880Y-114923571D01*
X129697500Y-114828333D01*
X129792738Y-114780714D01*
X129983214Y-114780714D01*
X130078452Y-114828333D01*
X130126071Y-114923571D01*
X130126071Y-115018809D01*
X129649880Y-115114047D01*
X130411785Y-114780714D02*
X130792738Y-114780714D01*
X130554642Y-114447380D02*
X130554642Y-115304523D01*
X130602261Y-115399761D01*
X130697500Y-115447380D01*
X130792738Y-115447380D01*
X131459404Y-114923571D02*
X131602261Y-114971190D01*
X131649880Y-115018809D01*
X131697500Y-115114047D01*
X131697500Y-115256904D01*
X131649880Y-115352142D01*
X131602261Y-115399761D01*
X131507023Y-115447380D01*
X131126071Y-115447380D01*
X131126071Y-114447380D01*
X131459404Y-114447380D01*
X131554642Y-114495000D01*
X131602261Y-114542619D01*
X131649880Y-114637857D01*
X131649880Y-114733095D01*
X131602261Y-114828333D01*
X131554642Y-114875952D01*
X131459404Y-114923571D01*
X131126071Y-114923571D01*
X132268928Y-115447380D02*
X132173690Y-115399761D01*
X132126071Y-115352142D01*
X132078452Y-115256904D01*
X132078452Y-114971190D01*
X132126071Y-114875952D01*
X132173690Y-114828333D01*
X132268928Y-114780714D01*
X132411785Y-114780714D01*
X132507023Y-114828333D01*
X132554642Y-114875952D01*
X132602261Y-114971190D01*
X132602261Y-115256904D01*
X132554642Y-115352142D01*
X132507023Y-115399761D01*
X132411785Y-115447380D01*
X132268928Y-115447380D01*
X132887976Y-114780714D02*
X133268928Y-114780714D01*
X133030833Y-114447380D02*
X133030833Y-115304523D01*
X133078452Y-115399761D01*
X133173690Y-115447380D01*
X133268928Y-115447380D01*
X134364166Y-114923571D02*
X134697500Y-114923571D01*
X134840357Y-115447380D02*
X134364166Y-115447380D01*
X134364166Y-114447380D01*
X134840357Y-114447380D01*
X135173690Y-115447380D02*
X135697500Y-114780714D01*
X135173690Y-114780714D02*
X135697500Y-115447380D01*
X135935595Y-114780714D02*
X136316547Y-114780714D01*
X136078452Y-114447380D02*
X136078452Y-115304523D01*
X136126071Y-115399761D01*
X136221309Y-115447380D01*
X136316547Y-115447380D01*
X137030833Y-115399761D02*
X136935595Y-115447380D01*
X136745119Y-115447380D01*
X136649880Y-115399761D01*
X136602261Y-115304523D01*
X136602261Y-114923571D01*
X136649880Y-114828333D01*
X136745119Y-114780714D01*
X136935595Y-114780714D01*
X137030833Y-114828333D01*
X137078452Y-114923571D01*
X137078452Y-115018809D01*
X136602261Y-115114047D01*
X137507023Y-114780714D02*
X137507023Y-115447380D01*
X137507023Y-114875952D02*
X137554642Y-114828333D01*
X137649880Y-114780714D01*
X137792738Y-114780714D01*
X137887976Y-114828333D01*
X137935595Y-114923571D01*
X137935595Y-115447380D01*
X138364166Y-115399761D02*
X138459404Y-115447380D01*
X138649880Y-115447380D01*
X138745119Y-115399761D01*
X138792738Y-115304523D01*
X138792738Y-115256904D01*
X138745119Y-115161666D01*
X138649880Y-115114047D01*
X138507023Y-115114047D01*
X138411785Y-115066428D01*
X138364166Y-114971190D01*
X138364166Y-114923571D01*
X138411785Y-114828333D01*
X138507023Y-114780714D01*
X138649880Y-114780714D01*
X138745119Y-114828333D01*
X139221309Y-115447380D02*
X139221309Y-114780714D01*
X139221309Y-114447380D02*
X139173690Y-114495000D01*
X139221309Y-114542619D01*
X139268928Y-114495000D01*
X139221309Y-114447380D01*
X139221309Y-114542619D01*
X139840357Y-115447380D02*
X139745119Y-115399761D01*
X139697500Y-115352142D01*
X139649880Y-115256904D01*
X139649880Y-114971190D01*
X139697500Y-114875952D01*
X139745119Y-114828333D01*
X139840357Y-114780714D01*
X139983214Y-114780714D01*
X140078452Y-114828333D01*
X140126071Y-114875952D01*
X140173690Y-114971190D01*
X140173690Y-115256904D01*
X140126071Y-115352142D01*
X140078452Y-115399761D01*
X139983214Y-115447380D01*
X139840357Y-115447380D01*
X140602261Y-114780714D02*
X140602261Y-115447380D01*
X140602261Y-114875952D02*
X140649880Y-114828333D01*
X140745119Y-114780714D01*
X140887976Y-114780714D01*
X140983214Y-114828333D01*
X141030833Y-114923571D01*
X141030833Y-115447380D01*
X142602261Y-114923571D02*
X142745119Y-114971190D01*
X142792738Y-115018809D01*
X142840357Y-115114047D01*
X142840357Y-115256904D01*
X142792738Y-115352142D01*
X142745119Y-115399761D01*
X142649880Y-115447380D01*
X142268928Y-115447380D01*
X142268928Y-114447380D01*
X142602261Y-114447380D01*
X142697500Y-114495000D01*
X142745119Y-114542619D01*
X142792738Y-114637857D01*
X142792738Y-114733095D01*
X142745119Y-114828333D01*
X142697500Y-114875952D01*
X142602261Y-114923571D01*
X142268928Y-114923571D01*
X143411785Y-115447380D02*
X143316547Y-115399761D01*
X143268928Y-115352142D01*
X143221309Y-115256904D01*
X143221309Y-114971190D01*
X143268928Y-114875952D01*
X143316547Y-114828333D01*
X143411785Y-114780714D01*
X143554642Y-114780714D01*
X143649880Y-114828333D01*
X143697500Y-114875952D01*
X143745119Y-114971190D01*
X143745119Y-115256904D01*
X143697500Y-115352142D01*
X143649880Y-115399761D01*
X143554642Y-115447380D01*
X143411785Y-115447380D01*
X144602261Y-115447380D02*
X144602261Y-114923571D01*
X144554642Y-114828333D01*
X144459404Y-114780714D01*
X144268928Y-114780714D01*
X144173690Y-114828333D01*
X144602261Y-115399761D02*
X144507023Y-115447380D01*
X144268928Y-115447380D01*
X144173690Y-115399761D01*
X144126071Y-115304523D01*
X144126071Y-115209285D01*
X144173690Y-115114047D01*
X144268928Y-115066428D01*
X144507023Y-115066428D01*
X144602261Y-115018809D01*
X145078452Y-115447380D02*
X145078452Y-114780714D01*
X145078452Y-114971190D02*
X145126071Y-114875952D01*
X145173690Y-114828333D01*
X145268928Y-114780714D01*
X145364166Y-114780714D01*
X146126071Y-115447380D02*
X146126071Y-114447380D01*
X146126071Y-115399761D02*
X146030833Y-115447380D01*
X145840357Y-115447380D01*
X145745119Y-115399761D01*
X145697500Y-115352142D01*
X145649880Y-115256904D01*
X145649880Y-114971190D01*
X145697500Y-114875952D01*
X145745119Y-114828333D01*
X145840357Y-114780714D01*
X146030833Y-114780714D01*
X146126071Y-114828333D01*
X147268928Y-114780714D02*
X147507023Y-115447380D01*
X147745119Y-114780714D01*
X148126071Y-115352142D02*
X148173690Y-115399761D01*
X148126071Y-115447380D01*
X148078452Y-115399761D01*
X148126071Y-115352142D01*
X148126071Y-115447380D01*
X148554642Y-114542619D02*
X148602261Y-114495000D01*
X148697500Y-114447380D01*
X148935595Y-114447380D01*
X149030833Y-114495000D01*
X149078452Y-114542619D01*
X149126071Y-114637857D01*
X149126071Y-114733095D01*
X149078452Y-114875952D01*
X148507023Y-115447380D01*
X149126071Y-115447380D01*
X149554642Y-115352142D02*
X149602261Y-115399761D01*
X149554642Y-115447380D01*
X149507023Y-115399761D01*
X149554642Y-115352142D01*
X149554642Y-115447380D01*
X150554642Y-115447380D02*
X149983214Y-115447380D01*
X150268928Y-115447380D02*
X150268928Y-114447380D01*
X150173690Y-114590238D01*
X150078452Y-114685476D01*
X149983214Y-114733095D01*
X151697500Y-114542619D02*
X151745119Y-114495000D01*
X151840357Y-114447380D01*
X152078452Y-114447380D01*
X152173690Y-114495000D01*
X152221309Y-114542619D01*
X152268928Y-114637857D01*
X152268928Y-114733095D01*
X152221309Y-114875952D01*
X151649880Y-115447380D01*
X152268928Y-115447380D01*
X152887976Y-114447380D02*
X152983214Y-114447380D01*
X153078452Y-114495000D01*
X153126071Y-114542619D01*
X153173690Y-114637857D01*
X153221309Y-114828333D01*
X153221309Y-115066428D01*
X153173690Y-115256904D01*
X153126071Y-115352142D01*
X153078452Y-115399761D01*
X152983214Y-115447380D01*
X152887976Y-115447380D01*
X152792738Y-115399761D01*
X152745119Y-115352142D01*
X152697500Y-115256904D01*
X152649880Y-115066428D01*
X152649880Y-114828333D01*
X152697500Y-114637857D01*
X152745119Y-114542619D01*
X152792738Y-114495000D01*
X152887976Y-114447380D01*
X153602261Y-114542619D02*
X153649880Y-114495000D01*
X153745119Y-114447380D01*
X153983214Y-114447380D01*
X154078452Y-114495000D01*
X154126071Y-114542619D01*
X154173690Y-114637857D01*
X154173690Y-114733095D01*
X154126071Y-114875952D01*
X153554642Y-115447380D01*
X154173690Y-115447380D01*
X155030833Y-114780714D02*
X155030833Y-115447380D01*
X154792738Y-114399761D02*
X154554642Y-115114047D01*
X155173690Y-115114047D01*
X156602261Y-114447380D02*
X156602261Y-115161666D01*
X156554642Y-115304523D01*
X156459404Y-115399761D01*
X156316547Y-115447380D01*
X156221309Y-115447380D01*
X157507023Y-114780714D02*
X157507023Y-115447380D01*
X157078452Y-114780714D02*
X157078452Y-115304523D01*
X157126071Y-115399761D01*
X157221309Y-115447380D01*
X157364166Y-115447380D01*
X157459404Y-115399761D01*
X157507023Y-115352142D01*
X157983214Y-114780714D02*
X157983214Y-115447380D01*
X157983214Y-114875952D02*
X158030833Y-114828333D01*
X158126071Y-114780714D01*
X158268928Y-114780714D01*
X158364166Y-114828333D01*
X158411785Y-114923571D01*
X158411785Y-115447380D01*
X158887976Y-115352142D02*
X158935595Y-115399761D01*
X158887976Y-115447380D01*
X158840357Y-115399761D01*
X158887976Y-115352142D01*
X158887976Y-115447380D01*
X128935595Y-117057380D02*
X128935595Y-116057380D01*
X129364166Y-117057380D02*
X129364166Y-116533571D01*
X129316547Y-116438333D01*
X129221309Y-116390714D01*
X129078452Y-116390714D01*
X128983214Y-116438333D01*
X128935595Y-116485952D01*
X129697500Y-116390714D02*
X130078452Y-116390714D01*
X129840357Y-116057380D02*
X129840357Y-116914523D01*
X129887976Y-117009761D01*
X129983214Y-117057380D01*
X130078452Y-117057380D01*
X130268928Y-116390714D02*
X130649880Y-116390714D01*
X130411785Y-116057380D02*
X130411785Y-116914523D01*
X130459404Y-117009761D01*
X130554642Y-117057380D01*
X130649880Y-117057380D01*
X130983214Y-116390714D02*
X130983214Y-117390714D01*
X130983214Y-116438333D02*
X131078452Y-116390714D01*
X131268928Y-116390714D01*
X131364166Y-116438333D01*
X131411785Y-116485952D01*
X131459404Y-116581190D01*
X131459404Y-116866904D01*
X131411785Y-116962142D01*
X131364166Y-117009761D01*
X131268928Y-117057380D01*
X131078452Y-117057380D01*
X130983214Y-117009761D01*
X131840357Y-117009761D02*
X131935595Y-117057380D01*
X132126071Y-117057380D01*
X132221309Y-117009761D01*
X132268928Y-116914523D01*
X132268928Y-116866904D01*
X132221309Y-116771666D01*
X132126071Y-116724047D01*
X131983214Y-116724047D01*
X131887976Y-116676428D01*
X131840357Y-116581190D01*
X131840357Y-116533571D01*
X131887976Y-116438333D01*
X131983214Y-116390714D01*
X132126071Y-116390714D01*
X132221309Y-116438333D01*
X132697500Y-116962142D02*
X132745119Y-117009761D01*
X132697500Y-117057380D01*
X132649880Y-117009761D01*
X132697500Y-116962142D01*
X132697500Y-117057380D01*
X132697500Y-116438333D02*
X132745119Y-116485952D01*
X132697500Y-116533571D01*
X132649880Y-116485952D01*
X132697500Y-116438333D01*
X132697500Y-116533571D01*
X133887976Y-116009761D02*
X133030833Y-117295476D01*
X134935595Y-116009761D02*
X134078452Y-117295476D01*
X135697500Y-116390714D02*
X135697500Y-117200238D01*
X135649880Y-117295476D01*
X135602261Y-117343095D01*
X135507023Y-117390714D01*
X135364166Y-117390714D01*
X135268928Y-117343095D01*
X135697500Y-117009761D02*
X135602261Y-117057380D01*
X135411785Y-117057380D01*
X135316547Y-117009761D01*
X135268928Y-116962142D01*
X135221309Y-116866904D01*
X135221309Y-116581190D01*
X135268928Y-116485952D01*
X135316547Y-116438333D01*
X135411785Y-116390714D01*
X135602261Y-116390714D01*
X135697500Y-116438333D01*
X136173690Y-117057380D02*
X136173690Y-116390714D01*
X136173690Y-116057380D02*
X136126071Y-116105000D01*
X136173690Y-116152619D01*
X136221309Y-116105000D01*
X136173690Y-116057380D01*
X136173690Y-116152619D01*
X136507023Y-116390714D02*
X136887976Y-116390714D01*
X136649880Y-116057380D02*
X136649880Y-116914523D01*
X136697500Y-117009761D01*
X136792738Y-117057380D01*
X136887976Y-117057380D01*
X137221309Y-117057380D02*
X137221309Y-116057380D01*
X137649880Y-117057380D02*
X137649880Y-116533571D01*
X137602261Y-116438333D01*
X137507023Y-116390714D01*
X137364166Y-116390714D01*
X137268928Y-116438333D01*
X137221309Y-116485952D01*
X138554642Y-116390714D02*
X138554642Y-117057380D01*
X138126071Y-116390714D02*
X138126071Y-116914523D01*
X138173690Y-117009761D01*
X138268928Y-117057380D01*
X138411785Y-117057380D01*
X138507023Y-117009761D01*
X138554642Y-116962142D01*
X139030833Y-117057380D02*
X139030833Y-116057380D01*
X139030833Y-116438333D02*
X139126071Y-116390714D01*
X139316547Y-116390714D01*
X139411785Y-116438333D01*
X139459404Y-116485952D01*
X139507023Y-116581190D01*
X139507023Y-116866904D01*
X139459404Y-116962142D01*
X139411785Y-117009761D01*
X139316547Y-117057380D01*
X139126071Y-117057380D01*
X139030833Y-117009761D01*
X139935595Y-116962142D02*
X139983214Y-117009761D01*
X139935595Y-117057380D01*
X139887976Y-117009761D01*
X139935595Y-116962142D01*
X139935595Y-117057380D01*
X140840357Y-117009761D02*
X140745119Y-117057380D01*
X140554642Y-117057380D01*
X140459404Y-117009761D01*
X140411785Y-116962142D01*
X140364166Y-116866904D01*
X140364166Y-116581190D01*
X140411785Y-116485952D01*
X140459404Y-116438333D01*
X140554642Y-116390714D01*
X140745119Y-116390714D01*
X140840357Y-116438333D01*
X141411785Y-117057380D02*
X141316547Y-117009761D01*
X141268928Y-116962142D01*
X141221309Y-116866904D01*
X141221309Y-116581190D01*
X141268928Y-116485952D01*
X141316547Y-116438333D01*
X141411785Y-116390714D01*
X141554642Y-116390714D01*
X141649880Y-116438333D01*
X141697500Y-116485952D01*
X141745119Y-116581190D01*
X141745119Y-116866904D01*
X141697500Y-116962142D01*
X141649880Y-117009761D01*
X141554642Y-117057380D01*
X141411785Y-117057380D01*
X142173690Y-117057380D02*
X142173690Y-116390714D01*
X142173690Y-116485952D02*
X142221309Y-116438333D01*
X142316547Y-116390714D01*
X142459404Y-116390714D01*
X142554642Y-116438333D01*
X142602261Y-116533571D01*
X142602261Y-117057380D01*
X142602261Y-116533571D02*
X142649880Y-116438333D01*
X142745119Y-116390714D01*
X142887976Y-116390714D01*
X142983214Y-116438333D01*
X143030833Y-116533571D01*
X143030833Y-117057380D01*
X144221309Y-116009761D02*
X143364166Y-117295476D01*
X144554642Y-116390714D02*
X144554642Y-117057380D01*
X144554642Y-116485952D02*
X144602261Y-116438333D01*
X144697500Y-116390714D01*
X144840357Y-116390714D01*
X144935595Y-116438333D01*
X144983214Y-116533571D01*
X144983214Y-117057380D01*
X145887976Y-117057380D02*
X145887976Y-116533571D01*
X145840357Y-116438333D01*
X145745119Y-116390714D01*
X145554642Y-116390714D01*
X145459404Y-116438333D01*
X145887976Y-117009761D02*
X145792738Y-117057380D01*
X145554642Y-117057380D01*
X145459404Y-117009761D01*
X145411785Y-116914523D01*
X145411785Y-116819285D01*
X145459404Y-116724047D01*
X145554642Y-116676428D01*
X145792738Y-116676428D01*
X145887976Y-116628809D01*
X146507023Y-117057380D02*
X146411785Y-117009761D01*
X146364166Y-116962142D01*
X146316547Y-116866904D01*
X146316547Y-116581190D01*
X146364166Y-116485952D01*
X146411785Y-116438333D01*
X146507023Y-116390714D01*
X146649880Y-116390714D01*
X146745119Y-116438333D01*
X146792738Y-116485952D01*
X146840357Y-116581190D01*
X146840357Y-116866904D01*
X146792738Y-116962142D01*
X146745119Y-117009761D01*
X146649880Y-117057380D01*
X146507023Y-117057380D01*
X147173690Y-116390714D02*
X147411785Y-117057380D01*
X147649880Y-116390714D02*
X147411785Y-117057380D01*
X147316547Y-117295476D01*
X147268928Y-117343095D01*
X147173690Y-117390714D01*
X148459404Y-117057380D02*
X148459404Y-116533571D01*
X148411785Y-116438333D01*
X148316547Y-116390714D01*
X148126071Y-116390714D01*
X148030833Y-116438333D01*
X148459404Y-117009761D02*
X148364166Y-117057380D01*
X148126071Y-117057380D01*
X148030833Y-117009761D01*
X147983214Y-116914523D01*
X147983214Y-116819285D01*
X148030833Y-116724047D01*
X148126071Y-116676428D01*
X148364166Y-116676428D01*
X148459404Y-116628809D01*
X149459404Y-117057380D02*
X148887976Y-117057380D01*
X149173690Y-117057380D02*
X149173690Y-116057380D01*
X149078452Y-116200238D01*
X148983214Y-116295476D01*
X148887976Y-116343095D01*
X150411785Y-117057380D02*
X149840357Y-117057380D01*
X150126071Y-117057380D02*
X150126071Y-116057380D01*
X150030833Y-116200238D01*
X149935595Y-116295476D01*
X149840357Y-116343095D01*
X151364166Y-117057380D02*
X150792738Y-117057380D01*
X151078452Y-117057380D02*
X151078452Y-116057380D01*
X150983214Y-116200238D01*
X150887976Y-116295476D01*
X150792738Y-116343095D01*
X151983214Y-116057380D02*
X152078452Y-116057380D01*
X152173690Y-116105000D01*
X152221309Y-116152619D01*
X152268928Y-116247857D01*
X152316547Y-116438333D01*
X152316547Y-116676428D01*
X152268928Y-116866904D01*
X152221309Y-116962142D01*
X152173690Y-117009761D01*
X152078452Y-117057380D01*
X151983214Y-117057380D01*
X151887976Y-117009761D01*
X151840357Y-116962142D01*
X151792738Y-116866904D01*
X151745119Y-116676428D01*
X151745119Y-116438333D01*
X151792738Y-116247857D01*
X151840357Y-116152619D01*
X151887976Y-116105000D01*
X151983214Y-116057380D01*
X153459404Y-116009761D02*
X152602261Y-117295476D01*
X153792738Y-116390714D02*
X153792738Y-117247857D01*
X153745119Y-117343095D01*
X153649880Y-117390714D01*
X153602261Y-117390714D01*
X153792738Y-116057380D02*
X153745119Y-116105000D01*
X153792738Y-116152619D01*
X153840357Y-116105000D01*
X153792738Y-116057380D01*
X153792738Y-116152619D01*
X154649880Y-117009761D02*
X154554642Y-117057380D01*
X154364166Y-117057380D01*
X154268928Y-117009761D01*
X154221309Y-116914523D01*
X154221309Y-116533571D01*
X154268928Y-116438333D01*
X154364166Y-116390714D01*
X154554642Y-116390714D01*
X154649880Y-116438333D01*
X154697500Y-116533571D01*
X154697500Y-116628809D01*
X154221309Y-116724047D01*
X154983214Y-116390714D02*
X155364166Y-116390714D01*
X155126071Y-116057380D02*
X155126071Y-116914523D01*
X155173690Y-117009761D01*
X155268928Y-117057380D01*
X155364166Y-117057380D01*
X155697500Y-117057380D02*
X155697500Y-116057380D01*
X155697500Y-116438333D02*
X155792738Y-116390714D01*
X155983214Y-116390714D01*
X156078452Y-116438333D01*
X156126071Y-116485952D01*
X156173690Y-116581190D01*
X156173690Y-116866904D01*
X156126071Y-116962142D01*
X156078452Y-117009761D01*
X155983214Y-117057380D01*
X155792738Y-117057380D01*
X155697500Y-117009761D01*
X156745119Y-117057380D02*
X156649880Y-117009761D01*
X156602261Y-116962142D01*
X156554642Y-116866904D01*
X156554642Y-116581190D01*
X156602261Y-116485952D01*
X156649880Y-116438333D01*
X156745119Y-116390714D01*
X156887976Y-116390714D01*
X156983214Y-116438333D01*
X157030833Y-116485952D01*
X157078452Y-116581190D01*
X157078452Y-116866904D01*
X157030833Y-116962142D01*
X156983214Y-117009761D01*
X156887976Y-117057380D01*
X156745119Y-117057380D01*
X157364166Y-116390714D02*
X157745119Y-116390714D01*
X157507023Y-116057380D02*
X157507023Y-116914523D01*
X157554642Y-117009761D01*
X157649880Y-117057380D01*
X157745119Y-117057380D01*
X157840357Y-117152619D02*
X158602261Y-117152619D01*
X158745119Y-116057380D02*
X159364166Y-116057380D01*
X159030833Y-116438333D01*
X159173690Y-116438333D01*
X159268928Y-116485952D01*
X159316547Y-116533571D01*
X159364166Y-116628809D01*
X159364166Y-116866904D01*
X159316547Y-116962142D01*
X159268928Y-117009761D01*
X159173690Y-117057380D01*
X158887976Y-117057380D01*
X158792738Y-117009761D01*
X158745119Y-116962142D01*
X160221309Y-117057380D02*
X160221309Y-116057380D01*
X160221309Y-117009761D02*
X160126071Y-117057380D01*
X159935595Y-117057380D01*
X159840357Y-117009761D01*
X159792738Y-116962142D01*
X159745119Y-116866904D01*
X159745119Y-116581190D01*
X159792738Y-116485952D01*
X159840357Y-116438333D01*
X159935595Y-116390714D01*
X160126071Y-116390714D01*
X160221309Y-116438333D01*
X160459404Y-117152619D02*
X161221309Y-117152619D01*
X161459404Y-117057380D02*
X161459404Y-116390714D01*
X161459404Y-116485952D02*
X161507023Y-116438333D01*
X161602261Y-116390714D01*
X161745119Y-116390714D01*
X161840357Y-116438333D01*
X161887976Y-116533571D01*
X161887976Y-117057380D01*
X161887976Y-116533571D02*
X161935595Y-116438333D01*
X162030833Y-116390714D01*
X162173690Y-116390714D01*
X162268928Y-116438333D01*
X162316547Y-116533571D01*
X162316547Y-117057380D01*
X162935595Y-117057380D02*
X162840357Y-117009761D01*
X162792738Y-116962142D01*
X162745119Y-116866904D01*
X162745119Y-116581190D01*
X162792738Y-116485952D01*
X162840357Y-116438333D01*
X162935595Y-116390714D01*
X163078452Y-116390714D01*
X163173690Y-116438333D01*
X163221309Y-116485952D01*
X163268928Y-116581190D01*
X163268928Y-116866904D01*
X163221309Y-116962142D01*
X163173690Y-117009761D01*
X163078452Y-117057380D01*
X162935595Y-117057380D01*
X164126071Y-117057380D02*
X164126071Y-116057380D01*
X164126071Y-117009761D02*
X164030833Y-117057380D01*
X163840357Y-117057380D01*
X163745119Y-117009761D01*
X163697500Y-116962142D01*
X163649880Y-116866904D01*
X163649880Y-116581190D01*
X163697500Y-116485952D01*
X163745119Y-116438333D01*
X163840357Y-116390714D01*
X164030833Y-116390714D01*
X164126071Y-116438333D01*
X164983214Y-117009761D02*
X164887976Y-117057380D01*
X164697500Y-117057380D01*
X164602261Y-117009761D01*
X164554642Y-116914523D01*
X164554642Y-116533571D01*
X164602261Y-116438333D01*
X164697500Y-116390714D01*
X164887976Y-116390714D01*
X164983214Y-116438333D01*
X165030833Y-116533571D01*
X165030833Y-116628809D01*
X164554642Y-116724047D01*
X165602261Y-117057380D02*
X165507023Y-117009761D01*
X165459404Y-116914523D01*
X165459404Y-116057380D01*
X137638095Y-93147619D02*
X137685714Y-93100000D01*
X137780952Y-93052380D01*
X138019047Y-93052380D01*
X138114285Y-93100000D01*
X138161904Y-93147619D01*
X138209523Y-93242857D01*
X138209523Y-93338095D01*
X138161904Y-93480952D01*
X137590476Y-94052380D01*
X138209523Y-94052380D01*
X138542857Y-93052380D02*
X139209523Y-93052380D01*
X138780952Y-94052380D01*
X154438095Y-90547619D02*
X154485714Y-90500000D01*
X154580952Y-90452380D01*
X154819047Y-90452380D01*
X154914285Y-90500000D01*
X154961904Y-90547619D01*
X155009523Y-90642857D01*
X155009523Y-90738095D01*
X154961904Y-90880952D01*
X154390476Y-91452380D01*
X155009523Y-91452380D01*
X155866666Y-90452380D02*
X155676190Y-90452380D01*
X155580952Y-90500000D01*
X155533333Y-90547619D01*
X155438095Y-90690476D01*
X155390476Y-90880952D01*
X155390476Y-91261904D01*
X155438095Y-91357142D01*
X155485714Y-91404761D01*
X155580952Y-91452380D01*
X155771428Y-91452380D01*
X155866666Y-91404761D01*
X155914285Y-91357142D01*
X155961904Y-91261904D01*
X155961904Y-91023809D01*
X155914285Y-90928571D01*
X155866666Y-90880952D01*
X155771428Y-90833333D01*
X155580952Y-90833333D01*
X155485714Y-90880952D01*
X155438095Y-90928571D01*
X155390476Y-91023809D01*
X124331071Y-66104761D02*
X124473928Y-66152380D01*
X124712023Y-66152380D01*
X124807261Y-66104761D01*
X124854880Y-66057142D01*
X124902500Y-65961904D01*
X124902500Y-65866666D01*
X124854880Y-65771428D01*
X124807261Y-65723809D01*
X124712023Y-65676190D01*
X124521547Y-65628571D01*
X124426309Y-65580952D01*
X124378690Y-65533333D01*
X124331071Y-65438095D01*
X124331071Y-65342857D01*
X124378690Y-65247619D01*
X124426309Y-65200000D01*
X124521547Y-65152380D01*
X124759642Y-65152380D01*
X124902500Y-65200000D01*
X125902500Y-66057142D02*
X125854880Y-66104761D01*
X125712023Y-66152380D01*
X125616785Y-66152380D01*
X125473928Y-66104761D01*
X125378690Y-66009523D01*
X125331071Y-65914285D01*
X125283452Y-65723809D01*
X125283452Y-65580952D01*
X125331071Y-65390476D01*
X125378690Y-65295238D01*
X125473928Y-65200000D01*
X125616785Y-65152380D01*
X125712023Y-65152380D01*
X125854880Y-65200000D01*
X125902500Y-65247619D01*
X126807261Y-66152380D02*
X126331071Y-66152380D01*
X126331071Y-65152380D01*
X136585714Y-63604761D02*
X136728571Y-63652380D01*
X136966666Y-63652380D01*
X137061904Y-63604761D01*
X137109523Y-63557142D01*
X137157142Y-63461904D01*
X137157142Y-63366666D01*
X137109523Y-63271428D01*
X137061904Y-63223809D01*
X136966666Y-63176190D01*
X136776190Y-63128571D01*
X136680952Y-63080952D01*
X136633333Y-63033333D01*
X136585714Y-62938095D01*
X136585714Y-62842857D01*
X136633333Y-62747619D01*
X136680952Y-62700000D01*
X136776190Y-62652380D01*
X137014285Y-62652380D01*
X137157142Y-62700000D01*
X137585714Y-63652380D02*
X137585714Y-62652380D01*
X137823809Y-62652380D01*
X137966666Y-62700000D01*
X138061904Y-62795238D01*
X138109523Y-62890476D01*
X138157142Y-63080952D01*
X138157142Y-63223809D01*
X138109523Y-63414285D01*
X138061904Y-63509523D01*
X137966666Y-63604761D01*
X137823809Y-63652380D01*
X137585714Y-63652380D01*
X138538095Y-63366666D02*
X139014285Y-63366666D01*
X138442857Y-63652380D02*
X138776190Y-62652380D01*
X139109523Y-63652380D01*
X154809523Y-73652380D02*
X154238095Y-73652380D01*
X154523809Y-73652380D02*
X154523809Y-72652380D01*
X154428571Y-72795238D01*
X154333333Y-72890476D01*
X154238095Y-72938095D01*
X155190476Y-72747619D02*
X155238095Y-72700000D01*
X155333333Y-72652380D01*
X155571428Y-72652380D01*
X155666666Y-72700000D01*
X155714285Y-72747619D01*
X155761904Y-72842857D01*
X155761904Y-72938095D01*
X155714285Y-73080952D01*
X155142857Y-73652380D01*
X155761904Y-73652380D01*
X135000000Y-80871428D02*
X135761904Y-80871428D01*
X135380952Y-81252380D02*
X135380952Y-80490476D01*
X136142857Y-80252380D02*
X136761904Y-80252380D01*
X136428571Y-80633333D01*
X136571428Y-80633333D01*
X136666666Y-80680952D01*
X136714285Y-80728571D01*
X136761904Y-80823809D01*
X136761904Y-81061904D01*
X136714285Y-81157142D01*
X136666666Y-81204761D01*
X136571428Y-81252380D01*
X136285714Y-81252380D01*
X136190476Y-81204761D01*
X136142857Y-81157142D01*
X137190476Y-81157142D02*
X137238095Y-81204761D01*
X137190476Y-81252380D01*
X137142857Y-81204761D01*
X137190476Y-81157142D01*
X137190476Y-81252380D01*
X137571428Y-80252380D02*
X138190476Y-80252380D01*
X137857142Y-80633333D01*
X138000000Y-80633333D01*
X138095238Y-80680952D01*
X138142857Y-80728571D01*
X138190476Y-80823809D01*
X138190476Y-81061904D01*
X138142857Y-81157142D01*
X138095238Y-81204761D01*
X138000000Y-81252380D01*
X137714285Y-81252380D01*
X137619047Y-81204761D01*
X137571428Y-81157142D01*
X138476190Y-80252380D02*
X138809523Y-81252380D01*
X139142857Y-80252380D01*
X154838095Y-82900000D02*
X154742857Y-82852380D01*
X154600000Y-82852380D01*
X154457142Y-82900000D01*
X154361904Y-82995238D01*
X154314285Y-83090476D01*
X154266666Y-83280952D01*
X154266666Y-83423809D01*
X154314285Y-83614285D01*
X154361904Y-83709523D01*
X154457142Y-83804761D01*
X154600000Y-83852380D01*
X154695238Y-83852380D01*
X154838095Y-83804761D01*
X154885714Y-83757142D01*
X154885714Y-83423809D01*
X154695238Y-83423809D01*
X155314285Y-83852380D02*
X155314285Y-82852380D01*
X155885714Y-83852380D01*
X155885714Y-82852380D01*
X156361904Y-83852380D02*
X156361904Y-82852380D01*
X156600000Y-82852380D01*
X156742857Y-82900000D01*
X156838095Y-82995238D01*
X156885714Y-83090476D01*
X156933333Y-83280952D01*
X156933333Y-83423809D01*
X156885714Y-83614285D01*
X156838095Y-83709523D01*
X156742857Y-83804761D01*
X156600000Y-83852380D01*
X156361904Y-83852380D01*
X174690476Y-70028571D02*
X174357142Y-70028571D01*
X174357142Y-70552380D02*
X174357142Y-69552380D01*
X174833333Y-69552380D01*
X175595238Y-70504761D02*
X175500000Y-70552380D01*
X175309523Y-70552380D01*
X175214285Y-70504761D01*
X175166666Y-70409523D01*
X175166666Y-70028571D01*
X175214285Y-69933333D01*
X175309523Y-69885714D01*
X175500000Y-69885714D01*
X175595238Y-69933333D01*
X175642857Y-70028571D01*
X175642857Y-70123809D01*
X175166666Y-70219047D01*
X176500000Y-70552380D02*
X176500000Y-70028571D01*
X176452380Y-69933333D01*
X176357142Y-69885714D01*
X176166666Y-69885714D01*
X176071428Y-69933333D01*
X176500000Y-70504761D02*
X176404761Y-70552380D01*
X176166666Y-70552380D01*
X176071428Y-70504761D01*
X176023809Y-70409523D01*
X176023809Y-70314285D01*
X176071428Y-70219047D01*
X176166666Y-70171428D01*
X176404761Y-70171428D01*
X176500000Y-70123809D01*
X176833333Y-69885714D02*
X177214285Y-69885714D01*
X176976190Y-69552380D02*
X176976190Y-70409523D01*
X177023809Y-70504761D01*
X177119047Y-70552380D01*
X177214285Y-70552380D01*
X177547619Y-70552380D02*
X177547619Y-69552380D01*
X177976190Y-70552380D02*
X177976190Y-70028571D01*
X177928571Y-69933333D01*
X177833333Y-69885714D01*
X177690476Y-69885714D01*
X177595238Y-69933333D01*
X177547619Y-69980952D01*
X178833333Y-70504761D02*
X178738095Y-70552380D01*
X178547619Y-70552380D01*
X178452380Y-70504761D01*
X178404761Y-70409523D01*
X178404761Y-70028571D01*
X178452380Y-69933333D01*
X178547619Y-69885714D01*
X178738095Y-69885714D01*
X178833333Y-69933333D01*
X178880952Y-70028571D01*
X178880952Y-70123809D01*
X178404761Y-70219047D01*
X179309523Y-70552380D02*
X179309523Y-69885714D01*
X179309523Y-70076190D02*
X179357142Y-69980952D01*
X179404761Y-69933333D01*
X179500000Y-69885714D01*
X179595238Y-69885714D01*
X179833333Y-69552380D02*
X180071428Y-70552380D01*
X180261904Y-69838095D01*
X180452380Y-70552380D01*
X180690476Y-69552380D01*
X181071428Y-70552380D02*
X181071428Y-69885714D01*
X181071428Y-69552380D02*
X181023809Y-69600000D01*
X181071428Y-69647619D01*
X181119047Y-69600000D01*
X181071428Y-69552380D01*
X181071428Y-69647619D01*
X181547619Y-69885714D02*
X181547619Y-70552380D01*
X181547619Y-69980952D02*
X181595238Y-69933333D01*
X181690476Y-69885714D01*
X181833333Y-69885714D01*
X181928571Y-69933333D01*
X181976190Y-70028571D01*
X181976190Y-70552380D01*
X182880952Y-69885714D02*
X182880952Y-70695238D01*
X182833333Y-70790476D01*
X182785714Y-70838095D01*
X182690476Y-70885714D01*
X182547619Y-70885714D01*
X182452380Y-70838095D01*
X182880952Y-70504761D02*
X182785714Y-70552380D01*
X182595238Y-70552380D01*
X182500000Y-70504761D01*
X182452380Y-70457142D01*
X182404761Y-70361904D01*
X182404761Y-70076190D01*
X182452380Y-69980952D01*
X182500000Y-69933333D01*
X182595238Y-69885714D01*
X182785714Y-69885714D01*
X182880952Y-69933333D01*
X184119047Y-70552380D02*
X184119047Y-69552380D01*
X184357142Y-69552380D01*
X184500000Y-69600000D01*
X184595238Y-69695238D01*
X184642857Y-69790476D01*
X184690476Y-69980952D01*
X184690476Y-70123809D01*
X184642857Y-70314285D01*
X184595238Y-70409523D01*
X184500000Y-70504761D01*
X184357142Y-70552380D01*
X184119047Y-70552380D01*
X185690476Y-70457142D02*
X185642857Y-70504761D01*
X185500000Y-70552380D01*
X185404761Y-70552380D01*
X185261904Y-70504761D01*
X185166666Y-70409523D01*
X185119047Y-70314285D01*
X185071428Y-70123809D01*
X185071428Y-69980952D01*
X185119047Y-69790476D01*
X185166666Y-69695238D01*
X185261904Y-69600000D01*
X185404761Y-69552380D01*
X185500000Y-69552380D01*
X185642857Y-69600000D01*
X185690476Y-69647619D01*
X186880952Y-70552380D02*
X186880952Y-69552380D01*
X187214285Y-70266666D01*
X187547619Y-69552380D01*
X187547619Y-70552380D01*
X188166666Y-70552380D02*
X188071428Y-70504761D01*
X188023809Y-70457142D01*
X187976190Y-70361904D01*
X187976190Y-70076190D01*
X188023809Y-69980952D01*
X188071428Y-69933333D01*
X188166666Y-69885714D01*
X188309523Y-69885714D01*
X188404761Y-69933333D01*
X188452380Y-69980952D01*
X188500000Y-70076190D01*
X188500000Y-70361904D01*
X188452380Y-70457142D01*
X188404761Y-70504761D01*
X188309523Y-70552380D01*
X188166666Y-70552380D01*
X188785714Y-69885714D02*
X189166666Y-69885714D01*
X188928571Y-69552380D02*
X188928571Y-70409523D01*
X188976190Y-70504761D01*
X189071428Y-70552380D01*
X189166666Y-70552380D01*
X189642857Y-70552380D02*
X189547619Y-70504761D01*
X189500000Y-70457142D01*
X189452380Y-70361904D01*
X189452380Y-70076190D01*
X189500000Y-69980952D01*
X189547619Y-69933333D01*
X189642857Y-69885714D01*
X189785714Y-69885714D01*
X189880952Y-69933333D01*
X189928571Y-69980952D01*
X189976190Y-70076190D01*
X189976190Y-70361904D01*
X189928571Y-70457142D01*
X189880952Y-70504761D01*
X189785714Y-70552380D01*
X189642857Y-70552380D01*
X190404761Y-70552380D02*
X190404761Y-69885714D01*
X190404761Y-70076190D02*
X190452380Y-69980952D01*
X190500000Y-69933333D01*
X190595238Y-69885714D01*
X190690476Y-69885714D01*
X191785714Y-70552380D02*
X191785714Y-69552380D01*
X192023809Y-69552380D01*
X192166666Y-69600000D01*
X192261904Y-69695238D01*
X192309523Y-69790476D01*
X192357142Y-69980952D01*
X192357142Y-70123809D01*
X192309523Y-70314285D01*
X192261904Y-70409523D01*
X192166666Y-70504761D01*
X192023809Y-70552380D01*
X191785714Y-70552380D01*
X192785714Y-70552380D02*
X192785714Y-69885714D01*
X192785714Y-70076190D02*
X192833333Y-69980952D01*
X192880952Y-69933333D01*
X192976190Y-69885714D01*
X193071428Y-69885714D01*
X193404761Y-70552380D02*
X193404761Y-69885714D01*
X193404761Y-69552380D02*
X193357142Y-69600000D01*
X193404761Y-69647619D01*
X193452380Y-69600000D01*
X193404761Y-69552380D01*
X193404761Y-69647619D01*
X193785714Y-69885714D02*
X194023809Y-70552380D01*
X194261904Y-69885714D01*
X195023809Y-70504761D02*
X194928571Y-70552380D01*
X194738095Y-70552380D01*
X194642857Y-70504761D01*
X194595238Y-70409523D01*
X194595238Y-70028571D01*
X194642857Y-69933333D01*
X194738095Y-69885714D01*
X194928571Y-69885714D01*
X195023809Y-69933333D01*
X195071428Y-70028571D01*
X195071428Y-70123809D01*
X194595238Y-70219047D01*
X195500000Y-70552380D02*
X195500000Y-69885714D01*
X195500000Y-70076190D02*
X195547619Y-69980952D01*
X195595238Y-69933333D01*
X195690476Y-69885714D01*
X195785714Y-69885714D01*
X138209523Y-78852380D02*
X137638095Y-78852380D01*
X137923809Y-78852380D02*
X137923809Y-77852380D01*
X137828571Y-77995238D01*
X137733333Y-78090476D01*
X137638095Y-78138095D01*
X139114285Y-77852380D02*
X138638095Y-77852380D01*
X138590476Y-78328571D01*
X138638095Y-78280952D01*
X138733333Y-78233333D01*
X138971428Y-78233333D01*
X139066666Y-78280952D01*
X139114285Y-78328571D01*
X139161904Y-78423809D01*
X139161904Y-78661904D01*
X139114285Y-78757142D01*
X139066666Y-78804761D01*
X138971428Y-78852380D01*
X138733333Y-78852380D01*
X138638095Y-78804761D01*
X138590476Y-78757142D01*
X154190476Y-105852380D02*
X154809523Y-105852380D01*
X154476190Y-106233333D01*
X154619047Y-106233333D01*
X154714285Y-106280952D01*
X154761904Y-106328571D01*
X154809523Y-106423809D01*
X154809523Y-106661904D01*
X154761904Y-106757142D01*
X154714285Y-106804761D01*
X154619047Y-106852380D01*
X154333333Y-106852380D01*
X154238095Y-106804761D01*
X154190476Y-106757142D01*
X155380952Y-106280952D02*
X155285714Y-106233333D01*
X155238095Y-106185714D01*
X155190476Y-106090476D01*
X155190476Y-106042857D01*
X155238095Y-105947619D01*
X155285714Y-105900000D01*
X155380952Y-105852380D01*
X155571428Y-105852380D01*
X155666666Y-105900000D01*
X155714285Y-105947619D01*
X155761904Y-106042857D01*
X155761904Y-106090476D01*
X155714285Y-106185714D01*
X155666666Y-106233333D01*
X155571428Y-106280952D01*
X155380952Y-106280952D01*
X155285714Y-106328571D01*
X155238095Y-106376190D01*
X155190476Y-106471428D01*
X155190476Y-106661904D01*
X155238095Y-106757142D01*
X155285714Y-106804761D01*
X155380952Y-106852380D01*
X155571428Y-106852380D01*
X155666666Y-106804761D01*
X155714285Y-106757142D01*
X155761904Y-106661904D01*
X155761904Y-106471428D01*
X155714285Y-106376190D01*
X155666666Y-106328571D01*
X155571428Y-106280952D01*
X137590476Y-105852380D02*
X138209523Y-105852380D01*
X137876190Y-106233333D01*
X138019047Y-106233333D01*
X138114285Y-106280952D01*
X138161904Y-106328571D01*
X138209523Y-106423809D01*
X138209523Y-106661904D01*
X138161904Y-106757142D01*
X138114285Y-106804761D01*
X138019047Y-106852380D01*
X137733333Y-106852380D01*
X137638095Y-106804761D01*
X137590476Y-106757142D01*
X138542857Y-105852380D02*
X139209523Y-105852380D01*
X138780952Y-106852380D01*
X202338095Y-84800000D02*
X202242857Y-84752380D01*
X202100000Y-84752380D01*
X201957142Y-84800000D01*
X201861904Y-84895238D01*
X201814285Y-84990476D01*
X201766666Y-85180952D01*
X201766666Y-85323809D01*
X201814285Y-85514285D01*
X201861904Y-85609523D01*
X201957142Y-85704761D01*
X202100000Y-85752380D01*
X202195238Y-85752380D01*
X202338095Y-85704761D01*
X202385714Y-85657142D01*
X202385714Y-85323809D01*
X202195238Y-85323809D01*
X202814285Y-85752380D02*
X202814285Y-84752380D01*
X203385714Y-85752380D01*
X203385714Y-84752380D01*
X203861904Y-85752380D02*
X203861904Y-84752380D01*
X204100000Y-84752380D01*
X204242857Y-84800000D01*
X204338095Y-84895238D01*
X204385714Y-84990476D01*
X204433333Y-85180952D01*
X204433333Y-85323809D01*
X204385714Y-85514285D01*
X204338095Y-85609523D01*
X204242857Y-85704761D01*
X204100000Y-85752380D01*
X203861904Y-85752380D01*
X208155000Y-86221904D02*
X208107380Y-86317142D01*
X208107380Y-86460000D01*
X208155000Y-86602857D01*
X208250238Y-86698095D01*
X208345476Y-86745714D01*
X208535952Y-86793333D01*
X208678809Y-86793333D01*
X208869285Y-86745714D01*
X208964523Y-86698095D01*
X209059761Y-86602857D01*
X209107380Y-86460000D01*
X209107380Y-86364761D01*
X209059761Y-86221904D01*
X209012142Y-86174285D01*
X208678809Y-86174285D01*
X208678809Y-86364761D01*
X209107380Y-85745714D02*
X208107380Y-85745714D01*
X209107380Y-85174285D01*
X208107380Y-85174285D01*
X209107380Y-84698095D02*
X208107380Y-84698095D01*
X208107380Y-84460000D01*
X208155000Y-84317142D01*
X208250238Y-84221904D01*
X208345476Y-84174285D01*
X208535952Y-84126666D01*
X208678809Y-84126666D01*
X208869285Y-84174285D01*
X208964523Y-84221904D01*
X209059761Y-84317142D01*
X209107380Y-84460000D01*
X209107380Y-84698095D01*
X154190476Y-103252380D02*
X154809523Y-103252380D01*
X154476190Y-103633333D01*
X154619047Y-103633333D01*
X154714285Y-103680952D01*
X154761904Y-103728571D01*
X154809523Y-103823809D01*
X154809523Y-104061904D01*
X154761904Y-104157142D01*
X154714285Y-104204761D01*
X154619047Y-104252380D01*
X154333333Y-104252380D01*
X154238095Y-104204761D01*
X154190476Y-104157142D01*
X155666666Y-103252380D02*
X155476190Y-103252380D01*
X155380952Y-103300000D01*
X155333333Y-103347619D01*
X155238095Y-103490476D01*
X155190476Y-103680952D01*
X155190476Y-104061904D01*
X155238095Y-104157142D01*
X155285714Y-104204761D01*
X155380952Y-104252380D01*
X155571428Y-104252380D01*
X155666666Y-104204761D01*
X155714285Y-104157142D01*
X155761904Y-104061904D01*
X155761904Y-103823809D01*
X155714285Y-103728571D01*
X155666666Y-103680952D01*
X155571428Y-103633333D01*
X155380952Y-103633333D01*
X155285714Y-103680952D01*
X155238095Y-103728571D01*
X155190476Y-103823809D01*
X154838095Y-95700000D02*
X154742857Y-95652380D01*
X154600000Y-95652380D01*
X154457142Y-95700000D01*
X154361904Y-95795238D01*
X154314285Y-95890476D01*
X154266666Y-96080952D01*
X154266666Y-96223809D01*
X154314285Y-96414285D01*
X154361904Y-96509523D01*
X154457142Y-96604761D01*
X154600000Y-96652380D01*
X154695238Y-96652380D01*
X154838095Y-96604761D01*
X154885714Y-96557142D01*
X154885714Y-96223809D01*
X154695238Y-96223809D01*
X155314285Y-96652380D02*
X155314285Y-95652380D01*
X155885714Y-96652380D01*
X155885714Y-95652380D01*
X156361904Y-96652380D02*
X156361904Y-95652380D01*
X156600000Y-95652380D01*
X156742857Y-95700000D01*
X156838095Y-95795238D01*
X156885714Y-95890476D01*
X156933333Y-96080952D01*
X156933333Y-96223809D01*
X156885714Y-96414285D01*
X156838095Y-96509523D01*
X156742857Y-96604761D01*
X156600000Y-96652380D01*
X156361904Y-96652380D01*
X201771428Y-58500000D02*
X201771428Y-57738095D01*
X202152380Y-58119047D02*
X201390476Y-58119047D01*
X201152380Y-57357142D02*
X201152380Y-56738095D01*
X201533333Y-57071428D01*
X201533333Y-56928571D01*
X201580952Y-56833333D01*
X201628571Y-56785714D01*
X201723809Y-56738095D01*
X201961904Y-56738095D01*
X202057142Y-56785714D01*
X202104761Y-56833333D01*
X202152380Y-56928571D01*
X202152380Y-57214285D01*
X202104761Y-57309523D01*
X202057142Y-57357142D01*
X202057142Y-56309523D02*
X202104761Y-56261904D01*
X202152380Y-56309523D01*
X202104761Y-56357142D01*
X202057142Y-56309523D01*
X202152380Y-56309523D01*
X201152380Y-55928571D02*
X201152380Y-55309523D01*
X201533333Y-55642857D01*
X201533333Y-55500000D01*
X201580952Y-55404761D01*
X201628571Y-55357142D01*
X201723809Y-55309523D01*
X201961904Y-55309523D01*
X202057142Y-55357142D01*
X202104761Y-55404761D01*
X202152380Y-55500000D01*
X202152380Y-55785714D01*
X202104761Y-55880952D01*
X202057142Y-55928571D01*
X201152380Y-55023809D02*
X202152380Y-54690476D01*
X201152380Y-54357142D01*
X204156904Y-101452380D02*
X204156904Y-100452380D01*
X204537857Y-100452380D01*
X204633095Y-100500000D01*
X204680714Y-100547619D01*
X204728333Y-100642857D01*
X204728333Y-100785714D01*
X204680714Y-100880952D01*
X204633095Y-100928571D01*
X204537857Y-100976190D01*
X204156904Y-100976190D01*
X205347380Y-100452380D02*
X205537857Y-100452380D01*
X205633095Y-100500000D01*
X205728333Y-100595238D01*
X205775952Y-100785714D01*
X205775952Y-101119047D01*
X205728333Y-101309523D01*
X205633095Y-101404761D01*
X205537857Y-101452380D01*
X205347380Y-101452380D01*
X205252142Y-101404761D01*
X205156904Y-101309523D01*
X205109285Y-101119047D01*
X205109285Y-100785714D01*
X205156904Y-100595238D01*
X205252142Y-100500000D01*
X205347380Y-100452380D01*
X206109285Y-100452380D02*
X206347380Y-101452380D01*
X206537857Y-100738095D01*
X206728333Y-101452380D01*
X206966428Y-100452380D01*
X207347380Y-100928571D02*
X207680714Y-100928571D01*
X207823571Y-101452380D02*
X207347380Y-101452380D01*
X207347380Y-100452380D01*
X207823571Y-100452380D01*
X208823571Y-101452380D02*
X208490238Y-100976190D01*
X208252142Y-101452380D02*
X208252142Y-100452380D01*
X208633095Y-100452380D01*
X208728333Y-100500000D01*
X208775952Y-100547619D01*
X208823571Y-100642857D01*
X208823571Y-100785714D01*
X208775952Y-100880952D01*
X208728333Y-100928571D01*
X208633095Y-100976190D01*
X208252142Y-100976190D01*
X209966428Y-101404761D02*
X210109285Y-101452380D01*
X210347380Y-101452380D01*
X210442619Y-101404761D01*
X210490238Y-101357142D01*
X210537857Y-101261904D01*
X210537857Y-101166666D01*
X210490238Y-101071428D01*
X210442619Y-101023809D01*
X210347380Y-100976190D01*
X210156904Y-100928571D01*
X210061666Y-100880952D01*
X210014047Y-100833333D01*
X209966428Y-100738095D01*
X209966428Y-100642857D01*
X210014047Y-100547619D01*
X210061666Y-100500000D01*
X210156904Y-100452380D01*
X210395000Y-100452380D01*
X210537857Y-100500000D01*
X210871190Y-100452380D02*
X211109285Y-101452380D01*
X211299761Y-100738095D01*
X211490238Y-101452380D01*
X211728333Y-100452380D01*
X122664404Y-60671428D02*
X123426309Y-60671428D01*
X123045357Y-61052380D02*
X123045357Y-60290476D01*
X123807261Y-60052380D02*
X124426309Y-60052380D01*
X124092976Y-60433333D01*
X124235833Y-60433333D01*
X124331071Y-60480952D01*
X124378690Y-60528571D01*
X124426309Y-60623809D01*
X124426309Y-60861904D01*
X124378690Y-60957142D01*
X124331071Y-61004761D01*
X124235833Y-61052380D01*
X123950119Y-61052380D01*
X123854880Y-61004761D01*
X123807261Y-60957142D01*
X124854880Y-60957142D02*
X124902500Y-61004761D01*
X124854880Y-61052380D01*
X124807261Y-61004761D01*
X124854880Y-60957142D01*
X124854880Y-61052380D01*
X125235833Y-60052380D02*
X125854880Y-60052380D01*
X125521547Y-60433333D01*
X125664404Y-60433333D01*
X125759642Y-60480952D01*
X125807261Y-60528571D01*
X125854880Y-60623809D01*
X125854880Y-60861904D01*
X125807261Y-60957142D01*
X125759642Y-61004761D01*
X125664404Y-61052380D01*
X125378690Y-61052380D01*
X125283452Y-61004761D01*
X125235833Y-60957142D01*
X126140595Y-60052380D02*
X126473928Y-61052380D01*
X126807261Y-60052380D01*
X166704761Y-84714285D02*
X166752380Y-84571428D01*
X166752380Y-84333333D01*
X166704761Y-84238095D01*
X166657142Y-84190476D01*
X166561904Y-84142857D01*
X166466666Y-84142857D01*
X166371428Y-84190476D01*
X166323809Y-84238095D01*
X166276190Y-84333333D01*
X166228571Y-84523809D01*
X166180952Y-84619047D01*
X166133333Y-84666666D01*
X166038095Y-84714285D01*
X165942857Y-84714285D01*
X165847619Y-84666666D01*
X165800000Y-84619047D01*
X165752380Y-84523809D01*
X165752380Y-84285714D01*
X165800000Y-84142857D01*
X166752380Y-83714285D02*
X165752380Y-83714285D01*
X165752380Y-83476190D01*
X165800000Y-83333333D01*
X165895238Y-83238095D01*
X165990476Y-83190476D01*
X166180952Y-83142857D01*
X166323809Y-83142857D01*
X166514285Y-83190476D01*
X166609523Y-83238095D01*
X166704761Y-83333333D01*
X166752380Y-83476190D01*
X166752380Y-83714285D01*
X166466666Y-82761904D02*
X166466666Y-82285714D01*
X166752380Y-82857142D02*
X165752380Y-82523809D01*
X166752380Y-82190476D01*
X195971428Y-91452380D02*
X195971428Y-90452380D01*
X196304761Y-91166666D01*
X196638095Y-90452380D01*
X196638095Y-91452380D01*
X197257142Y-91452380D02*
X197161904Y-91404761D01*
X197114285Y-91357142D01*
X197066666Y-91261904D01*
X197066666Y-90976190D01*
X197114285Y-90880952D01*
X197161904Y-90833333D01*
X197257142Y-90785714D01*
X197400000Y-90785714D01*
X197495238Y-90833333D01*
X197542857Y-90880952D01*
X197590476Y-90976190D01*
X197590476Y-91261904D01*
X197542857Y-91357142D01*
X197495238Y-91404761D01*
X197400000Y-91452380D01*
X197257142Y-91452380D01*
X197876190Y-90785714D02*
X198257142Y-90785714D01*
X198019047Y-90452380D02*
X198019047Y-91309523D01*
X198066666Y-91404761D01*
X198161904Y-91452380D01*
X198257142Y-91452380D01*
X198733333Y-91452380D02*
X198638095Y-91404761D01*
X198590476Y-91357142D01*
X198542857Y-91261904D01*
X198542857Y-90976190D01*
X198590476Y-90880952D01*
X198638095Y-90833333D01*
X198733333Y-90785714D01*
X198876190Y-90785714D01*
X198971428Y-90833333D01*
X199019047Y-90880952D01*
X199066666Y-90976190D01*
X199066666Y-91261904D01*
X199019047Y-91357142D01*
X198971428Y-91404761D01*
X198876190Y-91452380D01*
X198733333Y-91452380D01*
X199495238Y-91452380D02*
X199495238Y-90785714D01*
X199495238Y-90976190D02*
X199542857Y-90880952D01*
X199590476Y-90833333D01*
X199685714Y-90785714D01*
X199780952Y-90785714D01*
X200876190Y-91452380D02*
X200876190Y-90452380D01*
X201257142Y-90452380D01*
X201352380Y-90500000D01*
X201400000Y-90547619D01*
X201447619Y-90642857D01*
X201447619Y-90785714D01*
X201400000Y-90880952D01*
X201352380Y-90928571D01*
X201257142Y-90976190D01*
X200876190Y-90976190D01*
X202019047Y-91452380D02*
X201923809Y-91404761D01*
X201876190Y-91357142D01*
X201828571Y-91261904D01*
X201828571Y-90976190D01*
X201876190Y-90880952D01*
X201923809Y-90833333D01*
X202019047Y-90785714D01*
X202161904Y-90785714D01*
X202257142Y-90833333D01*
X202304761Y-90880952D01*
X202352380Y-90976190D01*
X202352380Y-91261904D01*
X202304761Y-91357142D01*
X202257142Y-91404761D01*
X202161904Y-91452380D01*
X202019047Y-91452380D01*
X202685714Y-90785714D02*
X202876190Y-91452380D01*
X203066666Y-90976190D01*
X203257142Y-91452380D01*
X203447619Y-90785714D01*
X204209523Y-91404761D02*
X204114285Y-91452380D01*
X203923809Y-91452380D01*
X203828571Y-91404761D01*
X203780952Y-91309523D01*
X203780952Y-90928571D01*
X203828571Y-90833333D01*
X203923809Y-90785714D01*
X204114285Y-90785714D01*
X204209523Y-90833333D01*
X204257142Y-90928571D01*
X204257142Y-91023809D01*
X203780952Y-91119047D01*
X204685714Y-91452380D02*
X204685714Y-90785714D01*
X204685714Y-90976190D02*
X204733333Y-90880952D01*
X204780952Y-90833333D01*
X204876190Y-90785714D01*
X204971428Y-90785714D01*
X208726428Y-92579047D02*
X208726428Y-91817142D01*
X209107380Y-92198095D02*
X208345476Y-92198095D01*
X208583571Y-91007619D02*
X208631190Y-90864761D01*
X208678809Y-90817142D01*
X208774047Y-90769523D01*
X208916904Y-90769523D01*
X209012142Y-90817142D01*
X209059761Y-90864761D01*
X209107380Y-90960000D01*
X209107380Y-91340952D01*
X208107380Y-91340952D01*
X208107380Y-91007619D01*
X208155000Y-90912380D01*
X208202619Y-90864761D01*
X208297857Y-90817142D01*
X208393095Y-90817142D01*
X208488333Y-90864761D01*
X208535952Y-90912380D01*
X208583571Y-91007619D01*
X208583571Y-91340952D01*
X209107380Y-89912380D02*
X208583571Y-89912380D01*
X208488333Y-89960000D01*
X208440714Y-90055238D01*
X208440714Y-90245714D01*
X208488333Y-90340952D01*
X209059761Y-89912380D02*
X209107380Y-90007619D01*
X209107380Y-90245714D01*
X209059761Y-90340952D01*
X208964523Y-90388571D01*
X208869285Y-90388571D01*
X208774047Y-90340952D01*
X208726428Y-90245714D01*
X208726428Y-90007619D01*
X208678809Y-89912380D01*
X208440714Y-89579047D02*
X208440714Y-89198095D01*
X208107380Y-89436190D02*
X208964523Y-89436190D01*
X209059761Y-89388571D01*
X209107380Y-89293333D01*
X209107380Y-89198095D01*
X137038095Y-108500000D02*
X136942857Y-108452380D01*
X136800000Y-108452380D01*
X136657142Y-108500000D01*
X136561904Y-108595238D01*
X136514285Y-108690476D01*
X136466666Y-108880952D01*
X136466666Y-109023809D01*
X136514285Y-109214285D01*
X136561904Y-109309523D01*
X136657142Y-109404761D01*
X136800000Y-109452380D01*
X136895238Y-109452380D01*
X137038095Y-109404761D01*
X137085714Y-109357142D01*
X137085714Y-109023809D01*
X136895238Y-109023809D01*
X137514285Y-109452380D02*
X137514285Y-108452380D01*
X138085714Y-109452380D01*
X138085714Y-108452380D01*
X138561904Y-109452380D02*
X138561904Y-108452380D01*
X138800000Y-108452380D01*
X138942857Y-108500000D01*
X139038095Y-108595238D01*
X139085714Y-108690476D01*
X139133333Y-108880952D01*
X139133333Y-109023809D01*
X139085714Y-109214285D01*
X139038095Y-109309523D01*
X138942857Y-109404761D01*
X138800000Y-109452380D01*
X138561904Y-109452380D01*
X187071428Y-114819047D02*
X187071428Y-114057142D01*
X187452380Y-114438095D02*
X186690476Y-114438095D01*
X186928571Y-113247619D02*
X186976190Y-113104761D01*
X187023809Y-113057142D01*
X187119047Y-113009523D01*
X187261904Y-113009523D01*
X187357142Y-113057142D01*
X187404761Y-113104761D01*
X187452380Y-113200000D01*
X187452380Y-113580952D01*
X186452380Y-113580952D01*
X186452380Y-113247619D01*
X186500000Y-113152380D01*
X186547619Y-113104761D01*
X186642857Y-113057142D01*
X186738095Y-113057142D01*
X186833333Y-113104761D01*
X186880952Y-113152380D01*
X186928571Y-113247619D01*
X186928571Y-113580952D01*
X187452380Y-112152380D02*
X186928571Y-112152380D01*
X186833333Y-112200000D01*
X186785714Y-112295238D01*
X186785714Y-112485714D01*
X186833333Y-112580952D01*
X187404761Y-112152380D02*
X187452380Y-112247619D01*
X187452380Y-112485714D01*
X187404761Y-112580952D01*
X187309523Y-112628571D01*
X187214285Y-112628571D01*
X187119047Y-112580952D01*
X187071428Y-112485714D01*
X187071428Y-112247619D01*
X187023809Y-112152380D01*
X186785714Y-111819047D02*
X186785714Y-111438095D01*
X186452380Y-111676190D02*
X187309523Y-111676190D01*
X187404761Y-111628571D01*
X187452380Y-111533333D01*
X187452380Y-111438095D01*
X154438095Y-93147619D02*
X154485714Y-93100000D01*
X154580952Y-93052380D01*
X154819047Y-93052380D01*
X154914285Y-93100000D01*
X154961904Y-93147619D01*
X155009523Y-93242857D01*
X155009523Y-93338095D01*
X154961904Y-93480952D01*
X154390476Y-94052380D01*
X155009523Y-94052380D01*
X155580952Y-93480952D02*
X155485714Y-93433333D01*
X155438095Y-93385714D01*
X155390476Y-93290476D01*
X155390476Y-93242857D01*
X155438095Y-93147619D01*
X155485714Y-93100000D01*
X155580952Y-93052380D01*
X155771428Y-93052380D01*
X155866666Y-93100000D01*
X155914285Y-93147619D01*
X155961904Y-93242857D01*
X155961904Y-93290476D01*
X155914285Y-93385714D01*
X155866666Y-93433333D01*
X155771428Y-93480952D01*
X155580952Y-93480952D01*
X155485714Y-93528571D01*
X155438095Y-93576190D01*
X155390476Y-93671428D01*
X155390476Y-93861904D01*
X155438095Y-93957142D01*
X155485714Y-94004761D01*
X155580952Y-94052380D01*
X155771428Y-94052380D01*
X155866666Y-94004761D01*
X155914285Y-93957142D01*
X155961904Y-93861904D01*
X155961904Y-93671428D01*
X155914285Y-93576190D01*
X155866666Y-93528571D01*
X155771428Y-93480952D01*
X178900000Y-113511904D02*
X178852380Y-113607142D01*
X178852380Y-113750000D01*
X178900000Y-113892857D01*
X178995238Y-113988095D01*
X179090476Y-114035714D01*
X179280952Y-114083333D01*
X179423809Y-114083333D01*
X179614285Y-114035714D01*
X179709523Y-113988095D01*
X179804761Y-113892857D01*
X179852380Y-113750000D01*
X179852380Y-113654761D01*
X179804761Y-113511904D01*
X179757142Y-113464285D01*
X179423809Y-113464285D01*
X179423809Y-113654761D01*
X179852380Y-113035714D02*
X178852380Y-113035714D01*
X179852380Y-112464285D01*
X178852380Y-112464285D01*
X179852380Y-111988095D02*
X178852380Y-111988095D01*
X178852380Y-111750000D01*
X178900000Y-111607142D01*
X178995238Y-111511904D01*
X179090476Y-111464285D01*
X179280952Y-111416666D01*
X179423809Y-111416666D01*
X179614285Y-111464285D01*
X179709523Y-111511904D01*
X179804761Y-111607142D01*
X179852380Y-111750000D01*
X179852380Y-111988095D01*
X154390476Y-98052380D02*
X155009523Y-98052380D01*
X154676190Y-98433333D01*
X154819047Y-98433333D01*
X154914285Y-98480952D01*
X154961904Y-98528571D01*
X155009523Y-98623809D01*
X155009523Y-98861904D01*
X154961904Y-98957142D01*
X154914285Y-99004761D01*
X154819047Y-99052380D01*
X154533333Y-99052380D01*
X154438095Y-99004761D01*
X154390476Y-98957142D01*
X155390476Y-98147619D02*
X155438095Y-98100000D01*
X155533333Y-98052380D01*
X155771428Y-98052380D01*
X155866666Y-98100000D01*
X155914285Y-98147619D01*
X155961904Y-98242857D01*
X155961904Y-98338095D01*
X155914285Y-98480952D01*
X155342857Y-99052380D01*
X155961904Y-99052380D01*
X137590476Y-100852380D02*
X138209523Y-100852380D01*
X137876190Y-101233333D01*
X138019047Y-101233333D01*
X138114285Y-101280952D01*
X138161904Y-101328571D01*
X138209523Y-101423809D01*
X138209523Y-101661904D01*
X138161904Y-101757142D01*
X138114285Y-101804761D01*
X138019047Y-101852380D01*
X137733333Y-101852380D01*
X137638095Y-101804761D01*
X137590476Y-101757142D01*
X138542857Y-100852380D02*
X139161904Y-100852380D01*
X138828571Y-101233333D01*
X138971428Y-101233333D01*
X139066666Y-101280952D01*
X139114285Y-101328571D01*
X139161904Y-101423809D01*
X139161904Y-101661904D01*
X139114285Y-101757142D01*
X139066666Y-101804761D01*
X138971428Y-101852380D01*
X138685714Y-101852380D01*
X138590476Y-101804761D01*
X138542857Y-101757142D01*
X154838095Y-100700000D02*
X154742857Y-100652380D01*
X154600000Y-100652380D01*
X154457142Y-100700000D01*
X154361904Y-100795238D01*
X154314285Y-100890476D01*
X154266666Y-101080952D01*
X154266666Y-101223809D01*
X154314285Y-101414285D01*
X154361904Y-101509523D01*
X154457142Y-101604761D01*
X154600000Y-101652380D01*
X154695238Y-101652380D01*
X154838095Y-101604761D01*
X154885714Y-101557142D01*
X154885714Y-101223809D01*
X154695238Y-101223809D01*
X155314285Y-101652380D02*
X155314285Y-100652380D01*
X155885714Y-101652380D01*
X155885714Y-100652380D01*
X156361904Y-101652380D02*
X156361904Y-100652380D01*
X156600000Y-100652380D01*
X156742857Y-100700000D01*
X156838095Y-100795238D01*
X156885714Y-100890476D01*
X156933333Y-101080952D01*
X156933333Y-101223809D01*
X156885714Y-101414285D01*
X156838095Y-101509523D01*
X156742857Y-101604761D01*
X156600000Y-101652380D01*
X156361904Y-101652380D01*
X138209523Y-73652380D02*
X137638095Y-73652380D01*
X137923809Y-73652380D02*
X137923809Y-72652380D01*
X137828571Y-72795238D01*
X137733333Y-72890476D01*
X137638095Y-72938095D01*
X139161904Y-73652380D02*
X138590476Y-73652380D01*
X138876190Y-73652380D02*
X138876190Y-72652380D01*
X138780952Y-72795238D01*
X138685714Y-72890476D01*
X138590476Y-72938095D01*
X154314285Y-63271428D02*
X155076190Y-63271428D01*
X154695238Y-63652380D02*
X154695238Y-62890476D01*
X156028571Y-62652380D02*
X155552380Y-62652380D01*
X155504761Y-63128571D01*
X155552380Y-63080952D01*
X155647619Y-63033333D01*
X155885714Y-63033333D01*
X155980952Y-63080952D01*
X156028571Y-63128571D01*
X156076190Y-63223809D01*
X156076190Y-63461904D01*
X156028571Y-63557142D01*
X155980952Y-63604761D01*
X155885714Y-63652380D01*
X155647619Y-63652380D01*
X155552380Y-63604761D01*
X155504761Y-63557142D01*
X156361904Y-62652380D02*
X156695238Y-63652380D01*
X157028571Y-62652380D01*
X154809523Y-81252380D02*
X154238095Y-81252380D01*
X154523809Y-81252380D02*
X154523809Y-80252380D01*
X154428571Y-80395238D01*
X154333333Y-80490476D01*
X154238095Y-80538095D01*
X155380952Y-80680952D02*
X155285714Y-80633333D01*
X155238095Y-80585714D01*
X155190476Y-80490476D01*
X155190476Y-80442857D01*
X155238095Y-80347619D01*
X155285714Y-80300000D01*
X155380952Y-80252380D01*
X155571428Y-80252380D01*
X155666666Y-80300000D01*
X155714285Y-80347619D01*
X155761904Y-80442857D01*
X155761904Y-80490476D01*
X155714285Y-80585714D01*
X155666666Y-80633333D01*
X155571428Y-80680952D01*
X155380952Y-80680952D01*
X155285714Y-80728571D01*
X155238095Y-80776190D01*
X155190476Y-80871428D01*
X155190476Y-81061904D01*
X155238095Y-81157142D01*
X155285714Y-81204761D01*
X155380952Y-81252380D01*
X155571428Y-81252380D01*
X155666666Y-81204761D01*
X155714285Y-81157142D01*
X155761904Y-81061904D01*
X155761904Y-80871428D01*
X155714285Y-80776190D01*
X155666666Y-80728571D01*
X155571428Y-80680952D01*
X137038095Y-70500000D02*
X136942857Y-70452380D01*
X136800000Y-70452380D01*
X136657142Y-70500000D01*
X136561904Y-70595238D01*
X136514285Y-70690476D01*
X136466666Y-70880952D01*
X136466666Y-71023809D01*
X136514285Y-71214285D01*
X136561904Y-71309523D01*
X136657142Y-71404761D01*
X136800000Y-71452380D01*
X136895238Y-71452380D01*
X137038095Y-71404761D01*
X137085714Y-71357142D01*
X137085714Y-71023809D01*
X136895238Y-71023809D01*
X137514285Y-71452380D02*
X137514285Y-70452380D01*
X138085714Y-71452380D01*
X138085714Y-70452380D01*
X138561904Y-71452380D02*
X138561904Y-70452380D01*
X138800000Y-70452380D01*
X138942857Y-70500000D01*
X139038095Y-70595238D01*
X139085714Y-70690476D01*
X139133333Y-70880952D01*
X139133333Y-71023809D01*
X139085714Y-71214285D01*
X139038095Y-71309523D01*
X138942857Y-71404761D01*
X138800000Y-71452380D01*
X138561904Y-71452380D01*
X138466666Y-67652380D02*
X139133333Y-67652380D01*
X138704761Y-68652380D01*
X137638095Y-88147619D02*
X137685714Y-88100000D01*
X137780952Y-88052380D01*
X138019047Y-88052380D01*
X138114285Y-88100000D01*
X138161904Y-88147619D01*
X138209523Y-88242857D01*
X138209523Y-88338095D01*
X138161904Y-88480952D01*
X137590476Y-89052380D01*
X138209523Y-89052380D01*
X138542857Y-88052380D02*
X139161904Y-88052380D01*
X138828571Y-88433333D01*
X138971428Y-88433333D01*
X139066666Y-88480952D01*
X139114285Y-88528571D01*
X139161904Y-88623809D01*
X139161904Y-88861904D01*
X139114285Y-88957142D01*
X139066666Y-89004761D01*
X138971428Y-89052380D01*
X138685714Y-89052380D01*
X138590476Y-89004761D01*
X138542857Y-88957142D01*
X137638095Y-95747619D02*
X137685714Y-95700000D01*
X137780952Y-95652380D01*
X138019047Y-95652380D01*
X138114285Y-95700000D01*
X138161904Y-95747619D01*
X138209523Y-95842857D01*
X138209523Y-95938095D01*
X138161904Y-96080952D01*
X137590476Y-96652380D01*
X138209523Y-96652380D01*
X138685714Y-96652380D02*
X138876190Y-96652380D01*
X138971428Y-96604761D01*
X139019047Y-96557142D01*
X139114285Y-96414285D01*
X139161904Y-96223809D01*
X139161904Y-95842857D01*
X139114285Y-95747619D01*
X139066666Y-95700000D01*
X138971428Y-95652380D01*
X138780952Y-95652380D01*
X138685714Y-95700000D01*
X138638095Y-95747619D01*
X138590476Y-95842857D01*
X138590476Y-96080952D01*
X138638095Y-96176190D01*
X138685714Y-96223809D01*
X138780952Y-96271428D01*
X138971428Y-96271428D01*
X139066666Y-96223809D01*
X139114285Y-96176190D01*
X139161904Y-96080952D01*
X138209523Y-83852380D02*
X137638095Y-83852380D01*
X137923809Y-83852380D02*
X137923809Y-82852380D01*
X137828571Y-82995238D01*
X137733333Y-83090476D01*
X137638095Y-83138095D01*
X138685714Y-83852380D02*
X138876190Y-83852380D01*
X138971428Y-83804761D01*
X139019047Y-83757142D01*
X139114285Y-83614285D01*
X139161904Y-83423809D01*
X139161904Y-83042857D01*
X139114285Y-82947619D01*
X139066666Y-82900000D01*
X138971428Y-82852380D01*
X138780952Y-82852380D01*
X138685714Y-82900000D01*
X138638095Y-82947619D01*
X138590476Y-83042857D01*
X138590476Y-83280952D01*
X138638095Y-83376190D01*
X138685714Y-83423809D01*
X138780952Y-83471428D01*
X138971428Y-83471428D01*
X139066666Y-83423809D01*
X139114285Y-83376190D01*
X139161904Y-83280952D01*
X154809523Y-71252380D02*
X154238095Y-71252380D01*
X154523809Y-71252380D02*
X154523809Y-70252380D01*
X154428571Y-70395238D01*
X154333333Y-70490476D01*
X154238095Y-70538095D01*
X155428571Y-70252380D02*
X155523809Y-70252380D01*
X155619047Y-70300000D01*
X155666666Y-70347619D01*
X155714285Y-70442857D01*
X155761904Y-70633333D01*
X155761904Y-70871428D01*
X155714285Y-71061904D01*
X155666666Y-71157142D01*
X155619047Y-71204761D01*
X155523809Y-71252380D01*
X155428571Y-71252380D01*
X155333333Y-71204761D01*
X155285714Y-71157142D01*
X155238095Y-71061904D01*
X155190476Y-70871428D01*
X155190476Y-70633333D01*
X155238095Y-70442857D01*
X155285714Y-70347619D01*
X155333333Y-70300000D01*
X155428571Y-70252380D01*
X195980952Y-85371428D02*
X196742857Y-85371428D01*
X196361904Y-85752380D02*
X196361904Y-84990476D01*
X197552380Y-85228571D02*
X197695238Y-85276190D01*
X197742857Y-85323809D01*
X197790476Y-85419047D01*
X197790476Y-85561904D01*
X197742857Y-85657142D01*
X197695238Y-85704761D01*
X197600000Y-85752380D01*
X197219047Y-85752380D01*
X197219047Y-84752380D01*
X197552380Y-84752380D01*
X197647619Y-84800000D01*
X197695238Y-84847619D01*
X197742857Y-84942857D01*
X197742857Y-85038095D01*
X197695238Y-85133333D01*
X197647619Y-85180952D01*
X197552380Y-85228571D01*
X197219047Y-85228571D01*
X198647619Y-85752380D02*
X198647619Y-85228571D01*
X198600000Y-85133333D01*
X198504761Y-85085714D01*
X198314285Y-85085714D01*
X198219047Y-85133333D01*
X198647619Y-85704761D02*
X198552380Y-85752380D01*
X198314285Y-85752380D01*
X198219047Y-85704761D01*
X198171428Y-85609523D01*
X198171428Y-85514285D01*
X198219047Y-85419047D01*
X198314285Y-85371428D01*
X198552380Y-85371428D01*
X198647619Y-85323809D01*
X198980952Y-85085714D02*
X199361904Y-85085714D01*
X199123809Y-84752380D02*
X199123809Y-85609523D01*
X199171428Y-85704761D01*
X199266666Y-85752380D01*
X199361904Y-85752380D01*
X137590476Y-98252380D02*
X138209523Y-98252380D01*
X137876190Y-98633333D01*
X138019047Y-98633333D01*
X138114285Y-98680952D01*
X138161904Y-98728571D01*
X138209523Y-98823809D01*
X138209523Y-99061904D01*
X138161904Y-99157142D01*
X138114285Y-99204761D01*
X138019047Y-99252380D01*
X137733333Y-99252380D01*
X137638095Y-99204761D01*
X137590476Y-99157142D01*
X139161904Y-99252380D02*
X138590476Y-99252380D01*
X138876190Y-99252380D02*
X138876190Y-98252380D01*
X138780952Y-98395238D01*
X138685714Y-98490476D01*
X138590476Y-98538095D01*
%TO.C,PiOLED*%
X127889047Y-94452380D02*
X127889047Y-93452380D01*
X128270000Y-93452380D01*
X128365238Y-93500000D01*
X128412857Y-93547619D01*
X128460476Y-93642857D01*
X128460476Y-93785714D01*
X128412857Y-93880952D01*
X128365238Y-93928571D01*
X128270000Y-93976190D01*
X127889047Y-93976190D01*
X128889047Y-94452380D02*
X128889047Y-93785714D01*
X128889047Y-93452380D02*
X128841428Y-93500000D01*
X128889047Y-93547619D01*
X128936666Y-93500000D01*
X128889047Y-93452380D01*
X128889047Y-93547619D01*
X129555714Y-93452380D02*
X129746190Y-93452380D01*
X129841428Y-93500000D01*
X129936666Y-93595238D01*
X129984285Y-93785714D01*
X129984285Y-94119047D01*
X129936666Y-94309523D01*
X129841428Y-94404761D01*
X129746190Y-94452380D01*
X129555714Y-94452380D01*
X129460476Y-94404761D01*
X129365238Y-94309523D01*
X129317619Y-94119047D01*
X129317619Y-93785714D01*
X129365238Y-93595238D01*
X129460476Y-93500000D01*
X129555714Y-93452380D01*
X130889047Y-94452380D02*
X130412857Y-94452380D01*
X130412857Y-93452380D01*
X131222380Y-93928571D02*
X131555714Y-93928571D01*
X131698571Y-94452380D02*
X131222380Y-94452380D01*
X131222380Y-93452380D01*
X131698571Y-93452380D01*
X132127142Y-94452380D02*
X132127142Y-93452380D01*
X132365238Y-93452380D01*
X132508095Y-93500000D01*
X132603333Y-93595238D01*
X132650952Y-93690476D01*
X132698571Y-93880952D01*
X132698571Y-94023809D01*
X132650952Y-94214285D01*
X132603333Y-94309523D01*
X132508095Y-94404761D01*
X132365238Y-94452380D01*
X132127142Y-94452380D01*
%TO.C,U1*%
X173404761Y-99322380D02*
X173404761Y-98322380D01*
X173642857Y-98322380D01*
X173785714Y-98370000D01*
X173880952Y-98465238D01*
X173928571Y-98560476D01*
X173976190Y-98750952D01*
X173976190Y-98893809D01*
X173928571Y-99084285D01*
X173880952Y-99179523D01*
X173785714Y-99274761D01*
X173642857Y-99322380D01*
X173404761Y-99322380D01*
X174738095Y-98798571D02*
X174404761Y-98798571D01*
X174404761Y-99322380D02*
X174404761Y-98322380D01*
X174880952Y-98322380D01*
X175833333Y-99322380D02*
X175500000Y-98846190D01*
X175261904Y-99322380D02*
X175261904Y-98322380D01*
X175642857Y-98322380D01*
X175738095Y-98370000D01*
X175785714Y-98417619D01*
X175833333Y-98512857D01*
X175833333Y-98655714D01*
X175785714Y-98750952D01*
X175738095Y-98798571D01*
X175642857Y-98846190D01*
X175261904Y-98846190D01*
X176452380Y-98322380D02*
X176547619Y-98322380D01*
X176642857Y-98370000D01*
X176690476Y-98417619D01*
X176738095Y-98512857D01*
X176785714Y-98703333D01*
X176785714Y-98941428D01*
X176738095Y-99131904D01*
X176690476Y-99227142D01*
X176642857Y-99274761D01*
X176547619Y-99322380D01*
X176452380Y-99322380D01*
X176357142Y-99274761D01*
X176309523Y-99227142D01*
X176261904Y-99131904D01*
X176214285Y-98941428D01*
X176214285Y-98703333D01*
X176261904Y-98512857D01*
X176309523Y-98417619D01*
X176357142Y-98370000D01*
X176452380Y-98322380D01*
X177119047Y-98322380D02*
X177785714Y-98322380D01*
X177357142Y-99322380D01*
X178642857Y-98322380D02*
X178166666Y-98322380D01*
X178119047Y-98798571D01*
X178166666Y-98750952D01*
X178261904Y-98703333D01*
X178500000Y-98703333D01*
X178595238Y-98750952D01*
X178642857Y-98798571D01*
X178690476Y-98893809D01*
X178690476Y-99131904D01*
X178642857Y-99227142D01*
X178595238Y-99274761D01*
X178500000Y-99322380D01*
X178261904Y-99322380D01*
X178166666Y-99274761D01*
X178119047Y-99227142D01*
X179023809Y-98322380D02*
X179642857Y-98322380D01*
X179309523Y-98703333D01*
X179452380Y-98703333D01*
X179547619Y-98750952D01*
X179595238Y-98798571D01*
X179642857Y-98893809D01*
X179642857Y-99131904D01*
X179595238Y-99227142D01*
X179547619Y-99274761D01*
X179452380Y-99322380D01*
X179166666Y-99322380D01*
X179071428Y-99274761D01*
X179023809Y-99227142D01*
%TO.C,J1*%
X214283571Y-90031428D02*
X214331190Y-89888571D01*
X214378809Y-89840952D01*
X214474047Y-89793333D01*
X214616904Y-89793333D01*
X214712142Y-89840952D01*
X214759761Y-89888571D01*
X214807380Y-89983809D01*
X214807380Y-90364761D01*
X213807380Y-90364761D01*
X213807380Y-90031428D01*
X213855000Y-89936190D01*
X213902619Y-89888571D01*
X213997857Y-89840952D01*
X214093095Y-89840952D01*
X214188333Y-89888571D01*
X214235952Y-89936190D01*
X214283571Y-90031428D01*
X214283571Y-90364761D01*
X214807380Y-88936190D02*
X214283571Y-88936190D01*
X214188333Y-88983809D01*
X214140714Y-89079047D01*
X214140714Y-89269523D01*
X214188333Y-89364761D01*
X214759761Y-88936190D02*
X214807380Y-89031428D01*
X214807380Y-89269523D01*
X214759761Y-89364761D01*
X214664523Y-89412380D01*
X214569285Y-89412380D01*
X214474047Y-89364761D01*
X214426428Y-89269523D01*
X214426428Y-89031428D01*
X214378809Y-88936190D01*
X214140714Y-88602857D02*
X214140714Y-88221904D01*
X213807380Y-88460000D02*
X214664523Y-88460000D01*
X214759761Y-88412380D01*
X214807380Y-88317142D01*
X214807380Y-88221904D01*
X214140714Y-88031428D02*
X214140714Y-87650476D01*
X213807380Y-87888571D02*
X214664523Y-87888571D01*
X214759761Y-87840952D01*
X214807380Y-87745714D01*
X214807380Y-87650476D01*
X214759761Y-86936190D02*
X214807380Y-87031428D01*
X214807380Y-87221904D01*
X214759761Y-87317142D01*
X214664523Y-87364761D01*
X214283571Y-87364761D01*
X214188333Y-87317142D01*
X214140714Y-87221904D01*
X214140714Y-87031428D01*
X214188333Y-86936190D01*
X214283571Y-86888571D01*
X214378809Y-86888571D01*
X214474047Y-87364761D01*
X214807380Y-86460000D02*
X214140714Y-86460000D01*
X214331190Y-86460000D02*
X214235952Y-86412380D01*
X214188333Y-86364761D01*
X214140714Y-86269523D01*
X214140714Y-86174285D01*
X214140714Y-85936190D02*
X214807380Y-85698095D01*
X214140714Y-85460000D02*
X214807380Y-85698095D01*
X215045476Y-85793333D01*
X215093095Y-85840952D01*
X215140714Y-85936190D01*
D11*
%TO.C,REF\u002A\u002A*%
X196530000Y-96520000D02*
G75*
G03*
X196530000Y-96520000I-950000J0D01*
G01*
X199070000Y-101600000D02*
G75*
G03*
X199070000Y-101600000I-950000J0D01*
G01*
X196530000Y-99060000D02*
G75*
G03*
X196530000Y-99060000I-950000J0D01*
G01*
X193990000Y-101600000D02*
G75*
G03*
X193990000Y-101600000I-950000J0D01*
G01*
X191450000Y-101600000D02*
G75*
G03*
X191450000Y-101600000I-950000J0D01*
G01*
X193990000Y-99060000D02*
G75*
G03*
X193990000Y-99060000I-950000J0D01*
G01*
X191450000Y-99060000D02*
G75*
G03*
X191450000Y-99060000I-950000J0D01*
G01*
X193990000Y-96520000D02*
G75*
G03*
X193990000Y-96520000I-950000J0D01*
G01*
X191450000Y-96520000D02*
G75*
G03*
X191450000Y-96520000I-950000J0D01*
G01*
X196530000Y-101600000D02*
G75*
G03*
X196530000Y-101600000I-950000J0D01*
G01*
X206690000Y-53340000D02*
G75*
G03*
X206690000Y-53340000I-950000J0D01*
G01*
X206690000Y-50800000D02*
G75*
G03*
X206690000Y-50800000I-950000J0D01*
G01*
X138110000Y-53340000D02*
G75*
G03*
X138110000Y-53340000I-950000J0D01*
G01*
X135570000Y-53340000D02*
G75*
G03*
X135570000Y-53340000I-950000J0D01*
G01*
X140650000Y-53340000D02*
G75*
G03*
X140650000Y-53340000I-950000J0D01*
G01*
X133030000Y-53340000D02*
G75*
G03*
X133030000Y-53340000I-950000J0D01*
G01*
X143190000Y-53340000D02*
G75*
G03*
X143190000Y-53340000I-950000J0D01*
G01*
X153350000Y-53340000D02*
G75*
G03*
X153350000Y-53340000I-950000J0D01*
G01*
X145730000Y-53340000D02*
G75*
G03*
X145730000Y-53340000I-950000J0D01*
G01*
X150810000Y-53340000D02*
G75*
G03*
X150810000Y-53340000I-950000J0D01*
G01*
X148270000Y-53340000D02*
G75*
G03*
X148270000Y-53340000I-950000J0D01*
G01*
X138110000Y-50800000D02*
G75*
G03*
X138110000Y-50800000I-950000J0D01*
G01*
X135570000Y-50800000D02*
G75*
G03*
X135570000Y-50800000I-950000J0D01*
G01*
X140650000Y-50800000D02*
G75*
G03*
X140650000Y-50800000I-950000J0D01*
G01*
X133030000Y-50800000D02*
G75*
G03*
X133030000Y-50800000I-950000J0D01*
G01*
X143190000Y-50800000D02*
G75*
G03*
X143190000Y-50800000I-950000J0D01*
G01*
X153350000Y-50800000D02*
G75*
G03*
X153350000Y-50800000I-950000J0D01*
G01*
X145730000Y-50800000D02*
G75*
G03*
X145730000Y-50800000I-950000J0D01*
G01*
X150810000Y-50800000D02*
G75*
G03*
X150810000Y-50800000I-950000J0D01*
G01*
X148270000Y-50800000D02*
G75*
G03*
X148270000Y-50800000I-950000J0D01*
G01*
X188910000Y-53340000D02*
G75*
G03*
X188910000Y-53340000I-950000J0D01*
G01*
X186370000Y-53340000D02*
G75*
G03*
X186370000Y-53340000I-950000J0D01*
G01*
X191450000Y-53340000D02*
G75*
G03*
X191450000Y-53340000I-950000J0D01*
G01*
X183830000Y-53340000D02*
G75*
G03*
X183830000Y-53340000I-950000J0D01*
G01*
X193990000Y-53340000D02*
G75*
G03*
X193990000Y-53340000I-950000J0D01*
G01*
X204150000Y-53340000D02*
G75*
G03*
X204150000Y-53340000I-950000J0D01*
G01*
X196530000Y-53340000D02*
G75*
G03*
X196530000Y-53340000I-950000J0D01*
G01*
X201610000Y-53340000D02*
G75*
G03*
X201610000Y-53340000I-950000J0D01*
G01*
X199070000Y-53340000D02*
G75*
G03*
X199070000Y-53340000I-950000J0D01*
G01*
X181290000Y-53340000D02*
G75*
G03*
X181290000Y-53340000I-950000J0D01*
G01*
X163510000Y-53340000D02*
G75*
G03*
X163510000Y-53340000I-950000J0D01*
G01*
X160970000Y-53340000D02*
G75*
G03*
X160970000Y-53340000I-950000J0D01*
G01*
X166050000Y-53340000D02*
G75*
G03*
X166050000Y-53340000I-950000J0D01*
G01*
X158430000Y-53340000D02*
G75*
G03*
X158430000Y-53340000I-950000J0D01*
G01*
X168590000Y-53340000D02*
G75*
G03*
X168590000Y-53340000I-950000J0D01*
G01*
X178750000Y-53340000D02*
G75*
G03*
X178750000Y-53340000I-950000J0D01*
G01*
X171130000Y-53340000D02*
G75*
G03*
X171130000Y-53340000I-950000J0D01*
G01*
X176210000Y-53340000D02*
G75*
G03*
X176210000Y-53340000I-950000J0D01*
G01*
X173670000Y-53340000D02*
G75*
G03*
X173670000Y-53340000I-950000J0D01*
G01*
X155890000Y-53340000D02*
G75*
G03*
X155890000Y-53340000I-950000J0D01*
G01*
X188910000Y-50800000D02*
G75*
G03*
X188910000Y-50800000I-950000J0D01*
G01*
X186370000Y-50800000D02*
G75*
G03*
X186370000Y-50800000I-950000J0D01*
G01*
X191450000Y-50800000D02*
G75*
G03*
X191450000Y-50800000I-950000J0D01*
G01*
X183830000Y-50800000D02*
G75*
G03*
X183830000Y-50800000I-950000J0D01*
G01*
X193990000Y-50800000D02*
G75*
G03*
X193990000Y-50800000I-950000J0D01*
G01*
X204150000Y-50800000D02*
G75*
G03*
X204150000Y-50800000I-950000J0D01*
G01*
X196530000Y-50800000D02*
G75*
G03*
X196530000Y-50800000I-950000J0D01*
G01*
X201610000Y-50800000D02*
G75*
G03*
X201610000Y-50800000I-950000J0D01*
G01*
X199070000Y-50800000D02*
G75*
G03*
X199070000Y-50800000I-950000J0D01*
G01*
X181290000Y-50800000D02*
G75*
G03*
X181290000Y-50800000I-950000J0D01*
G01*
X163510000Y-50800000D02*
G75*
G03*
X163510000Y-50800000I-950000J0D01*
G01*
X160970000Y-50800000D02*
G75*
G03*
X160970000Y-50800000I-950000J0D01*
G01*
X166050000Y-50800000D02*
G75*
G03*
X166050000Y-50800000I-950000J0D01*
G01*
X158430000Y-50800000D02*
G75*
G03*
X158430000Y-50800000I-950000J0D01*
G01*
X168590000Y-50800000D02*
G75*
G03*
X168590000Y-50800000I-950000J0D01*
G01*
X178750000Y-50800000D02*
G75*
G03*
X178750000Y-50800000I-950000J0D01*
G01*
X171130000Y-50800000D02*
G75*
G03*
X171130000Y-50800000I-950000J0D01*
G01*
X176210000Y-50800000D02*
G75*
G03*
X176210000Y-50800000I-950000J0D01*
G01*
X173670000Y-50800000D02*
G75*
G03*
X173670000Y-50800000I-950000J0D01*
G01*
X155890000Y-50800000D02*
G75*
G03*
X155890000Y-50800000I-950000J0D01*
G01*
X199070000Y-114300000D02*
G75*
G03*
X199070000Y-114300000I-950000J0D01*
G01*
X196530000Y-114300000D02*
G75*
G03*
X196530000Y-114300000I-950000J0D01*
G01*
X201610000Y-114300000D02*
G75*
G03*
X201610000Y-114300000I-950000J0D01*
G01*
X193990000Y-114300000D02*
G75*
G03*
X193990000Y-114300000I-950000J0D01*
G01*
X204150000Y-114300000D02*
G75*
G03*
X204150000Y-114300000I-950000J0D01*
G01*
X206690000Y-114300000D02*
G75*
G03*
X206690000Y-114300000I-950000J0D01*
G01*
X191450000Y-114300000D02*
G75*
G03*
X191450000Y-114300000I-950000J0D01*
G01*
X199070000Y-111760000D02*
G75*
G03*
X199070000Y-111760000I-950000J0D01*
G01*
X196530000Y-111760000D02*
G75*
G03*
X196530000Y-111760000I-950000J0D01*
G01*
X201610000Y-111760000D02*
G75*
G03*
X201610000Y-111760000I-950000J0D01*
G01*
X193990000Y-111760000D02*
G75*
G03*
X193990000Y-111760000I-950000J0D01*
G01*
X204150000Y-111760000D02*
G75*
G03*
X204150000Y-111760000I-950000J0D01*
G01*
X206690000Y-111760000D02*
G75*
G03*
X206690000Y-111760000I-950000J0D01*
G01*
X191450000Y-111760000D02*
G75*
G03*
X191450000Y-111760000I-950000J0D01*
G01*
X199070000Y-109220000D02*
G75*
G03*
X199070000Y-109220000I-950000J0D01*
G01*
X196530000Y-109220000D02*
G75*
G03*
X196530000Y-109220000I-950000J0D01*
G01*
X201610000Y-109220000D02*
G75*
G03*
X201610000Y-109220000I-950000J0D01*
G01*
X193990000Y-109220000D02*
G75*
G03*
X193990000Y-109220000I-950000J0D01*
G01*
X204150000Y-109220000D02*
G75*
G03*
X204150000Y-109220000I-950000J0D01*
G01*
X214310000Y-109220000D02*
G75*
G03*
X214310000Y-109220000I-950000J0D01*
G01*
X206690000Y-109220000D02*
G75*
G03*
X206690000Y-109220000I-950000J0D01*
G01*
X211770000Y-109220000D02*
G75*
G03*
X211770000Y-109220000I-950000J0D01*
G01*
X209230000Y-109220000D02*
G75*
G03*
X209230000Y-109220000I-950000J0D01*
G01*
X191450000Y-109220000D02*
G75*
G03*
X191450000Y-109220000I-950000J0D01*
G01*
X199070000Y-106680000D02*
G75*
G03*
X199070000Y-106680000I-950000J0D01*
G01*
X196530000Y-106680000D02*
G75*
G03*
X196530000Y-106680000I-950000J0D01*
G01*
X201610000Y-106680000D02*
G75*
G03*
X201610000Y-106680000I-950000J0D01*
G01*
X193990000Y-106680000D02*
G75*
G03*
X193990000Y-106680000I-950000J0D01*
G01*
X204150000Y-106680000D02*
G75*
G03*
X204150000Y-106680000I-950000J0D01*
G01*
X214310000Y-106680000D02*
G75*
G03*
X214310000Y-106680000I-950000J0D01*
G01*
X206690000Y-106680000D02*
G75*
G03*
X206690000Y-106680000I-950000J0D01*
G01*
X211770000Y-106680000D02*
G75*
G03*
X211770000Y-106680000I-950000J0D01*
G01*
X209230000Y-106680000D02*
G75*
G03*
X209230000Y-106680000I-950000J0D01*
G01*
X191450000Y-106680000D02*
G75*
G03*
X191450000Y-106680000I-950000J0D01*
G01*
X191450000Y-104140000D02*
G75*
G03*
X191450000Y-104140000I-950000J0D01*
G01*
X214310000Y-104140000D02*
G75*
G03*
X214310000Y-104140000I-950000J0D01*
G01*
X211770000Y-104140000D02*
G75*
G03*
X211770000Y-104140000I-950000J0D01*
G01*
X209230000Y-104140000D02*
G75*
G03*
X209230000Y-104140000I-950000J0D01*
G01*
X206690000Y-104140000D02*
G75*
G03*
X206690000Y-104140000I-950000J0D01*
G01*
X204150000Y-104140000D02*
G75*
G03*
X204150000Y-104140000I-950000J0D01*
G01*
X201610000Y-104140000D02*
G75*
G03*
X201610000Y-104140000I-950000J0D01*
G01*
X199070000Y-104140000D02*
G75*
G03*
X199070000Y-104140000I-950000J0D01*
G01*
X196530000Y-104140000D02*
G75*
G03*
X196530000Y-104140000I-950000J0D01*
G01*
X193990000Y-104140000D02*
G75*
G03*
X193990000Y-104140000I-950000J0D01*
G01*
%TO.C,J5*%
X150870000Y-110190000D02*
X153530000Y-110190000D01*
X150870000Y-60600000D02*
X150870000Y-59270000D01*
X150870000Y-61870000D02*
X153530000Y-61870000D01*
X153530000Y-61870000D02*
X153530000Y-110190000D01*
X150870000Y-59270000D02*
X152200000Y-59270000D01*
X150870000Y-61870000D02*
X150870000Y-110190000D01*
%TO.C,J7*%
X130270000Y-61870000D02*
X130270000Y-59270000D01*
X127670000Y-61870000D02*
X127670000Y-67010000D01*
X127670000Y-61870000D02*
X130270000Y-61870000D01*
X127670000Y-60600000D02*
X127670000Y-59270000D01*
X127670000Y-67010000D02*
X132870000Y-67010000D01*
X130270000Y-59270000D02*
X132870000Y-59270000D01*
X127670000Y-59270000D02*
X129000000Y-59270000D01*
X132870000Y-59270000D02*
X132870000Y-67010000D01*
%TO.C,PiOLED*%
X132870000Y-84670000D02*
X132870000Y-92410000D01*
X127670000Y-84670000D02*
X129000000Y-84670000D01*
X130270000Y-87270000D02*
X130270000Y-84670000D01*
X127670000Y-92410000D02*
X132870000Y-92410000D01*
X127670000Y-87270000D02*
X130270000Y-87270000D01*
X130270000Y-84670000D02*
X132870000Y-84670000D01*
X127670000Y-86000000D02*
X127670000Y-84670000D01*
X127670000Y-87270000D02*
X127670000Y-92410000D01*
%TO.C,U1*%
X188100000Y-109470000D02*
X164100000Y-109470000D01*
X164100000Y-109470000D02*
X164100000Y-89470000D01*
X164100000Y-89470000D02*
X188100000Y-89470000D01*
X188100000Y-89470000D02*
X188100000Y-109470000D01*
%TO.C,J3*%
X139870000Y-60600000D02*
X139870000Y-59270000D01*
X139870000Y-110190000D02*
X142530000Y-110190000D01*
X139870000Y-61870000D02*
X139870000Y-110190000D01*
X139870000Y-61870000D02*
X142530000Y-61870000D01*
X142530000Y-61870000D02*
X142530000Y-110190000D01*
X139870000Y-59270000D02*
X141200000Y-59270000D01*
%TO.C,J6*%
X159865000Y-58670000D02*
X159865000Y-81530000D01*
X210665000Y-58670000D02*
X159865000Y-58670000D01*
X210665000Y-81530000D02*
X210665000Y-58670000D01*
X159865000Y-81530000D02*
X210665000Y-81530000D01*
%TO.C,J4*%
X144070000Y-110190000D02*
X149270000Y-110190000D01*
X146670000Y-59270000D02*
X149270000Y-59270000D01*
X149270000Y-59270000D02*
X149270000Y-110190000D01*
X146670000Y-61870000D02*
X146670000Y-59270000D01*
X144070000Y-61870000D02*
X146670000Y-61870000D01*
X144070000Y-59270000D02*
X145400000Y-59270000D01*
X144070000Y-60600000D02*
X144070000Y-59270000D01*
X144070000Y-61870000D02*
X144070000Y-110190000D01*
%TD*%
M02*
