M48
; DRILL file {KiCad (6.0.10)} date Fri Jun  7 15:58:58 2024
; FORMAT={-:-/ absolute / inch / decimal}
; #@! TF.CreationDate,2024-06-07T15:58:58+09:00
; #@! TF.GenerationSoftware,Kicad,Pcbnew,(6.0.10)
; #@! TF.FileFunction,Plated,1,2,PTH
FMAT,2
INCH
; #@! TA.AperFunction,Plated,PTH,ViaDrill
T1C0.0157
; #@! TA.AperFunction,Plated,PTH,ComponentDrill
T2C0.0276
; #@! TA.AperFunction,Plated,PTH,ComponentDrill
T3C0.0354
; #@! TA.AperFunction,Plated,PTH,ComponentDrill
T4C0.0394
%
G90
G05
T1
X5.0256Y-3.0394
X5.3728Y-2.5366
X5.374Y-2.437
X5.3937Y-3.0984
X5.3937Y-3.252
X6.4252Y-2.6358
X7.0638Y-4.3224
X7.1638Y-4.3224
T2
X5.2Y-2.0
X5.2Y-2.1
X5.3Y-2.0
X5.3Y-2.1
X5.4Y-2.0
X5.4Y-2.1
X5.5Y-2.0
X5.5Y-2.1
X5.6Y-2.0
X5.6Y-2.1
X5.7Y-2.0
X5.7Y-2.1
X5.8Y-2.0
X5.8Y-2.1
X5.9Y-2.0
X5.9Y-2.1
X6.0Y-2.0
X6.0Y-2.1
X6.1Y-2.0
X6.1Y-2.1
X6.2Y-2.0
X6.2Y-2.1
X6.3Y-2.0
X6.3Y-2.1
X6.4Y-2.0
X6.4Y-2.1
X6.5Y-2.0
X6.5Y-2.1
X6.6Y-2.0
X6.6Y-2.1
X6.7Y-2.0
X6.7Y-2.1
X6.8Y-2.0
X6.8Y-2.1
X6.9Y-2.0
X6.9Y-2.1
X7.0Y-2.0
X7.0Y-2.1
X7.1Y-2.0
X7.1Y-2.1
X7.2Y-2.0
X7.2Y-2.1
X7.3Y-2.0
X7.3Y-2.1
X7.4Y-2.0
X7.4Y-2.1
X7.5Y-2.0
X7.5Y-2.1
X7.5Y-3.8
X7.5Y-3.9
X7.5Y-4.0
X7.5Y-4.1
X7.5Y-4.2
X7.5Y-4.3
X7.5Y-4.4
X7.5Y-4.5
X7.6Y-2.0
X7.6Y-2.1
X7.6Y-3.8
X7.6Y-3.9
X7.6Y-4.0
X7.6Y-4.1
X7.6Y-4.2
X7.6Y-4.3
X7.6Y-4.4
X7.6Y-4.5
X7.7Y-2.0
X7.7Y-2.1
X7.7Y-3.8
X7.7Y-3.9
X7.7Y-4.0
X7.7Y-4.1
X7.7Y-4.2
X7.7Y-4.3
X7.7Y-4.4
X7.7Y-4.5
X7.8Y-2.0
X7.8Y-2.1
X7.8Y-4.0
X7.8Y-4.1
X7.8Y-4.2
X7.8Y-4.3
X7.8Y-4.4
X7.8Y-4.5
X7.9Y-2.0
X7.9Y-2.1
X7.9Y-4.1
X7.9Y-4.2
X7.9Y-4.3
X7.9Y-4.4
X7.9Y-4.5
X8.0Y-2.0
X8.0Y-2.1
X8.0Y-4.1
X8.0Y-4.2
X8.0Y-4.3
X8.0Y-4.4
X8.0Y-4.5
X8.1Y-2.0
X8.1Y-2.1
X8.1Y-4.1
X8.1Y-4.2
X8.1Y-4.3
X8.1Y-4.4
X8.1Y-4.5
X8.2Y-4.1
X8.2Y-4.2
X8.2Y-4.3
X8.3Y-4.1
X8.3Y-4.2
X8.3Y-4.3
X8.4Y-4.1
X8.4Y-4.2
X8.4Y-4.3
T3
X6.5439Y-2.3598
X6.5439Y-3.1598
X6.6439Y-2.3598
X6.6439Y-3.1598
X6.7439Y-2.3598
X6.7439Y-3.1598
X6.8439Y-2.3598
X6.8439Y-3.1598
X6.9439Y-2.3598
X6.9439Y-3.1598
X7.0439Y-2.3598
X7.0439Y-3.1598
X7.1439Y-2.3598
X7.1439Y-3.1598
X7.2439Y-2.3598
X7.2439Y-3.1598
X7.3439Y-2.3598
X7.3439Y-3.1598
X7.4439Y-2.3598
X7.4439Y-3.1598
X7.5439Y-2.3598
X7.5439Y-3.1598
X7.6439Y-2.3598
X7.6439Y-3.1598
X7.7439Y-2.3598
X7.7921Y-3.4646
X7.8439Y-2.3598
X7.9439Y-2.3598
X7.9496Y-3.8583
X7.9921Y-3.4646
X8.0439Y-2.3598
X8.0496Y-3.8583
X8.1496Y-3.8583
X8.3211Y-3.3646
X8.3211Y-3.5646
X8.3496Y-3.8583
T4
X5.0787Y-2.3858
X5.0787Y-2.4858
X5.0787Y-2.5858
X5.0787Y-3.3858
X5.0787Y-3.4858
X5.0787Y-3.5858
X5.1787Y-2.3858
X5.1787Y-2.4858
X5.1787Y-2.5858
X5.1787Y-3.3858
X5.1787Y-3.4858
X5.1787Y-3.5858
X5.5591Y-2.3858
X5.5591Y-2.4858
X5.5591Y-2.5858
X5.5591Y-2.6858
X5.5591Y-2.7858
X5.5591Y-2.8858
X5.5591Y-2.9858
X5.5591Y-3.0858
X5.5591Y-3.1858
X5.5591Y-3.2858
X5.5591Y-3.3858
X5.5591Y-3.4858
X5.5591Y-3.5858
X5.5591Y-3.6858
X5.5591Y-3.7858
X5.5591Y-3.8858
X5.5591Y-3.9858
X5.5591Y-4.0858
X5.5591Y-4.1858
X5.5591Y-4.2858
X5.7244Y-2.3858
X5.7244Y-2.4858
X5.7244Y-2.5858
X5.7244Y-2.6858
X5.7244Y-2.7858
X5.7244Y-2.8858
X5.7244Y-2.9858
X5.7244Y-3.0858
X5.7244Y-3.1858
X5.7244Y-3.2858
X5.7244Y-3.3858
X5.7244Y-3.4858
X5.7244Y-3.5858
X5.7244Y-3.6858
X5.7244Y-3.7858
X5.7244Y-3.8858
X5.7244Y-3.9858
X5.7244Y-4.0858
X5.7244Y-4.1858
X5.7244Y-4.2858
X5.8244Y-2.3858
X5.8244Y-2.4858
X5.8244Y-2.5858
X5.8244Y-2.6858
X5.8244Y-2.7858
X5.8244Y-2.8858
X5.8244Y-2.9858
X5.8244Y-3.0858
X5.8244Y-3.1858
X5.8244Y-3.2858
X5.8244Y-3.3858
X5.8244Y-3.4858
X5.8244Y-3.5858
X5.8244Y-3.6858
X5.8244Y-3.7858
X5.8244Y-3.8858
X5.8244Y-3.9858
X5.8244Y-4.0858
X5.8244Y-4.1858
X5.8244Y-4.2858
X5.9921Y-2.3858
X5.9921Y-2.4858
X5.9921Y-2.5858
X5.9921Y-2.6858
X5.9921Y-2.7858
X5.9921Y-2.8858
X5.9921Y-2.9858
X5.9921Y-3.0858
X5.9921Y-3.1858
X5.9921Y-3.2858
X5.9921Y-3.3858
X5.9921Y-3.4858
X5.9921Y-3.5858
X5.9921Y-3.6858
X5.9921Y-3.7858
X5.9921Y-3.8858
X5.9921Y-3.9858
X5.9921Y-4.0858
X5.9921Y-4.1858
X5.9921Y-4.2858
T0
M30
