%TF.GenerationSoftware,KiCad,Pcbnew,(6.0.10)*%
%TF.CreationDate,2024-06-07T15:58:53+09:00*%
%TF.ProjectId,extension_circuit_board,65787465-6e73-4696-9f6e-5f6369726375,rev?*%
%TF.SameCoordinates,Original*%
%TF.FileFunction,Soldermask,Top*%
%TF.FilePolarity,Negative*%
%FSLAX46Y46*%
G04 Gerber Fmt 4.6, Leading zero omitted, Abs format (unit mm)*
G04 Created by KiCad (PCBNEW (6.0.10)) date 2024-06-07 15:58:53*
%MOMM*%
%LPD*%
G01*
G04 APERTURE LIST*
G04 Aperture macros list*
%AMRoundRect*
0 Rectangle with rounded corners*
0 $1 Rounding radius*
0 $2 $3 $4 $5 $6 $7 $8 $9 X,Y pos of 4 corners*
0 Add a 4 corners polygon primitive as box body*
4,1,4,$2,$3,$4,$5,$6,$7,$8,$9,$2,$3,0*
0 Add four circle primitives for the rounded corners*
1,1,$1+$1,$2,$3*
1,1,$1+$1,$4,$5*
1,1,$1+$1,$6,$7*
1,1,$1+$1,$8,$9*
0 Add four rect primitives between the rounded corners*
20,1,$1+$1,$2,$3,$4,$5,0*
20,1,$1+$1,$4,$5,$6,$7,0*
20,1,$1+$1,$6,$7,$8,$9,0*
20,1,$1+$1,$8,$9,$2,$3,0*%
G04 Aperture macros list end*
%ADD10C,1.500000*%
%ADD11C,3.200000*%
%ADD12R,1.700000X1.700000*%
%ADD13O,1.700000X1.700000*%
%ADD14RoundRect,0.500000X-0.500000X-0.500000X0.500000X-0.500000X0.500000X0.500000X-0.500000X0.500000X0*%
%ADD15C,3.000000*%
%ADD16C,2.000000*%
G04 APERTURE END LIST*
D10*
%TO.C,REF\u002A\u002A*%
X195580000Y-96520000D03*
%TD*%
%TO.C,REF\u002A\u002A*%
X198120000Y-101600000D03*
%TD*%
%TO.C,REF\u002A\u002A*%
X195580000Y-99060000D03*
%TD*%
%TO.C,REF\u002A\u002A*%
X193040000Y-101600000D03*
%TD*%
%TO.C,REF\u002A\u002A*%
X190500000Y-101600000D03*
%TD*%
%TO.C,REF\u002A\u002A*%
X193040000Y-99060000D03*
%TD*%
%TO.C,REF\u002A\u002A*%
X190500000Y-99060000D03*
%TD*%
%TO.C,REF\u002A\u002A*%
X193040000Y-96520000D03*
%TD*%
%TO.C,REF\u002A\u002A*%
X190500000Y-96520000D03*
%TD*%
%TO.C,REF\u002A\u002A*%
X195580000Y-101600000D03*
%TD*%
%TO.C,REF\u002A\u002A*%
X205740000Y-53340000D03*
%TD*%
%TO.C,REF\u002A\u002A*%
X205740000Y-50800000D03*
%TD*%
%TO.C,REF\u002A\u002A*%
X137160000Y-53340000D03*
%TD*%
%TO.C,REF\u002A\u002A*%
X134620000Y-53340000D03*
%TD*%
%TO.C,REF\u002A\u002A*%
X139700000Y-53340000D03*
%TD*%
%TO.C,REF\u002A\u002A*%
X132080000Y-53340000D03*
%TD*%
%TO.C,REF\u002A\u002A*%
X142240000Y-53340000D03*
%TD*%
%TO.C,REF\u002A\u002A*%
X152400000Y-53340000D03*
%TD*%
%TO.C,REF\u002A\u002A*%
X144780000Y-53340000D03*
%TD*%
%TO.C,REF\u002A\u002A*%
X149860000Y-53340000D03*
%TD*%
%TO.C,REF\u002A\u002A*%
X147320000Y-53340000D03*
%TD*%
%TO.C,REF\u002A\u002A*%
X137160000Y-50800000D03*
%TD*%
%TO.C,REF\u002A\u002A*%
X134620000Y-50800000D03*
%TD*%
%TO.C,REF\u002A\u002A*%
X139700000Y-50800000D03*
%TD*%
%TO.C,REF\u002A\u002A*%
X132080000Y-50800000D03*
%TD*%
%TO.C,REF\u002A\u002A*%
X142240000Y-50800000D03*
%TD*%
%TO.C,REF\u002A\u002A*%
X152400000Y-50800000D03*
%TD*%
%TO.C,REF\u002A\u002A*%
X144780000Y-50800000D03*
%TD*%
%TO.C,REF\u002A\u002A*%
X149860000Y-50800000D03*
%TD*%
%TO.C,REF\u002A\u002A*%
X147320000Y-50800000D03*
%TD*%
%TO.C,REF\u002A\u002A*%
X187960000Y-53340000D03*
%TD*%
%TO.C,REF\u002A\u002A*%
X185420000Y-53340000D03*
%TD*%
%TO.C,REF\u002A\u002A*%
X190500000Y-53340000D03*
%TD*%
%TO.C,REF\u002A\u002A*%
X182880000Y-53340000D03*
%TD*%
%TO.C,REF\u002A\u002A*%
X193040000Y-53340000D03*
%TD*%
%TO.C,REF\u002A\u002A*%
X203200000Y-53340000D03*
%TD*%
%TO.C,REF\u002A\u002A*%
X195580000Y-53340000D03*
%TD*%
%TO.C,REF\u002A\u002A*%
X200660000Y-53340000D03*
%TD*%
%TO.C,REF\u002A\u002A*%
X198120000Y-53340000D03*
%TD*%
%TO.C,REF\u002A\u002A*%
X180340000Y-53340000D03*
%TD*%
%TO.C,REF\u002A\u002A*%
X162560000Y-53340000D03*
%TD*%
%TO.C,REF\u002A\u002A*%
X160020000Y-53340000D03*
%TD*%
%TO.C,REF\u002A\u002A*%
X165100000Y-53340000D03*
%TD*%
%TO.C,REF\u002A\u002A*%
X157480000Y-53340000D03*
%TD*%
%TO.C,REF\u002A\u002A*%
X167640000Y-53340000D03*
%TD*%
%TO.C,REF\u002A\u002A*%
X177800000Y-53340000D03*
%TD*%
%TO.C,REF\u002A\u002A*%
X170180000Y-53340000D03*
%TD*%
%TO.C,REF\u002A\u002A*%
X175260000Y-53340000D03*
%TD*%
%TO.C,REF\u002A\u002A*%
X172720000Y-53340000D03*
%TD*%
%TO.C,REF\u002A\u002A*%
X154940000Y-53340000D03*
%TD*%
%TO.C,REF\u002A\u002A*%
X187960000Y-50800000D03*
%TD*%
%TO.C,REF\u002A\u002A*%
X185420000Y-50800000D03*
%TD*%
%TO.C,REF\u002A\u002A*%
X190500000Y-50800000D03*
%TD*%
%TO.C,REF\u002A\u002A*%
X182880000Y-50800000D03*
%TD*%
%TO.C,REF\u002A\u002A*%
X193040000Y-50800000D03*
%TD*%
%TO.C,REF\u002A\u002A*%
X203200000Y-50800000D03*
%TD*%
%TO.C,REF\u002A\u002A*%
X195580000Y-50800000D03*
%TD*%
%TO.C,REF\u002A\u002A*%
X200660000Y-50800000D03*
%TD*%
%TO.C,REF\u002A\u002A*%
X198120000Y-50800000D03*
%TD*%
%TO.C,REF\u002A\u002A*%
X180340000Y-50800000D03*
%TD*%
%TO.C,REF\u002A\u002A*%
X162560000Y-50800000D03*
%TD*%
%TO.C,REF\u002A\u002A*%
X160020000Y-50800000D03*
%TD*%
%TO.C,REF\u002A\u002A*%
X165100000Y-50800000D03*
%TD*%
%TO.C,REF\u002A\u002A*%
X157480000Y-50800000D03*
%TD*%
%TO.C,REF\u002A\u002A*%
X167640000Y-50800000D03*
%TD*%
%TO.C,REF\u002A\u002A*%
X177800000Y-50800000D03*
%TD*%
%TO.C,REF\u002A\u002A*%
X170180000Y-50800000D03*
%TD*%
%TO.C,REF\u002A\u002A*%
X175260000Y-50800000D03*
%TD*%
%TO.C,REF\u002A\u002A*%
X172720000Y-50800000D03*
%TD*%
%TO.C,REF\u002A\u002A*%
X154940000Y-50800000D03*
%TD*%
%TO.C,REF\u002A\u002A*%
X198120000Y-114300000D03*
%TD*%
%TO.C,REF\u002A\u002A*%
X195580000Y-114300000D03*
%TD*%
%TO.C,REF\u002A\u002A*%
X200660000Y-114300000D03*
%TD*%
%TO.C,REF\u002A\u002A*%
X193040000Y-114300000D03*
%TD*%
%TO.C,REF\u002A\u002A*%
X203200000Y-114300000D03*
%TD*%
%TO.C,REF\u002A\u002A*%
X205740000Y-114300000D03*
%TD*%
%TO.C,REF\u002A\u002A*%
X190500000Y-114300000D03*
%TD*%
%TO.C,REF\u002A\u002A*%
X198120000Y-111760000D03*
%TD*%
%TO.C,REF\u002A\u002A*%
X195580000Y-111760000D03*
%TD*%
%TO.C,REF\u002A\u002A*%
X200660000Y-111760000D03*
%TD*%
%TO.C,REF\u002A\u002A*%
X193040000Y-111760000D03*
%TD*%
%TO.C,REF\u002A\u002A*%
X203200000Y-111760000D03*
%TD*%
%TO.C,REF\u002A\u002A*%
X205740000Y-111760000D03*
%TD*%
%TO.C,REF\u002A\u002A*%
X190500000Y-111760000D03*
%TD*%
%TO.C,REF\u002A\u002A*%
X198120000Y-109220000D03*
%TD*%
%TO.C,REF\u002A\u002A*%
X195580000Y-109220000D03*
%TD*%
%TO.C,REF\u002A\u002A*%
X200660000Y-109220000D03*
%TD*%
%TO.C,REF\u002A\u002A*%
X193040000Y-109220000D03*
%TD*%
%TO.C,REF\u002A\u002A*%
X203200000Y-109220000D03*
%TD*%
%TO.C,REF\u002A\u002A*%
X213360000Y-109220000D03*
%TD*%
%TO.C,REF\u002A\u002A*%
X205740000Y-109220000D03*
%TD*%
%TO.C,REF\u002A\u002A*%
X210820000Y-109220000D03*
%TD*%
%TO.C,REF\u002A\u002A*%
X208280000Y-109220000D03*
%TD*%
%TO.C,REF\u002A\u002A*%
X190500000Y-109220000D03*
%TD*%
%TO.C,REF\u002A\u002A*%
X198120000Y-106680000D03*
%TD*%
%TO.C,REF\u002A\u002A*%
X195580000Y-106680000D03*
%TD*%
%TO.C,REF\u002A\u002A*%
X200660000Y-106680000D03*
%TD*%
%TO.C,REF\u002A\u002A*%
X193040000Y-106680000D03*
%TD*%
%TO.C,REF\u002A\u002A*%
X203200000Y-106680000D03*
%TD*%
%TO.C,REF\u002A\u002A*%
X213360000Y-106680000D03*
%TD*%
%TO.C,REF\u002A\u002A*%
X205740000Y-106680000D03*
%TD*%
%TO.C,REF\u002A\u002A*%
X210820000Y-106680000D03*
%TD*%
%TO.C,REF\u002A\u002A*%
X208280000Y-106680000D03*
%TD*%
%TO.C,REF\u002A\u002A*%
X190500000Y-106680000D03*
%TD*%
%TO.C,REF\u002A\u002A*%
X190500000Y-104140000D03*
%TD*%
%TO.C,REF\u002A\u002A*%
X213360000Y-104140000D03*
%TD*%
%TO.C,REF\u002A\u002A*%
X210820000Y-104140000D03*
%TD*%
%TO.C,REF\u002A\u002A*%
X208280000Y-104140000D03*
%TD*%
%TO.C,REF\u002A\u002A*%
X205740000Y-104140000D03*
%TD*%
%TO.C,REF\u002A\u002A*%
X203200000Y-104140000D03*
%TD*%
%TO.C,REF\u002A\u002A*%
X200660000Y-104140000D03*
%TD*%
%TO.C,REF\u002A\u002A*%
X198120000Y-104140000D03*
%TD*%
%TO.C,REF\u002A\u002A*%
X195580000Y-104140000D03*
%TD*%
%TO.C,REF\u002A\u002A*%
X193040000Y-104140000D03*
%TD*%
D11*
%TO.C,REF\u002A\u002A*%
X213000000Y-50000000D03*
%TD*%
D12*
%TO.C,J5*%
X152200000Y-60600000D03*
D13*
X152200000Y-63140000D03*
X152200000Y-65680000D03*
X152200000Y-68220000D03*
X152200000Y-70760000D03*
X152200000Y-73300000D03*
X152200000Y-75840000D03*
X152200000Y-78380000D03*
X152200000Y-80920000D03*
X152200000Y-83460000D03*
X152200000Y-86000000D03*
X152200000Y-88540000D03*
X152200000Y-91080000D03*
X152200000Y-93620000D03*
X152200000Y-96160000D03*
X152200000Y-98700000D03*
X152200000Y-101240000D03*
X152200000Y-103780000D03*
X152200000Y-106320000D03*
X152200000Y-108860000D03*
%TD*%
D12*
%TO.C,J7*%
X129000000Y-60600000D03*
D13*
X131540000Y-60600000D03*
X129000000Y-63140000D03*
X131540000Y-63140000D03*
X129000000Y-65680000D03*
X131540000Y-65680000D03*
%TD*%
D11*
%TO.C,REF\u002A\u002A*%
X124000000Y-50000000D03*
%TD*%
D12*
%TO.C,PiOLED*%
X129000000Y-86000000D03*
D13*
X131540000Y-86000000D03*
X129000000Y-88540000D03*
X131540000Y-88540000D03*
X129000000Y-91080000D03*
X131540000Y-91080000D03*
%TD*%
D14*
%TO.C,U1*%
X187040000Y-109790000D03*
X181960000Y-109790000D03*
X179420000Y-109790000D03*
X174340000Y-109790000D03*
%TD*%
D15*
%TO.C,J2*%
X197920000Y-88000000D03*
X203000000Y-88000000D03*
%TD*%
D11*
%TO.C,REF\u002A\u002A*%
X124000000Y-116000000D03*
%TD*%
D12*
%TO.C,J3*%
X141200000Y-60600000D03*
D13*
X141200000Y-63140000D03*
X141200000Y-65680000D03*
X141200000Y-68220000D03*
X141200000Y-70760000D03*
X141200000Y-73300000D03*
X141200000Y-75840000D03*
X141200000Y-78380000D03*
X141200000Y-80920000D03*
X141200000Y-83460000D03*
X141200000Y-86000000D03*
X141200000Y-88540000D03*
X141200000Y-91080000D03*
X141200000Y-93620000D03*
X141200000Y-96160000D03*
X141200000Y-98700000D03*
X141200000Y-101240000D03*
X141200000Y-103780000D03*
X141200000Y-106320000D03*
X141200000Y-108860000D03*
%TD*%
D11*
%TO.C,REF\u002A\u002A*%
X213000000Y-116000000D03*
%TD*%
D16*
%TO.C,J6*%
X204315000Y-59940000D03*
X201775000Y-59940000D03*
X199235000Y-59940000D03*
X196695000Y-59940000D03*
X194155000Y-59940000D03*
X191615000Y-59940000D03*
X189075000Y-59940000D03*
X186535000Y-59940000D03*
X183995000Y-59940000D03*
X181455000Y-59940000D03*
X178915000Y-59940000D03*
X176375000Y-59940000D03*
X173835000Y-59940000D03*
X171295000Y-59940000D03*
X168755000Y-59940000D03*
X166215000Y-59940000D03*
X194155000Y-80260000D03*
X191615000Y-80260000D03*
X189075000Y-80260000D03*
X186535000Y-80260000D03*
X183995000Y-80260000D03*
X181455000Y-80260000D03*
X178915000Y-80260000D03*
X176375000Y-80260000D03*
X173835000Y-80260000D03*
X171295000Y-80260000D03*
X168755000Y-80260000D03*
X166215000Y-80260000D03*
%TD*%
D15*
%TO.C,J1*%
X211355000Y-90540000D03*
X211355000Y-85460000D03*
%TD*%
D16*
%TO.C,SW1*%
X207000000Y-98000000D03*
X204460000Y-98000000D03*
X201920000Y-98000000D03*
X212080000Y-98000000D03*
%TD*%
D12*
%TO.C,J4*%
X145400000Y-60600000D03*
D13*
X147940000Y-60600000D03*
X145400000Y-63140000D03*
X147940000Y-63140000D03*
X145400000Y-65680000D03*
X147940000Y-65680000D03*
X145400000Y-68220000D03*
X147940000Y-68220000D03*
X145400000Y-70760000D03*
X147940000Y-70760000D03*
X145400000Y-73300000D03*
X147940000Y-73300000D03*
X145400000Y-75840000D03*
X147940000Y-75840000D03*
X145400000Y-78380000D03*
X147940000Y-78380000D03*
X145400000Y-80920000D03*
X147940000Y-80920000D03*
X145400000Y-83460000D03*
X147940000Y-83460000D03*
X145400000Y-86000000D03*
X147940000Y-86000000D03*
X145400000Y-88540000D03*
X147940000Y-88540000D03*
X145400000Y-91080000D03*
X147940000Y-91080000D03*
X145400000Y-93620000D03*
X147940000Y-93620000D03*
X145400000Y-96160000D03*
X147940000Y-96160000D03*
X145400000Y-98700000D03*
X147940000Y-98700000D03*
X145400000Y-101240000D03*
X147940000Y-101240000D03*
X145400000Y-103780000D03*
X147940000Y-103780000D03*
X145400000Y-106320000D03*
X147940000Y-106320000D03*
X145400000Y-108860000D03*
X147940000Y-108860000D03*
%TD*%
M02*
