%TF.GenerationSoftware,KiCad,Pcbnew,(6.0.10)*%
%TF.CreationDate,2023-06-02T17:33:45+09:00*%
%TF.ProjectId,extension_circuit_board,65787465-6e73-4696-9f6e-5f6369726375,rev?*%
%TF.SameCoordinates,Original*%
%TF.FileFunction,Legend,Bot*%
%TF.FilePolarity,Positive*%
%FSLAX46Y46*%
G04 Gerber Fmt 4.6, Leading zero omitted, Abs format (unit mm)*
G04 Created by KiCad (PCBNEW (6.0.10)) date 2023-06-02 17:33:45*
%MOMM*%
%LPD*%
G01*
G04 APERTURE LIST*
%ADD10C,0.150000*%
%ADD11C,0.120000*%
G04 APERTURE END LIST*
D10*
X133766666Y-98548095D02*
X133766666Y-99024285D01*
X134052380Y-98452857D02*
X133052380Y-98786190D01*
X134052380Y-99119523D01*
X133528571Y-99452857D02*
X133528571Y-99786190D01*
X134052380Y-99929047D02*
X134052380Y-99452857D01*
X133052380Y-99452857D01*
X133052380Y-99929047D01*
X134147619Y-100119523D02*
X134147619Y-100881428D01*
X134052380Y-101119523D02*
X133052380Y-101119523D01*
X133766666Y-101452857D01*
X133052380Y-101786190D01*
X134052380Y-101786190D01*
X134052380Y-102833809D02*
X133576190Y-102500476D01*
X134052380Y-102262380D02*
X133052380Y-102262380D01*
X133052380Y-102643333D01*
X133100000Y-102738571D01*
X133147619Y-102786190D01*
X133242857Y-102833809D01*
X133385714Y-102833809D01*
X133480952Y-102786190D01*
X133528571Y-102738571D01*
X133576190Y-102643333D01*
X133576190Y-102262380D01*
X133052380Y-103262380D02*
X133861904Y-103262380D01*
X133957142Y-103310000D01*
X134004761Y-103357619D01*
X134052380Y-103452857D01*
X134052380Y-103643333D01*
X134004761Y-103738571D01*
X133957142Y-103786190D01*
X133861904Y-103833809D01*
X133052380Y-103833809D01*
X134004761Y-104262380D02*
X134052380Y-104405238D01*
X134052380Y-104643333D01*
X134004761Y-104738571D01*
X133957142Y-104786190D01*
X133861904Y-104833809D01*
X133766666Y-104833809D01*
X133671428Y-104786190D01*
X133623809Y-104738571D01*
X133576190Y-104643333D01*
X133528571Y-104452857D01*
X133480952Y-104357619D01*
X133433333Y-104310000D01*
X133338095Y-104262380D01*
X133242857Y-104262380D01*
X133147619Y-104310000D01*
X133100000Y-104357619D01*
X133052380Y-104452857D01*
X133052380Y-104690952D01*
X133100000Y-104833809D01*
X133528571Y-105595714D02*
X133576190Y-105738571D01*
X133623809Y-105786190D01*
X133719047Y-105833809D01*
X133861904Y-105833809D01*
X133957142Y-105786190D01*
X134004761Y-105738571D01*
X134052380Y-105643333D01*
X134052380Y-105262380D01*
X133052380Y-105262380D01*
X133052380Y-105595714D01*
X133100000Y-105690952D01*
X133147619Y-105738571D01*
X133242857Y-105786190D01*
X133338095Y-105786190D01*
X133433333Y-105738571D01*
X133480952Y-105690952D01*
X133528571Y-105595714D01*
X133528571Y-105262380D01*
X134147619Y-106024285D02*
X134147619Y-106786190D01*
X134052380Y-107024285D02*
X133052380Y-107024285D01*
X133052380Y-107262380D01*
X133100000Y-107405238D01*
X133195238Y-107500476D01*
X133290476Y-107548095D01*
X133480952Y-107595714D01*
X133623809Y-107595714D01*
X133814285Y-107548095D01*
X133909523Y-107500476D01*
X134004761Y-107405238D01*
X134052380Y-107262380D01*
X134052380Y-107024285D01*
X134052380Y-108024285D02*
X133052380Y-108024285D01*
X134052380Y-108500476D02*
X133052380Y-108500476D01*
X133052380Y-108881428D01*
X133100000Y-108976666D01*
X133147619Y-109024285D01*
X133242857Y-109071904D01*
X133385714Y-109071904D01*
X133480952Y-109024285D01*
X133528571Y-108976666D01*
X133576190Y-108881428D01*
X133576190Y-108500476D01*
D11*
%TO.C,J1*%
X131818000Y-109271000D02*
X131818000Y-99873000D01*
X131818000Y-100000000D02*
X131818000Y-98222000D01*
%TD*%
M02*
