%TF.GenerationSoftware,KiCad,Pcbnew,(6.0.10)*%
%TF.CreationDate,2023-06-02T17:33:45+09:00*%
%TF.ProjectId,extension_circuit_board,65787465-6e73-4696-9f6e-5f6369726375,rev?*%
%TF.SameCoordinates,Original*%
%TF.FileFunction,Legend,Top*%
%TF.FilePolarity,Positive*%
%FSLAX46Y46*%
G04 Gerber Fmt 4.6, Leading zero omitted, Abs format (unit mm)*
G04 Created by KiCad (PCBNEW (6.0.10)) date 2023-06-02 17:33:45*
%MOMM*%
%LPD*%
G01*
G04 APERTURE LIST*
%ADD10C,0.150000*%
%ADD11C,0.120000*%
G04 APERTURE END LIST*
D10*
X154809523Y-78852380D02*
X154238095Y-78852380D01*
X154523809Y-78852380D02*
X154523809Y-77852380D01*
X154428571Y-77995238D01*
X154333333Y-78090476D01*
X154238095Y-78138095D01*
X155666666Y-77852380D02*
X155476190Y-77852380D01*
X155380952Y-77900000D01*
X155333333Y-77947619D01*
X155238095Y-78090476D01*
X155190476Y-78280952D01*
X155190476Y-78661904D01*
X155238095Y-78757142D01*
X155285714Y-78804761D01*
X155380952Y-78852380D01*
X155571428Y-78852380D01*
X155666666Y-78804761D01*
X155714285Y-78757142D01*
X155761904Y-78661904D01*
X155761904Y-78423809D01*
X155714285Y-78328571D01*
X155666666Y-78280952D01*
X155571428Y-78233333D01*
X155380952Y-78233333D01*
X155285714Y-78280952D01*
X155238095Y-78328571D01*
X155190476Y-78423809D01*
X154838095Y-75300000D02*
X154742857Y-75252380D01*
X154600000Y-75252380D01*
X154457142Y-75300000D01*
X154361904Y-75395238D01*
X154314285Y-75490476D01*
X154266666Y-75680952D01*
X154266666Y-75823809D01*
X154314285Y-76014285D01*
X154361904Y-76109523D01*
X154457142Y-76204761D01*
X154600000Y-76252380D01*
X154695238Y-76252380D01*
X154838095Y-76204761D01*
X154885714Y-76157142D01*
X154885714Y-75823809D01*
X154695238Y-75823809D01*
X155314285Y-76252380D02*
X155314285Y-75252380D01*
X155885714Y-76252380D01*
X155885714Y-75252380D01*
X156361904Y-76252380D02*
X156361904Y-75252380D01*
X156600000Y-75252380D01*
X156742857Y-75300000D01*
X156838095Y-75395238D01*
X156885714Y-75490476D01*
X156933333Y-75680952D01*
X156933333Y-75823809D01*
X156885714Y-76014285D01*
X156838095Y-76109523D01*
X156742857Y-76204761D01*
X156600000Y-76252380D01*
X156361904Y-76252380D01*
X138209523Y-76252380D02*
X137638095Y-76252380D01*
X137923809Y-76252380D02*
X137923809Y-75252380D01*
X137828571Y-75395238D01*
X137733333Y-75490476D01*
X137638095Y-75538095D01*
X138542857Y-75252380D02*
X139161904Y-75252380D01*
X138828571Y-75633333D01*
X138971428Y-75633333D01*
X139066666Y-75680952D01*
X139114285Y-75728571D01*
X139161904Y-75823809D01*
X139161904Y-76061904D01*
X139114285Y-76157142D01*
X139066666Y-76204761D01*
X138971428Y-76252380D01*
X138685714Y-76252380D01*
X138590476Y-76204761D01*
X138542857Y-76157142D01*
X137038095Y-90700000D02*
X136942857Y-90652380D01*
X136800000Y-90652380D01*
X136657142Y-90700000D01*
X136561904Y-90795238D01*
X136514285Y-90890476D01*
X136466666Y-91080952D01*
X136466666Y-91223809D01*
X136514285Y-91414285D01*
X136561904Y-91509523D01*
X136657142Y-91604761D01*
X136800000Y-91652380D01*
X136895238Y-91652380D01*
X137038095Y-91604761D01*
X137085714Y-91557142D01*
X137085714Y-91223809D01*
X136895238Y-91223809D01*
X137514285Y-91652380D02*
X137514285Y-90652380D01*
X138085714Y-91652380D01*
X138085714Y-90652380D01*
X138561904Y-91652380D02*
X138561904Y-90652380D01*
X138800000Y-90652380D01*
X138942857Y-90700000D01*
X139038095Y-90795238D01*
X139085714Y-90890476D01*
X139133333Y-91080952D01*
X139133333Y-91223809D01*
X139085714Y-91414285D01*
X139038095Y-91509523D01*
X138942857Y-91604761D01*
X138800000Y-91652380D01*
X138561904Y-91652380D01*
X196300000Y-73161904D02*
X196252380Y-73257142D01*
X196252380Y-73400000D01*
X196300000Y-73542857D01*
X196395238Y-73638095D01*
X196490476Y-73685714D01*
X196680952Y-73733333D01*
X196823809Y-73733333D01*
X197014285Y-73685714D01*
X197109523Y-73638095D01*
X197204761Y-73542857D01*
X197252380Y-73400000D01*
X197252380Y-73304761D01*
X197204761Y-73161904D01*
X197157142Y-73114285D01*
X196823809Y-73114285D01*
X196823809Y-73304761D01*
X197252380Y-72685714D02*
X196252380Y-72685714D01*
X197252380Y-72114285D01*
X196252380Y-72114285D01*
X197252380Y-71638095D02*
X196252380Y-71638095D01*
X196252380Y-71400000D01*
X196300000Y-71257142D01*
X196395238Y-71161904D01*
X196490476Y-71114285D01*
X196680952Y-71066666D01*
X196823809Y-71066666D01*
X197014285Y-71114285D01*
X197109523Y-71161904D01*
X197204761Y-71257142D01*
X197252380Y-71400000D01*
X197252380Y-71638095D01*
X154714285Y-108785714D02*
X154714285Y-109452380D01*
X154476190Y-108404761D02*
X154238095Y-109119047D01*
X154857142Y-109119047D01*
X155428571Y-108452380D02*
X155523809Y-108452380D01*
X155619047Y-108500000D01*
X155666666Y-108547619D01*
X155714285Y-108642857D01*
X155761904Y-108833333D01*
X155761904Y-109071428D01*
X155714285Y-109261904D01*
X155666666Y-109357142D01*
X155619047Y-109404761D01*
X155523809Y-109452380D01*
X155428571Y-109452380D01*
X155333333Y-109404761D01*
X155285714Y-109357142D01*
X155238095Y-109261904D01*
X155190476Y-109071428D01*
X155190476Y-108833333D01*
X155238095Y-108642857D01*
X155285714Y-108547619D01*
X155333333Y-108500000D01*
X155428571Y-108452380D01*
X136609523Y-66204761D02*
X136752380Y-66252380D01*
X136990476Y-66252380D01*
X137085714Y-66204761D01*
X137133333Y-66157142D01*
X137180952Y-66061904D01*
X137180952Y-65966666D01*
X137133333Y-65871428D01*
X137085714Y-65823809D01*
X136990476Y-65776190D01*
X136800000Y-65728571D01*
X136704761Y-65680952D01*
X136657142Y-65633333D01*
X136609523Y-65538095D01*
X136609523Y-65442857D01*
X136657142Y-65347619D01*
X136704761Y-65300000D01*
X136800000Y-65252380D01*
X137038095Y-65252380D01*
X137180952Y-65300000D01*
X138180952Y-66157142D02*
X138133333Y-66204761D01*
X137990476Y-66252380D01*
X137895238Y-66252380D01*
X137752380Y-66204761D01*
X137657142Y-66109523D01*
X137609523Y-66014285D01*
X137561904Y-65823809D01*
X137561904Y-65680952D01*
X137609523Y-65490476D01*
X137657142Y-65395238D01*
X137752380Y-65300000D01*
X137895238Y-65252380D01*
X137990476Y-65252380D01*
X138133333Y-65300000D01*
X138180952Y-65347619D01*
X139085714Y-66252380D02*
X138609523Y-66252380D01*
X138609523Y-65252380D01*
X169204761Y-100590476D02*
X169252380Y-100447619D01*
X169252380Y-100209523D01*
X169204761Y-100114285D01*
X169157142Y-100066666D01*
X169061904Y-100019047D01*
X168966666Y-100019047D01*
X168871428Y-100066666D01*
X168823809Y-100114285D01*
X168776190Y-100209523D01*
X168728571Y-100400000D01*
X168680952Y-100495238D01*
X168633333Y-100542857D01*
X168538095Y-100590476D01*
X168442857Y-100590476D01*
X168347619Y-100542857D01*
X168300000Y-100495238D01*
X168252380Y-100400000D01*
X168252380Y-100161904D01*
X168300000Y-100019047D01*
X169157142Y-99019047D02*
X169204761Y-99066666D01*
X169252380Y-99209523D01*
X169252380Y-99304761D01*
X169204761Y-99447619D01*
X169109523Y-99542857D01*
X169014285Y-99590476D01*
X168823809Y-99638095D01*
X168680952Y-99638095D01*
X168490476Y-99590476D01*
X168395238Y-99542857D01*
X168300000Y-99447619D01*
X168252380Y-99304761D01*
X168252380Y-99209523D01*
X168300000Y-99066666D01*
X168347619Y-99019047D01*
X169252380Y-98114285D02*
X169252380Y-98590476D01*
X168252380Y-98590476D01*
X135000000Y-60671428D02*
X135761904Y-60671428D01*
X135380952Y-61052380D02*
X135380952Y-60290476D01*
X136142857Y-60052380D02*
X136761904Y-60052380D01*
X136428571Y-60433333D01*
X136571428Y-60433333D01*
X136666666Y-60480952D01*
X136714285Y-60528571D01*
X136761904Y-60623809D01*
X136761904Y-60861904D01*
X136714285Y-60957142D01*
X136666666Y-61004761D01*
X136571428Y-61052380D01*
X136285714Y-61052380D01*
X136190476Y-61004761D01*
X136142857Y-60957142D01*
X137190476Y-60957142D02*
X137238095Y-61004761D01*
X137190476Y-61052380D01*
X137142857Y-61004761D01*
X137190476Y-60957142D01*
X137190476Y-61052380D01*
X137571428Y-60052380D02*
X138190476Y-60052380D01*
X137857142Y-60433333D01*
X138000000Y-60433333D01*
X138095238Y-60480952D01*
X138142857Y-60528571D01*
X138190476Y-60623809D01*
X138190476Y-60861904D01*
X138142857Y-60957142D01*
X138095238Y-61004761D01*
X138000000Y-61052380D01*
X137714285Y-61052380D01*
X137619047Y-61004761D01*
X137571428Y-60957142D01*
X138476190Y-60052380D02*
X138809523Y-61052380D01*
X139142857Y-60052380D01*
X124185714Y-63604761D02*
X124328571Y-63652380D01*
X124566666Y-63652380D01*
X124661904Y-63604761D01*
X124709523Y-63557142D01*
X124757142Y-63461904D01*
X124757142Y-63366666D01*
X124709523Y-63271428D01*
X124661904Y-63223809D01*
X124566666Y-63176190D01*
X124376190Y-63128571D01*
X124280952Y-63080952D01*
X124233333Y-63033333D01*
X124185714Y-62938095D01*
X124185714Y-62842857D01*
X124233333Y-62747619D01*
X124280952Y-62700000D01*
X124376190Y-62652380D01*
X124614285Y-62652380D01*
X124757142Y-62700000D01*
X125185714Y-63652380D02*
X125185714Y-62652380D01*
X125423809Y-62652380D01*
X125566666Y-62700000D01*
X125661904Y-62795238D01*
X125709523Y-62890476D01*
X125757142Y-63080952D01*
X125757142Y-63223809D01*
X125709523Y-63414285D01*
X125661904Y-63509523D01*
X125566666Y-63604761D01*
X125423809Y-63652380D01*
X125185714Y-63652380D01*
X126138095Y-63366666D02*
X126614285Y-63366666D01*
X126042857Y-63652380D02*
X126376190Y-62652380D01*
X126709523Y-63652380D01*
X154314285Y-60671428D02*
X155076190Y-60671428D01*
X154695238Y-61052380D02*
X154695238Y-60290476D01*
X156028571Y-60052380D02*
X155552380Y-60052380D01*
X155504761Y-60528571D01*
X155552380Y-60480952D01*
X155647619Y-60433333D01*
X155885714Y-60433333D01*
X155980952Y-60480952D01*
X156028571Y-60528571D01*
X156076190Y-60623809D01*
X156076190Y-60861904D01*
X156028571Y-60957142D01*
X155980952Y-61004761D01*
X155885714Y-61052380D01*
X155647619Y-61052380D01*
X155552380Y-61004761D01*
X155504761Y-60957142D01*
X156361904Y-60052380D02*
X156695238Y-61052380D01*
X157028571Y-60052380D01*
X209038095Y-61100000D02*
X208942857Y-61052380D01*
X208800000Y-61052380D01*
X208657142Y-61100000D01*
X208561904Y-61195238D01*
X208514285Y-61290476D01*
X208466666Y-61480952D01*
X208466666Y-61623809D01*
X208514285Y-61814285D01*
X208561904Y-61909523D01*
X208657142Y-62004761D01*
X208800000Y-62052380D01*
X208895238Y-62052380D01*
X209038095Y-62004761D01*
X209085714Y-61957142D01*
X209085714Y-61623809D01*
X208895238Y-61623809D01*
X209514285Y-62052380D02*
X209514285Y-61052380D01*
X210085714Y-62052380D01*
X210085714Y-61052380D01*
X210561904Y-62052380D02*
X210561904Y-61052380D01*
X210800000Y-61052380D01*
X210942857Y-61100000D01*
X211038095Y-61195238D01*
X211085714Y-61290476D01*
X211133333Y-61480952D01*
X211133333Y-61623809D01*
X211085714Y-61814285D01*
X211038095Y-61909523D01*
X210942857Y-62004761D01*
X210800000Y-62052380D01*
X210561904Y-62052380D01*
X154838095Y-65300000D02*
X154742857Y-65252380D01*
X154600000Y-65252380D01*
X154457142Y-65300000D01*
X154361904Y-65395238D01*
X154314285Y-65490476D01*
X154266666Y-65680952D01*
X154266666Y-65823809D01*
X154314285Y-66014285D01*
X154361904Y-66109523D01*
X154457142Y-66204761D01*
X154600000Y-66252380D01*
X154695238Y-66252380D01*
X154838095Y-66204761D01*
X154885714Y-66157142D01*
X154885714Y-65823809D01*
X154695238Y-65823809D01*
X155314285Y-66252380D02*
X155314285Y-65252380D01*
X155885714Y-66252380D01*
X155885714Y-65252380D01*
X156361904Y-66252380D02*
X156361904Y-65252380D01*
X156600000Y-65252380D01*
X156742857Y-65300000D01*
X156838095Y-65395238D01*
X156885714Y-65490476D01*
X156933333Y-65680952D01*
X156933333Y-65823809D01*
X156885714Y-66014285D01*
X156838095Y-66109523D01*
X156742857Y-66204761D01*
X156600000Y-66252380D01*
X156361904Y-66252380D01*
X154438095Y-88147619D02*
X154485714Y-88100000D01*
X154580952Y-88052380D01*
X154819047Y-88052380D01*
X154914285Y-88100000D01*
X154961904Y-88147619D01*
X155009523Y-88242857D01*
X155009523Y-88338095D01*
X154961904Y-88480952D01*
X154390476Y-89052380D01*
X155009523Y-89052380D01*
X155866666Y-88385714D02*
X155866666Y-89052380D01*
X155628571Y-88004761D02*
X155390476Y-88719047D01*
X156009523Y-88719047D01*
X137590476Y-103252380D02*
X138209523Y-103252380D01*
X137876190Y-103633333D01*
X138019047Y-103633333D01*
X138114285Y-103680952D01*
X138161904Y-103728571D01*
X138209523Y-103823809D01*
X138209523Y-104061904D01*
X138161904Y-104157142D01*
X138114285Y-104204761D01*
X138019047Y-104252380D01*
X137733333Y-104252380D01*
X137638095Y-104204761D01*
X137590476Y-104157142D01*
X139114285Y-103252380D02*
X138638095Y-103252380D01*
X138590476Y-103728571D01*
X138638095Y-103680952D01*
X138733333Y-103633333D01*
X138971428Y-103633333D01*
X139066666Y-103680952D01*
X139114285Y-103728571D01*
X139161904Y-103823809D01*
X139161904Y-104061904D01*
X139114285Y-104157142D01*
X139066666Y-104204761D01*
X138971428Y-104252380D01*
X138733333Y-104252380D01*
X138638095Y-104204761D01*
X138590476Y-104157142D01*
X154504761Y-68080952D02*
X154409523Y-68033333D01*
X154361904Y-67985714D01*
X154314285Y-67890476D01*
X154314285Y-67842857D01*
X154361904Y-67747619D01*
X154409523Y-67700000D01*
X154504761Y-67652380D01*
X154695238Y-67652380D01*
X154790476Y-67700000D01*
X154838095Y-67747619D01*
X154885714Y-67842857D01*
X154885714Y-67890476D01*
X154838095Y-67985714D01*
X154790476Y-68033333D01*
X154695238Y-68080952D01*
X154504761Y-68080952D01*
X154409523Y-68128571D01*
X154361904Y-68176190D01*
X154314285Y-68271428D01*
X154314285Y-68461904D01*
X154361904Y-68557142D01*
X154409523Y-68604761D01*
X154504761Y-68652380D01*
X154695238Y-68652380D01*
X154790476Y-68604761D01*
X154838095Y-68557142D01*
X154885714Y-68461904D01*
X154885714Y-68271428D01*
X154838095Y-68176190D01*
X154790476Y-68128571D01*
X154695238Y-68080952D01*
X204457142Y-69447380D02*
X204457142Y-70161666D01*
X204409523Y-70304523D01*
X204314285Y-70399761D01*
X204171428Y-70447380D01*
X204076190Y-70447380D01*
X205314285Y-70399761D02*
X205219047Y-70447380D01*
X205028571Y-70447380D01*
X204933333Y-70399761D01*
X204885714Y-70304523D01*
X204885714Y-69923571D01*
X204933333Y-69828333D01*
X205028571Y-69780714D01*
X205219047Y-69780714D01*
X205314285Y-69828333D01*
X205361904Y-69923571D01*
X205361904Y-70018809D01*
X204885714Y-70114047D01*
X205647619Y-69780714D02*
X206028571Y-69780714D01*
X205790476Y-69447380D02*
X205790476Y-70304523D01*
X205838095Y-70399761D01*
X205933333Y-70447380D01*
X206028571Y-70447380D01*
X206314285Y-70399761D02*
X206409523Y-70447380D01*
X206600000Y-70447380D01*
X206695238Y-70399761D01*
X206742857Y-70304523D01*
X206742857Y-70256904D01*
X206695238Y-70161666D01*
X206600000Y-70114047D01*
X206457142Y-70114047D01*
X206361904Y-70066428D01*
X206314285Y-69971190D01*
X206314285Y-69923571D01*
X206361904Y-69828333D01*
X206457142Y-69780714D01*
X206600000Y-69780714D01*
X206695238Y-69828333D01*
X207314285Y-70447380D02*
X207219047Y-70399761D01*
X207171428Y-70352142D01*
X207123809Y-70256904D01*
X207123809Y-69971190D01*
X207171428Y-69875952D01*
X207219047Y-69828333D01*
X207314285Y-69780714D01*
X207457142Y-69780714D01*
X207552380Y-69828333D01*
X207600000Y-69875952D01*
X207647619Y-69971190D01*
X207647619Y-70256904D01*
X207600000Y-70352142D01*
X207552380Y-70399761D01*
X207457142Y-70447380D01*
X207314285Y-70447380D01*
X208076190Y-69780714D02*
X208076190Y-70447380D01*
X208076190Y-69875952D02*
X208123809Y-69828333D01*
X208219047Y-69780714D01*
X208361904Y-69780714D01*
X208457142Y-69828333D01*
X208504761Y-69923571D01*
X208504761Y-70447380D01*
X209742857Y-70447380D02*
X209742857Y-69447380D01*
X210314285Y-70447380D01*
X210314285Y-69447380D01*
X211219047Y-70447380D02*
X211219047Y-69923571D01*
X211171428Y-69828333D01*
X211076190Y-69780714D01*
X210885714Y-69780714D01*
X210790476Y-69828333D01*
X211219047Y-70399761D02*
X211123809Y-70447380D01*
X210885714Y-70447380D01*
X210790476Y-70399761D01*
X210742857Y-70304523D01*
X210742857Y-70209285D01*
X210790476Y-70114047D01*
X210885714Y-70066428D01*
X211123809Y-70066428D01*
X211219047Y-70018809D01*
X211695238Y-69780714D02*
X211695238Y-70447380D01*
X211695238Y-69875952D02*
X211742857Y-69828333D01*
X211838095Y-69780714D01*
X211980952Y-69780714D01*
X212076190Y-69828333D01*
X212123809Y-69923571D01*
X212123809Y-70447380D01*
X212742857Y-70447380D02*
X212647619Y-70399761D01*
X212600000Y-70352142D01*
X212552380Y-70256904D01*
X212552380Y-69971190D01*
X212600000Y-69875952D01*
X212647619Y-69828333D01*
X212742857Y-69780714D01*
X212885714Y-69780714D01*
X212980952Y-69828333D01*
X213028571Y-69875952D01*
X213076190Y-69971190D01*
X213076190Y-70256904D01*
X213028571Y-70352142D01*
X212980952Y-70399761D01*
X212885714Y-70447380D01*
X212742857Y-70447380D01*
X206623809Y-72057380D02*
X206623809Y-71057380D01*
X207004761Y-71057380D01*
X207100000Y-71105000D01*
X207147619Y-71152619D01*
X207195238Y-71247857D01*
X207195238Y-71390714D01*
X207147619Y-71485952D01*
X207100000Y-71533571D01*
X207004761Y-71581190D01*
X206623809Y-71581190D01*
X207766666Y-72057380D02*
X207671428Y-72009761D01*
X207623809Y-71962142D01*
X207576190Y-71866904D01*
X207576190Y-71581190D01*
X207623809Y-71485952D01*
X207671428Y-71438333D01*
X207766666Y-71390714D01*
X207909523Y-71390714D01*
X208004761Y-71438333D01*
X208052380Y-71485952D01*
X208100000Y-71581190D01*
X208100000Y-71866904D01*
X208052380Y-71962142D01*
X208004761Y-72009761D01*
X207909523Y-72057380D01*
X207766666Y-72057380D01*
X208433333Y-71390714D02*
X208623809Y-72057380D01*
X208814285Y-71581190D01*
X209004761Y-72057380D01*
X209195238Y-71390714D01*
X209957142Y-72009761D02*
X209861904Y-72057380D01*
X209671428Y-72057380D01*
X209576190Y-72009761D01*
X209528571Y-71914523D01*
X209528571Y-71533571D01*
X209576190Y-71438333D01*
X209671428Y-71390714D01*
X209861904Y-71390714D01*
X209957142Y-71438333D01*
X210004761Y-71533571D01*
X210004761Y-71628809D01*
X209528571Y-71724047D01*
X210433333Y-72057380D02*
X210433333Y-71390714D01*
X210433333Y-71581190D02*
X210480952Y-71485952D01*
X210528571Y-71438333D01*
X210623809Y-71390714D01*
X210719047Y-71390714D01*
X137638095Y-85547619D02*
X137685714Y-85500000D01*
X137780952Y-85452380D01*
X138019047Y-85452380D01*
X138114285Y-85500000D01*
X138161904Y-85547619D01*
X138209523Y-85642857D01*
X138209523Y-85738095D01*
X138161904Y-85880952D01*
X137590476Y-86452380D01*
X138209523Y-86452380D01*
X139161904Y-86452380D02*
X138590476Y-86452380D01*
X138876190Y-86452380D02*
X138876190Y-85452380D01*
X138780952Y-85595238D01*
X138685714Y-85690476D01*
X138590476Y-85738095D01*
X154438095Y-85547619D02*
X154485714Y-85500000D01*
X154580952Y-85452380D01*
X154819047Y-85452380D01*
X154914285Y-85500000D01*
X154961904Y-85547619D01*
X155009523Y-85642857D01*
X155009523Y-85738095D01*
X154961904Y-85880952D01*
X154390476Y-86452380D01*
X155009523Y-86452380D01*
X155390476Y-85547619D02*
X155438095Y-85500000D01*
X155533333Y-85452380D01*
X155771428Y-85452380D01*
X155866666Y-85500000D01*
X155914285Y-85547619D01*
X155961904Y-85642857D01*
X155961904Y-85738095D01*
X155914285Y-85880952D01*
X155342857Y-86452380D01*
X155961904Y-86452380D01*
X129221309Y-114447380D02*
X129221309Y-115161666D01*
X129173690Y-115304523D01*
X129078452Y-115399761D01*
X128935595Y-115447380D01*
X128840357Y-115447380D01*
X130078452Y-115399761D02*
X129983214Y-115447380D01*
X129792738Y-115447380D01*
X129697500Y-115399761D01*
X129649880Y-115304523D01*
X129649880Y-114923571D01*
X129697500Y-114828333D01*
X129792738Y-114780714D01*
X129983214Y-114780714D01*
X130078452Y-114828333D01*
X130126071Y-114923571D01*
X130126071Y-115018809D01*
X129649880Y-115114047D01*
X130411785Y-114780714D02*
X130792738Y-114780714D01*
X130554642Y-114447380D02*
X130554642Y-115304523D01*
X130602261Y-115399761D01*
X130697500Y-115447380D01*
X130792738Y-115447380D01*
X131459404Y-114923571D02*
X131602261Y-114971190D01*
X131649880Y-115018809D01*
X131697500Y-115114047D01*
X131697500Y-115256904D01*
X131649880Y-115352142D01*
X131602261Y-115399761D01*
X131507023Y-115447380D01*
X131126071Y-115447380D01*
X131126071Y-114447380D01*
X131459404Y-114447380D01*
X131554642Y-114495000D01*
X131602261Y-114542619D01*
X131649880Y-114637857D01*
X131649880Y-114733095D01*
X131602261Y-114828333D01*
X131554642Y-114875952D01*
X131459404Y-114923571D01*
X131126071Y-114923571D01*
X132268928Y-115447380D02*
X132173690Y-115399761D01*
X132126071Y-115352142D01*
X132078452Y-115256904D01*
X132078452Y-114971190D01*
X132126071Y-114875952D01*
X132173690Y-114828333D01*
X132268928Y-114780714D01*
X132411785Y-114780714D01*
X132507023Y-114828333D01*
X132554642Y-114875952D01*
X132602261Y-114971190D01*
X132602261Y-115256904D01*
X132554642Y-115352142D01*
X132507023Y-115399761D01*
X132411785Y-115447380D01*
X132268928Y-115447380D01*
X132887976Y-114780714D02*
X133268928Y-114780714D01*
X133030833Y-114447380D02*
X133030833Y-115304523D01*
X133078452Y-115399761D01*
X133173690Y-115447380D01*
X133268928Y-115447380D01*
X134364166Y-114923571D02*
X134697500Y-114923571D01*
X134840357Y-115447380D02*
X134364166Y-115447380D01*
X134364166Y-114447380D01*
X134840357Y-114447380D01*
X135173690Y-115447380D02*
X135697500Y-114780714D01*
X135173690Y-114780714D02*
X135697500Y-115447380D01*
X135935595Y-114780714D02*
X136316547Y-114780714D01*
X136078452Y-114447380D02*
X136078452Y-115304523D01*
X136126071Y-115399761D01*
X136221309Y-115447380D01*
X136316547Y-115447380D01*
X137030833Y-115399761D02*
X136935595Y-115447380D01*
X136745119Y-115447380D01*
X136649880Y-115399761D01*
X136602261Y-115304523D01*
X136602261Y-114923571D01*
X136649880Y-114828333D01*
X136745119Y-114780714D01*
X136935595Y-114780714D01*
X137030833Y-114828333D01*
X137078452Y-114923571D01*
X137078452Y-115018809D01*
X136602261Y-115114047D01*
X137507023Y-114780714D02*
X137507023Y-115447380D01*
X137507023Y-114875952D02*
X137554642Y-114828333D01*
X137649880Y-114780714D01*
X137792738Y-114780714D01*
X137887976Y-114828333D01*
X137935595Y-114923571D01*
X137935595Y-115447380D01*
X138364166Y-115399761D02*
X138459404Y-115447380D01*
X138649880Y-115447380D01*
X138745119Y-115399761D01*
X138792738Y-115304523D01*
X138792738Y-115256904D01*
X138745119Y-115161666D01*
X138649880Y-115114047D01*
X138507023Y-115114047D01*
X138411785Y-115066428D01*
X138364166Y-114971190D01*
X138364166Y-114923571D01*
X138411785Y-114828333D01*
X138507023Y-114780714D01*
X138649880Y-114780714D01*
X138745119Y-114828333D01*
X139221309Y-115447380D02*
X139221309Y-114780714D01*
X139221309Y-114447380D02*
X139173690Y-114495000D01*
X139221309Y-114542619D01*
X139268928Y-114495000D01*
X139221309Y-114447380D01*
X139221309Y-114542619D01*
X139840357Y-115447380D02*
X139745119Y-115399761D01*
X139697500Y-115352142D01*
X139649880Y-115256904D01*
X139649880Y-114971190D01*
X139697500Y-114875952D01*
X139745119Y-114828333D01*
X139840357Y-114780714D01*
X139983214Y-114780714D01*
X140078452Y-114828333D01*
X140126071Y-114875952D01*
X140173690Y-114971190D01*
X140173690Y-115256904D01*
X140126071Y-115352142D01*
X140078452Y-115399761D01*
X139983214Y-115447380D01*
X139840357Y-115447380D01*
X140602261Y-114780714D02*
X140602261Y-115447380D01*
X140602261Y-114875952D02*
X140649880Y-114828333D01*
X140745119Y-114780714D01*
X140887976Y-114780714D01*
X140983214Y-114828333D01*
X141030833Y-114923571D01*
X141030833Y-115447380D01*
X142602261Y-114923571D02*
X142745119Y-114971190D01*
X142792738Y-115018809D01*
X142840357Y-115114047D01*
X142840357Y-115256904D01*
X142792738Y-115352142D01*
X142745119Y-115399761D01*
X142649880Y-115447380D01*
X142268928Y-115447380D01*
X142268928Y-114447380D01*
X142602261Y-114447380D01*
X142697500Y-114495000D01*
X142745119Y-114542619D01*
X142792738Y-114637857D01*
X142792738Y-114733095D01*
X142745119Y-114828333D01*
X142697500Y-114875952D01*
X142602261Y-114923571D01*
X142268928Y-114923571D01*
X143411785Y-115447380D02*
X143316547Y-115399761D01*
X143268928Y-115352142D01*
X143221309Y-115256904D01*
X143221309Y-114971190D01*
X143268928Y-114875952D01*
X143316547Y-114828333D01*
X143411785Y-114780714D01*
X143554642Y-114780714D01*
X143649880Y-114828333D01*
X143697500Y-114875952D01*
X143745119Y-114971190D01*
X143745119Y-115256904D01*
X143697500Y-115352142D01*
X143649880Y-115399761D01*
X143554642Y-115447380D01*
X143411785Y-115447380D01*
X144602261Y-115447380D02*
X144602261Y-114923571D01*
X144554642Y-114828333D01*
X144459404Y-114780714D01*
X144268928Y-114780714D01*
X144173690Y-114828333D01*
X144602261Y-115399761D02*
X144507023Y-115447380D01*
X144268928Y-115447380D01*
X144173690Y-115399761D01*
X144126071Y-115304523D01*
X144126071Y-115209285D01*
X144173690Y-115114047D01*
X144268928Y-115066428D01*
X144507023Y-115066428D01*
X144602261Y-115018809D01*
X145078452Y-115447380D02*
X145078452Y-114780714D01*
X145078452Y-114971190D02*
X145126071Y-114875952D01*
X145173690Y-114828333D01*
X145268928Y-114780714D01*
X145364166Y-114780714D01*
X146126071Y-115447380D02*
X146126071Y-114447380D01*
X146126071Y-115399761D02*
X146030833Y-115447380D01*
X145840357Y-115447380D01*
X145745119Y-115399761D01*
X145697500Y-115352142D01*
X145649880Y-115256904D01*
X145649880Y-114971190D01*
X145697500Y-114875952D01*
X145745119Y-114828333D01*
X145840357Y-114780714D01*
X146030833Y-114780714D01*
X146126071Y-114828333D01*
X147268928Y-114780714D02*
X147507023Y-115447380D01*
X147745119Y-114780714D01*
X148126071Y-115352142D02*
X148173690Y-115399761D01*
X148126071Y-115447380D01*
X148078452Y-115399761D01*
X148126071Y-115352142D01*
X148126071Y-115447380D01*
X148792738Y-114447380D02*
X148887976Y-114447380D01*
X148983214Y-114495000D01*
X149030833Y-114542619D01*
X149078452Y-114637857D01*
X149126071Y-114828333D01*
X149126071Y-115066428D01*
X149078452Y-115256904D01*
X149030833Y-115352142D01*
X148983214Y-115399761D01*
X148887976Y-115447380D01*
X148792738Y-115447380D01*
X148697500Y-115399761D01*
X148649880Y-115352142D01*
X148602261Y-115256904D01*
X148554642Y-115066428D01*
X148554642Y-114828333D01*
X148602261Y-114637857D01*
X148649880Y-114542619D01*
X148697500Y-114495000D01*
X148792738Y-114447380D01*
X149554642Y-115352142D02*
X149602261Y-115399761D01*
X149554642Y-115447380D01*
X149507023Y-115399761D01*
X149554642Y-115352142D01*
X149554642Y-115447380D01*
X150554642Y-115447380D02*
X149983214Y-115447380D01*
X150268928Y-115447380D02*
X150268928Y-114447380D01*
X150173690Y-114590238D01*
X150078452Y-114685476D01*
X149983214Y-114733095D01*
X151697500Y-114542619D02*
X151745119Y-114495000D01*
X151840357Y-114447380D01*
X152078452Y-114447380D01*
X152173690Y-114495000D01*
X152221309Y-114542619D01*
X152268928Y-114637857D01*
X152268928Y-114733095D01*
X152221309Y-114875952D01*
X151649880Y-115447380D01*
X152268928Y-115447380D01*
X152887976Y-114447380D02*
X152983214Y-114447380D01*
X153078452Y-114495000D01*
X153126071Y-114542619D01*
X153173690Y-114637857D01*
X153221309Y-114828333D01*
X153221309Y-115066428D01*
X153173690Y-115256904D01*
X153126071Y-115352142D01*
X153078452Y-115399761D01*
X152983214Y-115447380D01*
X152887976Y-115447380D01*
X152792738Y-115399761D01*
X152745119Y-115352142D01*
X152697500Y-115256904D01*
X152649880Y-115066428D01*
X152649880Y-114828333D01*
X152697500Y-114637857D01*
X152745119Y-114542619D01*
X152792738Y-114495000D01*
X152887976Y-114447380D01*
X153602261Y-114542619D02*
X153649880Y-114495000D01*
X153745119Y-114447380D01*
X153983214Y-114447380D01*
X154078452Y-114495000D01*
X154126071Y-114542619D01*
X154173690Y-114637857D01*
X154173690Y-114733095D01*
X154126071Y-114875952D01*
X153554642Y-115447380D01*
X154173690Y-115447380D01*
X154507023Y-114447380D02*
X155126071Y-114447380D01*
X154792738Y-114828333D01*
X154935595Y-114828333D01*
X155030833Y-114875952D01*
X155078452Y-114923571D01*
X155126071Y-115018809D01*
X155126071Y-115256904D01*
X155078452Y-115352142D01*
X155030833Y-115399761D01*
X154935595Y-115447380D01*
X154649880Y-115447380D01*
X154554642Y-115399761D01*
X154507023Y-115352142D01*
X156602261Y-114447380D02*
X156602261Y-115161666D01*
X156554642Y-115304523D01*
X156459404Y-115399761D01*
X156316547Y-115447380D01*
X156221309Y-115447380D01*
X157507023Y-115447380D02*
X157507023Y-114923571D01*
X157459404Y-114828333D01*
X157364166Y-114780714D01*
X157173690Y-114780714D01*
X157078452Y-114828333D01*
X157507023Y-115399761D02*
X157411785Y-115447380D01*
X157173690Y-115447380D01*
X157078452Y-115399761D01*
X157030833Y-115304523D01*
X157030833Y-115209285D01*
X157078452Y-115114047D01*
X157173690Y-115066428D01*
X157411785Y-115066428D01*
X157507023Y-115018809D01*
X157983214Y-114780714D02*
X157983214Y-115447380D01*
X157983214Y-114875952D02*
X158030833Y-114828333D01*
X158126071Y-114780714D01*
X158268928Y-114780714D01*
X158364166Y-114828333D01*
X158411785Y-114923571D01*
X158411785Y-115447380D01*
X158887976Y-115352142D02*
X158935595Y-115399761D01*
X158887976Y-115447380D01*
X158840357Y-115399761D01*
X158887976Y-115352142D01*
X158887976Y-115447380D01*
X128935595Y-117057380D02*
X128935595Y-116057380D01*
X129364166Y-117057380D02*
X129364166Y-116533571D01*
X129316547Y-116438333D01*
X129221309Y-116390714D01*
X129078452Y-116390714D01*
X128983214Y-116438333D01*
X128935595Y-116485952D01*
X129697500Y-116390714D02*
X130078452Y-116390714D01*
X129840357Y-116057380D02*
X129840357Y-116914523D01*
X129887976Y-117009761D01*
X129983214Y-117057380D01*
X130078452Y-117057380D01*
X130268928Y-116390714D02*
X130649880Y-116390714D01*
X130411785Y-116057380D02*
X130411785Y-116914523D01*
X130459404Y-117009761D01*
X130554642Y-117057380D01*
X130649880Y-117057380D01*
X130983214Y-116390714D02*
X130983214Y-117390714D01*
X130983214Y-116438333D02*
X131078452Y-116390714D01*
X131268928Y-116390714D01*
X131364166Y-116438333D01*
X131411785Y-116485952D01*
X131459404Y-116581190D01*
X131459404Y-116866904D01*
X131411785Y-116962142D01*
X131364166Y-117009761D01*
X131268928Y-117057380D01*
X131078452Y-117057380D01*
X130983214Y-117009761D01*
X131840357Y-117009761D02*
X131935595Y-117057380D01*
X132126071Y-117057380D01*
X132221309Y-117009761D01*
X132268928Y-116914523D01*
X132268928Y-116866904D01*
X132221309Y-116771666D01*
X132126071Y-116724047D01*
X131983214Y-116724047D01*
X131887976Y-116676428D01*
X131840357Y-116581190D01*
X131840357Y-116533571D01*
X131887976Y-116438333D01*
X131983214Y-116390714D01*
X132126071Y-116390714D01*
X132221309Y-116438333D01*
X132697500Y-116962142D02*
X132745119Y-117009761D01*
X132697500Y-117057380D01*
X132649880Y-117009761D01*
X132697500Y-116962142D01*
X132697500Y-117057380D01*
X132697500Y-116438333D02*
X132745119Y-116485952D01*
X132697500Y-116533571D01*
X132649880Y-116485952D01*
X132697500Y-116438333D01*
X132697500Y-116533571D01*
X133887976Y-116009761D02*
X133030833Y-117295476D01*
X134935595Y-116009761D02*
X134078452Y-117295476D01*
X135697500Y-116390714D02*
X135697500Y-117200238D01*
X135649880Y-117295476D01*
X135602261Y-117343095D01*
X135507023Y-117390714D01*
X135364166Y-117390714D01*
X135268928Y-117343095D01*
X135697500Y-117009761D02*
X135602261Y-117057380D01*
X135411785Y-117057380D01*
X135316547Y-117009761D01*
X135268928Y-116962142D01*
X135221309Y-116866904D01*
X135221309Y-116581190D01*
X135268928Y-116485952D01*
X135316547Y-116438333D01*
X135411785Y-116390714D01*
X135602261Y-116390714D01*
X135697500Y-116438333D01*
X136173690Y-117057380D02*
X136173690Y-116390714D01*
X136173690Y-116057380D02*
X136126071Y-116105000D01*
X136173690Y-116152619D01*
X136221309Y-116105000D01*
X136173690Y-116057380D01*
X136173690Y-116152619D01*
X136507023Y-116390714D02*
X136887976Y-116390714D01*
X136649880Y-116057380D02*
X136649880Y-116914523D01*
X136697500Y-117009761D01*
X136792738Y-117057380D01*
X136887976Y-117057380D01*
X137221309Y-117057380D02*
X137221309Y-116057380D01*
X137649880Y-117057380D02*
X137649880Y-116533571D01*
X137602261Y-116438333D01*
X137507023Y-116390714D01*
X137364166Y-116390714D01*
X137268928Y-116438333D01*
X137221309Y-116485952D01*
X138554642Y-116390714D02*
X138554642Y-117057380D01*
X138126071Y-116390714D02*
X138126071Y-116914523D01*
X138173690Y-117009761D01*
X138268928Y-117057380D01*
X138411785Y-117057380D01*
X138507023Y-117009761D01*
X138554642Y-116962142D01*
X139030833Y-117057380D02*
X139030833Y-116057380D01*
X139030833Y-116438333D02*
X139126071Y-116390714D01*
X139316547Y-116390714D01*
X139411785Y-116438333D01*
X139459404Y-116485952D01*
X139507023Y-116581190D01*
X139507023Y-116866904D01*
X139459404Y-116962142D01*
X139411785Y-117009761D01*
X139316547Y-117057380D01*
X139126071Y-117057380D01*
X139030833Y-117009761D01*
X139935595Y-116962142D02*
X139983214Y-117009761D01*
X139935595Y-117057380D01*
X139887976Y-117009761D01*
X139935595Y-116962142D01*
X139935595Y-117057380D01*
X140840357Y-117009761D02*
X140745119Y-117057380D01*
X140554642Y-117057380D01*
X140459404Y-117009761D01*
X140411785Y-116962142D01*
X140364166Y-116866904D01*
X140364166Y-116581190D01*
X140411785Y-116485952D01*
X140459404Y-116438333D01*
X140554642Y-116390714D01*
X140745119Y-116390714D01*
X140840357Y-116438333D01*
X141411785Y-117057380D02*
X141316547Y-117009761D01*
X141268928Y-116962142D01*
X141221309Y-116866904D01*
X141221309Y-116581190D01*
X141268928Y-116485952D01*
X141316547Y-116438333D01*
X141411785Y-116390714D01*
X141554642Y-116390714D01*
X141649880Y-116438333D01*
X141697500Y-116485952D01*
X141745119Y-116581190D01*
X141745119Y-116866904D01*
X141697500Y-116962142D01*
X141649880Y-117009761D01*
X141554642Y-117057380D01*
X141411785Y-117057380D01*
X142173690Y-117057380D02*
X142173690Y-116390714D01*
X142173690Y-116485952D02*
X142221309Y-116438333D01*
X142316547Y-116390714D01*
X142459404Y-116390714D01*
X142554642Y-116438333D01*
X142602261Y-116533571D01*
X142602261Y-117057380D01*
X142602261Y-116533571D02*
X142649880Y-116438333D01*
X142745119Y-116390714D01*
X142887976Y-116390714D01*
X142983214Y-116438333D01*
X143030833Y-116533571D01*
X143030833Y-117057380D01*
X144221309Y-116009761D02*
X143364166Y-117295476D01*
X144554642Y-116390714D02*
X144554642Y-117057380D01*
X144554642Y-116485952D02*
X144602261Y-116438333D01*
X144697500Y-116390714D01*
X144840357Y-116390714D01*
X144935595Y-116438333D01*
X144983214Y-116533571D01*
X144983214Y-117057380D01*
X145887976Y-117057380D02*
X145887976Y-116533571D01*
X145840357Y-116438333D01*
X145745119Y-116390714D01*
X145554642Y-116390714D01*
X145459404Y-116438333D01*
X145887976Y-117009761D02*
X145792738Y-117057380D01*
X145554642Y-117057380D01*
X145459404Y-117009761D01*
X145411785Y-116914523D01*
X145411785Y-116819285D01*
X145459404Y-116724047D01*
X145554642Y-116676428D01*
X145792738Y-116676428D01*
X145887976Y-116628809D01*
X146507023Y-117057380D02*
X146411785Y-117009761D01*
X146364166Y-116962142D01*
X146316547Y-116866904D01*
X146316547Y-116581190D01*
X146364166Y-116485952D01*
X146411785Y-116438333D01*
X146507023Y-116390714D01*
X146649880Y-116390714D01*
X146745119Y-116438333D01*
X146792738Y-116485952D01*
X146840357Y-116581190D01*
X146840357Y-116866904D01*
X146792738Y-116962142D01*
X146745119Y-117009761D01*
X146649880Y-117057380D01*
X146507023Y-117057380D01*
X147173690Y-116390714D02*
X147411785Y-117057380D01*
X147649880Y-116390714D02*
X147411785Y-117057380D01*
X147316547Y-117295476D01*
X147268928Y-117343095D01*
X147173690Y-117390714D01*
X148459404Y-117057380D02*
X148459404Y-116533571D01*
X148411785Y-116438333D01*
X148316547Y-116390714D01*
X148126071Y-116390714D01*
X148030833Y-116438333D01*
X148459404Y-117009761D02*
X148364166Y-117057380D01*
X148126071Y-117057380D01*
X148030833Y-117009761D01*
X147983214Y-116914523D01*
X147983214Y-116819285D01*
X148030833Y-116724047D01*
X148126071Y-116676428D01*
X148364166Y-116676428D01*
X148459404Y-116628809D01*
X149459404Y-117057380D02*
X148887976Y-117057380D01*
X149173690Y-117057380D02*
X149173690Y-116057380D01*
X149078452Y-116200238D01*
X148983214Y-116295476D01*
X148887976Y-116343095D01*
X150411785Y-117057380D02*
X149840357Y-117057380D01*
X150126071Y-117057380D02*
X150126071Y-116057380D01*
X150030833Y-116200238D01*
X149935595Y-116295476D01*
X149840357Y-116343095D01*
X151364166Y-117057380D02*
X150792738Y-117057380D01*
X151078452Y-117057380D02*
X151078452Y-116057380D01*
X150983214Y-116200238D01*
X150887976Y-116295476D01*
X150792738Y-116343095D01*
X151983214Y-116057380D02*
X152078452Y-116057380D01*
X152173690Y-116105000D01*
X152221309Y-116152619D01*
X152268928Y-116247857D01*
X152316547Y-116438333D01*
X152316547Y-116676428D01*
X152268928Y-116866904D01*
X152221309Y-116962142D01*
X152173690Y-117009761D01*
X152078452Y-117057380D01*
X151983214Y-117057380D01*
X151887976Y-117009761D01*
X151840357Y-116962142D01*
X151792738Y-116866904D01*
X151745119Y-116676428D01*
X151745119Y-116438333D01*
X151792738Y-116247857D01*
X151840357Y-116152619D01*
X151887976Y-116105000D01*
X151983214Y-116057380D01*
X153459404Y-116009761D02*
X152602261Y-117295476D01*
X153792738Y-116390714D02*
X153792738Y-117247857D01*
X153745119Y-117343095D01*
X153649880Y-117390714D01*
X153602261Y-117390714D01*
X153792738Y-116057380D02*
X153745119Y-116105000D01*
X153792738Y-116152619D01*
X153840357Y-116105000D01*
X153792738Y-116057380D01*
X153792738Y-116152619D01*
X154649880Y-117009761D02*
X154554642Y-117057380D01*
X154364166Y-117057380D01*
X154268928Y-117009761D01*
X154221309Y-116914523D01*
X154221309Y-116533571D01*
X154268928Y-116438333D01*
X154364166Y-116390714D01*
X154554642Y-116390714D01*
X154649880Y-116438333D01*
X154697500Y-116533571D01*
X154697500Y-116628809D01*
X154221309Y-116724047D01*
X154983214Y-116390714D02*
X155364166Y-116390714D01*
X155126071Y-116057380D02*
X155126071Y-116914523D01*
X155173690Y-117009761D01*
X155268928Y-117057380D01*
X155364166Y-117057380D01*
X155697500Y-117057380D02*
X155697500Y-116057380D01*
X155697500Y-116438333D02*
X155792738Y-116390714D01*
X155983214Y-116390714D01*
X156078452Y-116438333D01*
X156126071Y-116485952D01*
X156173690Y-116581190D01*
X156173690Y-116866904D01*
X156126071Y-116962142D01*
X156078452Y-117009761D01*
X155983214Y-117057380D01*
X155792738Y-117057380D01*
X155697500Y-117009761D01*
X156745119Y-117057380D02*
X156649880Y-117009761D01*
X156602261Y-116962142D01*
X156554642Y-116866904D01*
X156554642Y-116581190D01*
X156602261Y-116485952D01*
X156649880Y-116438333D01*
X156745119Y-116390714D01*
X156887976Y-116390714D01*
X156983214Y-116438333D01*
X157030833Y-116485952D01*
X157078452Y-116581190D01*
X157078452Y-116866904D01*
X157030833Y-116962142D01*
X156983214Y-117009761D01*
X156887976Y-117057380D01*
X156745119Y-117057380D01*
X157364166Y-116390714D02*
X157745119Y-116390714D01*
X157507023Y-116057380D02*
X157507023Y-116914523D01*
X157554642Y-117009761D01*
X157649880Y-117057380D01*
X157745119Y-117057380D01*
X157840357Y-117152619D02*
X158602261Y-117152619D01*
X158745119Y-116057380D02*
X159364166Y-116057380D01*
X159030833Y-116438333D01*
X159173690Y-116438333D01*
X159268928Y-116485952D01*
X159316547Y-116533571D01*
X159364166Y-116628809D01*
X159364166Y-116866904D01*
X159316547Y-116962142D01*
X159268928Y-117009761D01*
X159173690Y-117057380D01*
X158887976Y-117057380D01*
X158792738Y-117009761D01*
X158745119Y-116962142D01*
X160221309Y-117057380D02*
X160221309Y-116057380D01*
X160221309Y-117009761D02*
X160126071Y-117057380D01*
X159935595Y-117057380D01*
X159840357Y-117009761D01*
X159792738Y-116962142D01*
X159745119Y-116866904D01*
X159745119Y-116581190D01*
X159792738Y-116485952D01*
X159840357Y-116438333D01*
X159935595Y-116390714D01*
X160126071Y-116390714D01*
X160221309Y-116438333D01*
X160459404Y-117152619D02*
X161221309Y-117152619D01*
X161459404Y-117057380D02*
X161459404Y-116390714D01*
X161459404Y-116485952D02*
X161507023Y-116438333D01*
X161602261Y-116390714D01*
X161745119Y-116390714D01*
X161840357Y-116438333D01*
X161887976Y-116533571D01*
X161887976Y-117057380D01*
X161887976Y-116533571D02*
X161935595Y-116438333D01*
X162030833Y-116390714D01*
X162173690Y-116390714D01*
X162268928Y-116438333D01*
X162316547Y-116533571D01*
X162316547Y-117057380D01*
X162935595Y-117057380D02*
X162840357Y-117009761D01*
X162792738Y-116962142D01*
X162745119Y-116866904D01*
X162745119Y-116581190D01*
X162792738Y-116485952D01*
X162840357Y-116438333D01*
X162935595Y-116390714D01*
X163078452Y-116390714D01*
X163173690Y-116438333D01*
X163221309Y-116485952D01*
X163268928Y-116581190D01*
X163268928Y-116866904D01*
X163221309Y-116962142D01*
X163173690Y-117009761D01*
X163078452Y-117057380D01*
X162935595Y-117057380D01*
X164126071Y-117057380D02*
X164126071Y-116057380D01*
X164126071Y-117009761D02*
X164030833Y-117057380D01*
X163840357Y-117057380D01*
X163745119Y-117009761D01*
X163697500Y-116962142D01*
X163649880Y-116866904D01*
X163649880Y-116581190D01*
X163697500Y-116485952D01*
X163745119Y-116438333D01*
X163840357Y-116390714D01*
X164030833Y-116390714D01*
X164126071Y-116438333D01*
X164983214Y-117009761D02*
X164887976Y-117057380D01*
X164697500Y-117057380D01*
X164602261Y-117009761D01*
X164554642Y-116914523D01*
X164554642Y-116533571D01*
X164602261Y-116438333D01*
X164697500Y-116390714D01*
X164887976Y-116390714D01*
X164983214Y-116438333D01*
X165030833Y-116533571D01*
X165030833Y-116628809D01*
X164554642Y-116724047D01*
X165602261Y-117057380D02*
X165507023Y-117009761D01*
X165459404Y-116914523D01*
X165459404Y-116057380D01*
X137638095Y-93147619D02*
X137685714Y-93100000D01*
X137780952Y-93052380D01*
X138019047Y-93052380D01*
X138114285Y-93100000D01*
X138161904Y-93147619D01*
X138209523Y-93242857D01*
X138209523Y-93338095D01*
X138161904Y-93480952D01*
X137590476Y-94052380D01*
X138209523Y-94052380D01*
X138542857Y-93052380D02*
X139209523Y-93052380D01*
X138780952Y-94052380D01*
X154438095Y-90547619D02*
X154485714Y-90500000D01*
X154580952Y-90452380D01*
X154819047Y-90452380D01*
X154914285Y-90500000D01*
X154961904Y-90547619D01*
X155009523Y-90642857D01*
X155009523Y-90738095D01*
X154961904Y-90880952D01*
X154390476Y-91452380D01*
X155009523Y-91452380D01*
X155866666Y-90452380D02*
X155676190Y-90452380D01*
X155580952Y-90500000D01*
X155533333Y-90547619D01*
X155438095Y-90690476D01*
X155390476Y-90880952D01*
X155390476Y-91261904D01*
X155438095Y-91357142D01*
X155485714Y-91404761D01*
X155580952Y-91452380D01*
X155771428Y-91452380D01*
X155866666Y-91404761D01*
X155914285Y-91357142D01*
X155961904Y-91261904D01*
X155961904Y-91023809D01*
X155914285Y-90928571D01*
X155866666Y-90880952D01*
X155771428Y-90833333D01*
X155580952Y-90833333D01*
X155485714Y-90880952D01*
X155438095Y-90928571D01*
X155390476Y-91023809D01*
X124209523Y-66604761D02*
X124352380Y-66652380D01*
X124590476Y-66652380D01*
X124685714Y-66604761D01*
X124733333Y-66557142D01*
X124780952Y-66461904D01*
X124780952Y-66366666D01*
X124733333Y-66271428D01*
X124685714Y-66223809D01*
X124590476Y-66176190D01*
X124400000Y-66128571D01*
X124304761Y-66080952D01*
X124257142Y-66033333D01*
X124209523Y-65938095D01*
X124209523Y-65842857D01*
X124257142Y-65747619D01*
X124304761Y-65700000D01*
X124400000Y-65652380D01*
X124638095Y-65652380D01*
X124780952Y-65700000D01*
X125780952Y-66557142D02*
X125733333Y-66604761D01*
X125590476Y-66652380D01*
X125495238Y-66652380D01*
X125352380Y-66604761D01*
X125257142Y-66509523D01*
X125209523Y-66414285D01*
X125161904Y-66223809D01*
X125161904Y-66080952D01*
X125209523Y-65890476D01*
X125257142Y-65795238D01*
X125352380Y-65700000D01*
X125495238Y-65652380D01*
X125590476Y-65652380D01*
X125733333Y-65700000D01*
X125780952Y-65747619D01*
X126685714Y-66652380D02*
X126209523Y-66652380D01*
X126209523Y-65652380D01*
X136585714Y-63604761D02*
X136728571Y-63652380D01*
X136966666Y-63652380D01*
X137061904Y-63604761D01*
X137109523Y-63557142D01*
X137157142Y-63461904D01*
X137157142Y-63366666D01*
X137109523Y-63271428D01*
X137061904Y-63223809D01*
X136966666Y-63176190D01*
X136776190Y-63128571D01*
X136680952Y-63080952D01*
X136633333Y-63033333D01*
X136585714Y-62938095D01*
X136585714Y-62842857D01*
X136633333Y-62747619D01*
X136680952Y-62700000D01*
X136776190Y-62652380D01*
X137014285Y-62652380D01*
X137157142Y-62700000D01*
X137585714Y-63652380D02*
X137585714Y-62652380D01*
X137823809Y-62652380D01*
X137966666Y-62700000D01*
X138061904Y-62795238D01*
X138109523Y-62890476D01*
X138157142Y-63080952D01*
X138157142Y-63223809D01*
X138109523Y-63414285D01*
X138061904Y-63509523D01*
X137966666Y-63604761D01*
X137823809Y-63652380D01*
X137585714Y-63652380D01*
X138538095Y-63366666D02*
X139014285Y-63366666D01*
X138442857Y-63652380D02*
X138776190Y-62652380D01*
X139109523Y-63652380D01*
X154809523Y-73652380D02*
X154238095Y-73652380D01*
X154523809Y-73652380D02*
X154523809Y-72652380D01*
X154428571Y-72795238D01*
X154333333Y-72890476D01*
X154238095Y-72938095D01*
X155190476Y-72747619D02*
X155238095Y-72700000D01*
X155333333Y-72652380D01*
X155571428Y-72652380D01*
X155666666Y-72700000D01*
X155714285Y-72747619D01*
X155761904Y-72842857D01*
X155761904Y-72938095D01*
X155714285Y-73080952D01*
X155142857Y-73652380D01*
X155761904Y-73652380D01*
X135000000Y-80871428D02*
X135761904Y-80871428D01*
X135380952Y-81252380D02*
X135380952Y-80490476D01*
X136142857Y-80252380D02*
X136761904Y-80252380D01*
X136428571Y-80633333D01*
X136571428Y-80633333D01*
X136666666Y-80680952D01*
X136714285Y-80728571D01*
X136761904Y-80823809D01*
X136761904Y-81061904D01*
X136714285Y-81157142D01*
X136666666Y-81204761D01*
X136571428Y-81252380D01*
X136285714Y-81252380D01*
X136190476Y-81204761D01*
X136142857Y-81157142D01*
X137190476Y-81157142D02*
X137238095Y-81204761D01*
X137190476Y-81252380D01*
X137142857Y-81204761D01*
X137190476Y-81157142D01*
X137190476Y-81252380D01*
X137571428Y-80252380D02*
X138190476Y-80252380D01*
X137857142Y-80633333D01*
X138000000Y-80633333D01*
X138095238Y-80680952D01*
X138142857Y-80728571D01*
X138190476Y-80823809D01*
X138190476Y-81061904D01*
X138142857Y-81157142D01*
X138095238Y-81204761D01*
X138000000Y-81252380D01*
X137714285Y-81252380D01*
X137619047Y-81204761D01*
X137571428Y-81157142D01*
X138476190Y-80252380D02*
X138809523Y-81252380D01*
X139142857Y-80252380D01*
X154838095Y-82900000D02*
X154742857Y-82852380D01*
X154600000Y-82852380D01*
X154457142Y-82900000D01*
X154361904Y-82995238D01*
X154314285Y-83090476D01*
X154266666Y-83280952D01*
X154266666Y-83423809D01*
X154314285Y-83614285D01*
X154361904Y-83709523D01*
X154457142Y-83804761D01*
X154600000Y-83852380D01*
X154695238Y-83852380D01*
X154838095Y-83804761D01*
X154885714Y-83757142D01*
X154885714Y-83423809D01*
X154695238Y-83423809D01*
X155314285Y-83852380D02*
X155314285Y-82852380D01*
X155885714Y-83852380D01*
X155885714Y-82852380D01*
X156361904Y-83852380D02*
X156361904Y-82852380D01*
X156600000Y-82852380D01*
X156742857Y-82900000D01*
X156838095Y-82995238D01*
X156885714Y-83090476D01*
X156933333Y-83280952D01*
X156933333Y-83423809D01*
X156885714Y-83614285D01*
X156838095Y-83709523D01*
X156742857Y-83804761D01*
X156600000Y-83852380D01*
X156361904Y-83852380D01*
X171290476Y-88728571D02*
X170957142Y-88728571D01*
X170957142Y-89252380D02*
X170957142Y-88252380D01*
X171433333Y-88252380D01*
X172195238Y-89204761D02*
X172100000Y-89252380D01*
X171909523Y-89252380D01*
X171814285Y-89204761D01*
X171766666Y-89109523D01*
X171766666Y-88728571D01*
X171814285Y-88633333D01*
X171909523Y-88585714D01*
X172100000Y-88585714D01*
X172195238Y-88633333D01*
X172242857Y-88728571D01*
X172242857Y-88823809D01*
X171766666Y-88919047D01*
X173100000Y-89252380D02*
X173100000Y-88728571D01*
X173052380Y-88633333D01*
X172957142Y-88585714D01*
X172766666Y-88585714D01*
X172671428Y-88633333D01*
X173100000Y-89204761D02*
X173004761Y-89252380D01*
X172766666Y-89252380D01*
X172671428Y-89204761D01*
X172623809Y-89109523D01*
X172623809Y-89014285D01*
X172671428Y-88919047D01*
X172766666Y-88871428D01*
X173004761Y-88871428D01*
X173100000Y-88823809D01*
X173433333Y-88585714D02*
X173814285Y-88585714D01*
X173576190Y-88252380D02*
X173576190Y-89109523D01*
X173623809Y-89204761D01*
X173719047Y-89252380D01*
X173814285Y-89252380D01*
X174147619Y-89252380D02*
X174147619Y-88252380D01*
X174576190Y-89252380D02*
X174576190Y-88728571D01*
X174528571Y-88633333D01*
X174433333Y-88585714D01*
X174290476Y-88585714D01*
X174195238Y-88633333D01*
X174147619Y-88680952D01*
X175433333Y-89204761D02*
X175338095Y-89252380D01*
X175147619Y-89252380D01*
X175052380Y-89204761D01*
X175004761Y-89109523D01*
X175004761Y-88728571D01*
X175052380Y-88633333D01*
X175147619Y-88585714D01*
X175338095Y-88585714D01*
X175433333Y-88633333D01*
X175480952Y-88728571D01*
X175480952Y-88823809D01*
X175004761Y-88919047D01*
X175909523Y-89252380D02*
X175909523Y-88585714D01*
X175909523Y-88776190D02*
X175957142Y-88680952D01*
X176004761Y-88633333D01*
X176100000Y-88585714D01*
X176195238Y-88585714D01*
X176433333Y-88252380D02*
X176671428Y-89252380D01*
X176861904Y-88538095D01*
X177052380Y-89252380D01*
X177290476Y-88252380D01*
X177671428Y-89252380D02*
X177671428Y-88585714D01*
X177671428Y-88252380D02*
X177623809Y-88300000D01*
X177671428Y-88347619D01*
X177719047Y-88300000D01*
X177671428Y-88252380D01*
X177671428Y-88347619D01*
X178147619Y-88585714D02*
X178147619Y-89252380D01*
X178147619Y-88680952D02*
X178195238Y-88633333D01*
X178290476Y-88585714D01*
X178433333Y-88585714D01*
X178528571Y-88633333D01*
X178576190Y-88728571D01*
X178576190Y-89252380D01*
X179480952Y-88585714D02*
X179480952Y-89395238D01*
X179433333Y-89490476D01*
X179385714Y-89538095D01*
X179290476Y-89585714D01*
X179147619Y-89585714D01*
X179052380Y-89538095D01*
X179480952Y-89204761D02*
X179385714Y-89252380D01*
X179195238Y-89252380D01*
X179100000Y-89204761D01*
X179052380Y-89157142D01*
X179004761Y-89061904D01*
X179004761Y-88776190D01*
X179052380Y-88680952D01*
X179100000Y-88633333D01*
X179195238Y-88585714D01*
X179385714Y-88585714D01*
X179480952Y-88633333D01*
X180719047Y-89252380D02*
X180719047Y-88252380D01*
X180957142Y-88252380D01*
X181100000Y-88300000D01*
X181195238Y-88395238D01*
X181242857Y-88490476D01*
X181290476Y-88680952D01*
X181290476Y-88823809D01*
X181242857Y-89014285D01*
X181195238Y-89109523D01*
X181100000Y-89204761D01*
X180957142Y-89252380D01*
X180719047Y-89252380D01*
X182290476Y-89157142D02*
X182242857Y-89204761D01*
X182100000Y-89252380D01*
X182004761Y-89252380D01*
X181861904Y-89204761D01*
X181766666Y-89109523D01*
X181719047Y-89014285D01*
X181671428Y-88823809D01*
X181671428Y-88680952D01*
X181719047Y-88490476D01*
X181766666Y-88395238D01*
X181861904Y-88300000D01*
X182004761Y-88252380D01*
X182100000Y-88252380D01*
X182242857Y-88300000D01*
X182290476Y-88347619D01*
X183480952Y-89252380D02*
X183480952Y-88252380D01*
X183814285Y-88966666D01*
X184147619Y-88252380D01*
X184147619Y-89252380D01*
X184766666Y-89252380D02*
X184671428Y-89204761D01*
X184623809Y-89157142D01*
X184576190Y-89061904D01*
X184576190Y-88776190D01*
X184623809Y-88680952D01*
X184671428Y-88633333D01*
X184766666Y-88585714D01*
X184909523Y-88585714D01*
X185004761Y-88633333D01*
X185052380Y-88680952D01*
X185100000Y-88776190D01*
X185100000Y-89061904D01*
X185052380Y-89157142D01*
X185004761Y-89204761D01*
X184909523Y-89252380D01*
X184766666Y-89252380D01*
X185385714Y-88585714D02*
X185766666Y-88585714D01*
X185528571Y-88252380D02*
X185528571Y-89109523D01*
X185576190Y-89204761D01*
X185671428Y-89252380D01*
X185766666Y-89252380D01*
X186242857Y-89252380D02*
X186147619Y-89204761D01*
X186100000Y-89157142D01*
X186052380Y-89061904D01*
X186052380Y-88776190D01*
X186100000Y-88680952D01*
X186147619Y-88633333D01*
X186242857Y-88585714D01*
X186385714Y-88585714D01*
X186480952Y-88633333D01*
X186528571Y-88680952D01*
X186576190Y-88776190D01*
X186576190Y-89061904D01*
X186528571Y-89157142D01*
X186480952Y-89204761D01*
X186385714Y-89252380D01*
X186242857Y-89252380D01*
X187004761Y-89252380D02*
X187004761Y-88585714D01*
X187004761Y-88776190D02*
X187052380Y-88680952D01*
X187100000Y-88633333D01*
X187195238Y-88585714D01*
X187290476Y-88585714D01*
X188385714Y-89252380D02*
X188385714Y-88252380D01*
X188623809Y-88252380D01*
X188766666Y-88300000D01*
X188861904Y-88395238D01*
X188909523Y-88490476D01*
X188957142Y-88680952D01*
X188957142Y-88823809D01*
X188909523Y-89014285D01*
X188861904Y-89109523D01*
X188766666Y-89204761D01*
X188623809Y-89252380D01*
X188385714Y-89252380D01*
X189385714Y-89252380D02*
X189385714Y-88585714D01*
X189385714Y-88776190D02*
X189433333Y-88680952D01*
X189480952Y-88633333D01*
X189576190Y-88585714D01*
X189671428Y-88585714D01*
X190004761Y-89252380D02*
X190004761Y-88585714D01*
X190004761Y-88252380D02*
X189957142Y-88300000D01*
X190004761Y-88347619D01*
X190052380Y-88300000D01*
X190004761Y-88252380D01*
X190004761Y-88347619D01*
X190385714Y-88585714D02*
X190623809Y-89252380D01*
X190861904Y-88585714D01*
X191623809Y-89204761D02*
X191528571Y-89252380D01*
X191338095Y-89252380D01*
X191242857Y-89204761D01*
X191195238Y-89109523D01*
X191195238Y-88728571D01*
X191242857Y-88633333D01*
X191338095Y-88585714D01*
X191528571Y-88585714D01*
X191623809Y-88633333D01*
X191671428Y-88728571D01*
X191671428Y-88823809D01*
X191195238Y-88919047D01*
X192100000Y-89252380D02*
X192100000Y-88585714D01*
X192100000Y-88776190D02*
X192147619Y-88680952D01*
X192195238Y-88633333D01*
X192290476Y-88585714D01*
X192385714Y-88585714D01*
X138209523Y-78852380D02*
X137638095Y-78852380D01*
X137923809Y-78852380D02*
X137923809Y-77852380D01*
X137828571Y-77995238D01*
X137733333Y-78090476D01*
X137638095Y-78138095D01*
X139114285Y-77852380D02*
X138638095Y-77852380D01*
X138590476Y-78328571D01*
X138638095Y-78280952D01*
X138733333Y-78233333D01*
X138971428Y-78233333D01*
X139066666Y-78280952D01*
X139114285Y-78328571D01*
X139161904Y-78423809D01*
X139161904Y-78661904D01*
X139114285Y-78757142D01*
X139066666Y-78804761D01*
X138971428Y-78852380D01*
X138733333Y-78852380D01*
X138638095Y-78804761D01*
X138590476Y-78757142D01*
X154190476Y-105852380D02*
X154809523Y-105852380D01*
X154476190Y-106233333D01*
X154619047Y-106233333D01*
X154714285Y-106280952D01*
X154761904Y-106328571D01*
X154809523Y-106423809D01*
X154809523Y-106661904D01*
X154761904Y-106757142D01*
X154714285Y-106804761D01*
X154619047Y-106852380D01*
X154333333Y-106852380D01*
X154238095Y-106804761D01*
X154190476Y-106757142D01*
X155380952Y-106280952D02*
X155285714Y-106233333D01*
X155238095Y-106185714D01*
X155190476Y-106090476D01*
X155190476Y-106042857D01*
X155238095Y-105947619D01*
X155285714Y-105900000D01*
X155380952Y-105852380D01*
X155571428Y-105852380D01*
X155666666Y-105900000D01*
X155714285Y-105947619D01*
X155761904Y-106042857D01*
X155761904Y-106090476D01*
X155714285Y-106185714D01*
X155666666Y-106233333D01*
X155571428Y-106280952D01*
X155380952Y-106280952D01*
X155285714Y-106328571D01*
X155238095Y-106376190D01*
X155190476Y-106471428D01*
X155190476Y-106661904D01*
X155238095Y-106757142D01*
X155285714Y-106804761D01*
X155380952Y-106852380D01*
X155571428Y-106852380D01*
X155666666Y-106804761D01*
X155714285Y-106757142D01*
X155761904Y-106661904D01*
X155761904Y-106471428D01*
X155714285Y-106376190D01*
X155666666Y-106328571D01*
X155571428Y-106280952D01*
X137590476Y-105852380D02*
X138209523Y-105852380D01*
X137876190Y-106233333D01*
X138019047Y-106233333D01*
X138114285Y-106280952D01*
X138161904Y-106328571D01*
X138209523Y-106423809D01*
X138209523Y-106661904D01*
X138161904Y-106757142D01*
X138114285Y-106804761D01*
X138019047Y-106852380D01*
X137733333Y-106852380D01*
X137638095Y-106804761D01*
X137590476Y-106757142D01*
X138542857Y-105852380D02*
X139209523Y-105852380D01*
X138780952Y-106852380D01*
X204738095Y-99000000D02*
X204642857Y-98952380D01*
X204500000Y-98952380D01*
X204357142Y-99000000D01*
X204261904Y-99095238D01*
X204214285Y-99190476D01*
X204166666Y-99380952D01*
X204166666Y-99523809D01*
X204214285Y-99714285D01*
X204261904Y-99809523D01*
X204357142Y-99904761D01*
X204500000Y-99952380D01*
X204595238Y-99952380D01*
X204738095Y-99904761D01*
X204785714Y-99857142D01*
X204785714Y-99523809D01*
X204595238Y-99523809D01*
X205214285Y-99952380D02*
X205214285Y-98952380D01*
X205785714Y-99952380D01*
X205785714Y-98952380D01*
X206261904Y-99952380D02*
X206261904Y-98952380D01*
X206500000Y-98952380D01*
X206642857Y-99000000D01*
X206738095Y-99095238D01*
X206785714Y-99190476D01*
X206833333Y-99380952D01*
X206833333Y-99523809D01*
X206785714Y-99714285D01*
X206738095Y-99809523D01*
X206642857Y-99904761D01*
X206500000Y-99952380D01*
X206261904Y-99952380D01*
X154190476Y-103252380D02*
X154809523Y-103252380D01*
X154476190Y-103633333D01*
X154619047Y-103633333D01*
X154714285Y-103680952D01*
X154761904Y-103728571D01*
X154809523Y-103823809D01*
X154809523Y-104061904D01*
X154761904Y-104157142D01*
X154714285Y-104204761D01*
X154619047Y-104252380D01*
X154333333Y-104252380D01*
X154238095Y-104204761D01*
X154190476Y-104157142D01*
X155666666Y-103252380D02*
X155476190Y-103252380D01*
X155380952Y-103300000D01*
X155333333Y-103347619D01*
X155238095Y-103490476D01*
X155190476Y-103680952D01*
X155190476Y-104061904D01*
X155238095Y-104157142D01*
X155285714Y-104204761D01*
X155380952Y-104252380D01*
X155571428Y-104252380D01*
X155666666Y-104204761D01*
X155714285Y-104157142D01*
X155761904Y-104061904D01*
X155761904Y-103823809D01*
X155714285Y-103728571D01*
X155666666Y-103680952D01*
X155571428Y-103633333D01*
X155380952Y-103633333D01*
X155285714Y-103680952D01*
X155238095Y-103728571D01*
X155190476Y-103823809D01*
X154838095Y-95700000D02*
X154742857Y-95652380D01*
X154600000Y-95652380D01*
X154457142Y-95700000D01*
X154361904Y-95795238D01*
X154314285Y-95890476D01*
X154266666Y-96080952D01*
X154266666Y-96223809D01*
X154314285Y-96414285D01*
X154361904Y-96509523D01*
X154457142Y-96604761D01*
X154600000Y-96652380D01*
X154695238Y-96652380D01*
X154838095Y-96604761D01*
X154885714Y-96557142D01*
X154885714Y-96223809D01*
X154695238Y-96223809D01*
X155314285Y-96652380D02*
X155314285Y-95652380D01*
X155885714Y-96652380D01*
X155885714Y-95652380D01*
X156361904Y-96652380D02*
X156361904Y-95652380D01*
X156600000Y-95652380D01*
X156742857Y-95700000D01*
X156838095Y-95795238D01*
X156885714Y-95890476D01*
X156933333Y-96080952D01*
X156933333Y-96223809D01*
X156885714Y-96414285D01*
X156838095Y-96509523D01*
X156742857Y-96604761D01*
X156600000Y-96652380D01*
X156361904Y-96652380D01*
X201871428Y-74200000D02*
X201871428Y-73438095D01*
X202252380Y-73819047D02*
X201490476Y-73819047D01*
X201252380Y-73057142D02*
X201252380Y-72438095D01*
X201633333Y-72771428D01*
X201633333Y-72628571D01*
X201680952Y-72533333D01*
X201728571Y-72485714D01*
X201823809Y-72438095D01*
X202061904Y-72438095D01*
X202157142Y-72485714D01*
X202204761Y-72533333D01*
X202252380Y-72628571D01*
X202252380Y-72914285D01*
X202204761Y-73009523D01*
X202157142Y-73057142D01*
X202157142Y-72009523D02*
X202204761Y-71961904D01*
X202252380Y-72009523D01*
X202204761Y-72057142D01*
X202157142Y-72009523D01*
X202252380Y-72009523D01*
X201252380Y-71628571D02*
X201252380Y-71009523D01*
X201633333Y-71342857D01*
X201633333Y-71200000D01*
X201680952Y-71104761D01*
X201728571Y-71057142D01*
X201823809Y-71009523D01*
X202061904Y-71009523D01*
X202157142Y-71057142D01*
X202204761Y-71104761D01*
X202252380Y-71200000D01*
X202252380Y-71485714D01*
X202204761Y-71580952D01*
X202157142Y-71628571D01*
X201252380Y-70723809D02*
X202252380Y-70390476D01*
X201252380Y-70057142D01*
X128861904Y-96252380D02*
X128861904Y-95252380D01*
X129242857Y-95252380D01*
X129338095Y-95300000D01*
X129385714Y-95347619D01*
X129433333Y-95442857D01*
X129433333Y-95585714D01*
X129385714Y-95680952D01*
X129338095Y-95728571D01*
X129242857Y-95776190D01*
X128861904Y-95776190D01*
X130052380Y-95252380D02*
X130242857Y-95252380D01*
X130338095Y-95300000D01*
X130433333Y-95395238D01*
X130480952Y-95585714D01*
X130480952Y-95919047D01*
X130433333Y-96109523D01*
X130338095Y-96204761D01*
X130242857Y-96252380D01*
X130052380Y-96252380D01*
X129957142Y-96204761D01*
X129861904Y-96109523D01*
X129814285Y-95919047D01*
X129814285Y-95585714D01*
X129861904Y-95395238D01*
X129957142Y-95300000D01*
X130052380Y-95252380D01*
X130814285Y-95252380D02*
X131052380Y-96252380D01*
X131242857Y-95538095D01*
X131433333Y-96252380D01*
X131671428Y-95252380D01*
X132052380Y-95728571D02*
X132385714Y-95728571D01*
X132528571Y-96252380D02*
X132052380Y-96252380D01*
X132052380Y-95252380D01*
X132528571Y-95252380D01*
X133528571Y-96252380D02*
X133195238Y-95776190D01*
X132957142Y-96252380D02*
X132957142Y-95252380D01*
X133338095Y-95252380D01*
X133433333Y-95300000D01*
X133480952Y-95347619D01*
X133528571Y-95442857D01*
X133528571Y-95585714D01*
X133480952Y-95680952D01*
X133433333Y-95728571D01*
X133338095Y-95776190D01*
X132957142Y-95776190D01*
X134671428Y-96204761D02*
X134814285Y-96252380D01*
X135052380Y-96252380D01*
X135147619Y-96204761D01*
X135195238Y-96157142D01*
X135242857Y-96061904D01*
X135242857Y-95966666D01*
X135195238Y-95871428D01*
X135147619Y-95823809D01*
X135052380Y-95776190D01*
X134861904Y-95728571D01*
X134766666Y-95680952D01*
X134719047Y-95633333D01*
X134671428Y-95538095D01*
X134671428Y-95442857D01*
X134719047Y-95347619D01*
X134766666Y-95300000D01*
X134861904Y-95252380D01*
X135100000Y-95252380D01*
X135242857Y-95300000D01*
X135576190Y-95252380D02*
X135814285Y-96252380D01*
X136004761Y-95538095D01*
X136195238Y-96252380D01*
X136433333Y-95252380D01*
X122600000Y-60871428D02*
X123361904Y-60871428D01*
X122980952Y-61252380D02*
X122980952Y-60490476D01*
X123742857Y-60252380D02*
X124361904Y-60252380D01*
X124028571Y-60633333D01*
X124171428Y-60633333D01*
X124266666Y-60680952D01*
X124314285Y-60728571D01*
X124361904Y-60823809D01*
X124361904Y-61061904D01*
X124314285Y-61157142D01*
X124266666Y-61204761D01*
X124171428Y-61252380D01*
X123885714Y-61252380D01*
X123790476Y-61204761D01*
X123742857Y-61157142D01*
X124790476Y-61157142D02*
X124838095Y-61204761D01*
X124790476Y-61252380D01*
X124742857Y-61204761D01*
X124790476Y-61157142D01*
X124790476Y-61252380D01*
X125171428Y-60252380D02*
X125790476Y-60252380D01*
X125457142Y-60633333D01*
X125600000Y-60633333D01*
X125695238Y-60680952D01*
X125742857Y-60728571D01*
X125790476Y-60823809D01*
X125790476Y-61061904D01*
X125742857Y-61157142D01*
X125695238Y-61204761D01*
X125600000Y-61252380D01*
X125314285Y-61252380D01*
X125219047Y-61204761D01*
X125171428Y-61157142D01*
X126076190Y-60252380D02*
X126409523Y-61252380D01*
X126742857Y-60252380D01*
X166804761Y-100614285D02*
X166852380Y-100471428D01*
X166852380Y-100233333D01*
X166804761Y-100138095D01*
X166757142Y-100090476D01*
X166661904Y-100042857D01*
X166566666Y-100042857D01*
X166471428Y-100090476D01*
X166423809Y-100138095D01*
X166376190Y-100233333D01*
X166328571Y-100423809D01*
X166280952Y-100519047D01*
X166233333Y-100566666D01*
X166138095Y-100614285D01*
X166042857Y-100614285D01*
X165947619Y-100566666D01*
X165900000Y-100519047D01*
X165852380Y-100423809D01*
X165852380Y-100185714D01*
X165900000Y-100042857D01*
X166852380Y-99614285D02*
X165852380Y-99614285D01*
X165852380Y-99376190D01*
X165900000Y-99233333D01*
X165995238Y-99138095D01*
X166090476Y-99090476D01*
X166280952Y-99042857D01*
X166423809Y-99042857D01*
X166614285Y-99090476D01*
X166709523Y-99138095D01*
X166804761Y-99233333D01*
X166852380Y-99376190D01*
X166852380Y-99614285D01*
X166566666Y-98661904D02*
X166566666Y-98185714D01*
X166852380Y-98757142D02*
X165852380Y-98423809D01*
X166852380Y-98090476D01*
X198371428Y-105652380D02*
X198371428Y-104652380D01*
X198704761Y-105366666D01*
X199038095Y-104652380D01*
X199038095Y-105652380D01*
X199657142Y-105652380D02*
X199561904Y-105604761D01*
X199514285Y-105557142D01*
X199466666Y-105461904D01*
X199466666Y-105176190D01*
X199514285Y-105080952D01*
X199561904Y-105033333D01*
X199657142Y-104985714D01*
X199800000Y-104985714D01*
X199895238Y-105033333D01*
X199942857Y-105080952D01*
X199990476Y-105176190D01*
X199990476Y-105461904D01*
X199942857Y-105557142D01*
X199895238Y-105604761D01*
X199800000Y-105652380D01*
X199657142Y-105652380D01*
X200276190Y-104985714D02*
X200657142Y-104985714D01*
X200419047Y-104652380D02*
X200419047Y-105509523D01*
X200466666Y-105604761D01*
X200561904Y-105652380D01*
X200657142Y-105652380D01*
X201133333Y-105652380D02*
X201038095Y-105604761D01*
X200990476Y-105557142D01*
X200942857Y-105461904D01*
X200942857Y-105176190D01*
X200990476Y-105080952D01*
X201038095Y-105033333D01*
X201133333Y-104985714D01*
X201276190Y-104985714D01*
X201371428Y-105033333D01*
X201419047Y-105080952D01*
X201466666Y-105176190D01*
X201466666Y-105461904D01*
X201419047Y-105557142D01*
X201371428Y-105604761D01*
X201276190Y-105652380D01*
X201133333Y-105652380D01*
X201895238Y-105652380D02*
X201895238Y-104985714D01*
X201895238Y-105176190D02*
X201942857Y-105080952D01*
X201990476Y-105033333D01*
X202085714Y-104985714D01*
X202180952Y-104985714D01*
X203276190Y-105652380D02*
X203276190Y-104652380D01*
X203657142Y-104652380D01*
X203752380Y-104700000D01*
X203800000Y-104747619D01*
X203847619Y-104842857D01*
X203847619Y-104985714D01*
X203800000Y-105080952D01*
X203752380Y-105128571D01*
X203657142Y-105176190D01*
X203276190Y-105176190D01*
X204419047Y-105652380D02*
X204323809Y-105604761D01*
X204276190Y-105557142D01*
X204228571Y-105461904D01*
X204228571Y-105176190D01*
X204276190Y-105080952D01*
X204323809Y-105033333D01*
X204419047Y-104985714D01*
X204561904Y-104985714D01*
X204657142Y-105033333D01*
X204704761Y-105080952D01*
X204752380Y-105176190D01*
X204752380Y-105461904D01*
X204704761Y-105557142D01*
X204657142Y-105604761D01*
X204561904Y-105652380D01*
X204419047Y-105652380D01*
X205085714Y-104985714D02*
X205276190Y-105652380D01*
X205466666Y-105176190D01*
X205657142Y-105652380D01*
X205847619Y-104985714D01*
X206609523Y-105604761D02*
X206514285Y-105652380D01*
X206323809Y-105652380D01*
X206228571Y-105604761D01*
X206180952Y-105509523D01*
X206180952Y-105128571D01*
X206228571Y-105033333D01*
X206323809Y-104985714D01*
X206514285Y-104985714D01*
X206609523Y-105033333D01*
X206657142Y-105128571D01*
X206657142Y-105223809D01*
X206180952Y-105319047D01*
X207085714Y-105652380D02*
X207085714Y-104985714D01*
X207085714Y-105176190D02*
X207133333Y-105080952D01*
X207180952Y-105033333D01*
X207276190Y-104985714D01*
X207371428Y-104985714D01*
X137038095Y-108500000D02*
X136942857Y-108452380D01*
X136800000Y-108452380D01*
X136657142Y-108500000D01*
X136561904Y-108595238D01*
X136514285Y-108690476D01*
X136466666Y-108880952D01*
X136466666Y-109023809D01*
X136514285Y-109214285D01*
X136561904Y-109309523D01*
X136657142Y-109404761D01*
X136800000Y-109452380D01*
X136895238Y-109452380D01*
X137038095Y-109404761D01*
X137085714Y-109357142D01*
X137085714Y-109023809D01*
X136895238Y-109023809D01*
X137514285Y-109452380D02*
X137514285Y-108452380D01*
X138085714Y-109452380D01*
X138085714Y-108452380D01*
X138561904Y-109452380D02*
X138561904Y-108452380D01*
X138800000Y-108452380D01*
X138942857Y-108500000D01*
X139038095Y-108595238D01*
X139085714Y-108690476D01*
X139133333Y-108880952D01*
X139133333Y-109023809D01*
X139085714Y-109214285D01*
X139038095Y-109309523D01*
X138942857Y-109404761D01*
X138800000Y-109452380D01*
X138561904Y-109452380D01*
X154438095Y-93147619D02*
X154485714Y-93100000D01*
X154580952Y-93052380D01*
X154819047Y-93052380D01*
X154914285Y-93100000D01*
X154961904Y-93147619D01*
X155009523Y-93242857D01*
X155009523Y-93338095D01*
X154961904Y-93480952D01*
X154390476Y-94052380D01*
X155009523Y-94052380D01*
X155580952Y-93480952D02*
X155485714Y-93433333D01*
X155438095Y-93385714D01*
X155390476Y-93290476D01*
X155390476Y-93242857D01*
X155438095Y-93147619D01*
X155485714Y-93100000D01*
X155580952Y-93052380D01*
X155771428Y-93052380D01*
X155866666Y-93100000D01*
X155914285Y-93147619D01*
X155961904Y-93242857D01*
X155961904Y-93290476D01*
X155914285Y-93385714D01*
X155866666Y-93433333D01*
X155771428Y-93480952D01*
X155580952Y-93480952D01*
X155485714Y-93528571D01*
X155438095Y-93576190D01*
X155390476Y-93671428D01*
X155390476Y-93861904D01*
X155438095Y-93957142D01*
X155485714Y-94004761D01*
X155580952Y-94052380D01*
X155771428Y-94052380D01*
X155866666Y-94004761D01*
X155914285Y-93957142D01*
X155961904Y-93861904D01*
X155961904Y-93671428D01*
X155914285Y-93576190D01*
X155866666Y-93528571D01*
X155771428Y-93480952D01*
X154390476Y-98052380D02*
X155009523Y-98052380D01*
X154676190Y-98433333D01*
X154819047Y-98433333D01*
X154914285Y-98480952D01*
X154961904Y-98528571D01*
X155009523Y-98623809D01*
X155009523Y-98861904D01*
X154961904Y-98957142D01*
X154914285Y-99004761D01*
X154819047Y-99052380D01*
X154533333Y-99052380D01*
X154438095Y-99004761D01*
X154390476Y-98957142D01*
X155390476Y-98147619D02*
X155438095Y-98100000D01*
X155533333Y-98052380D01*
X155771428Y-98052380D01*
X155866666Y-98100000D01*
X155914285Y-98147619D01*
X155961904Y-98242857D01*
X155961904Y-98338095D01*
X155914285Y-98480952D01*
X155342857Y-99052380D01*
X155961904Y-99052380D01*
X137590476Y-100852380D02*
X138209523Y-100852380D01*
X137876190Y-101233333D01*
X138019047Y-101233333D01*
X138114285Y-101280952D01*
X138161904Y-101328571D01*
X138209523Y-101423809D01*
X138209523Y-101661904D01*
X138161904Y-101757142D01*
X138114285Y-101804761D01*
X138019047Y-101852380D01*
X137733333Y-101852380D01*
X137638095Y-101804761D01*
X137590476Y-101757142D01*
X138542857Y-100852380D02*
X139161904Y-100852380D01*
X138828571Y-101233333D01*
X138971428Y-101233333D01*
X139066666Y-101280952D01*
X139114285Y-101328571D01*
X139161904Y-101423809D01*
X139161904Y-101661904D01*
X139114285Y-101757142D01*
X139066666Y-101804761D01*
X138971428Y-101852380D01*
X138685714Y-101852380D01*
X138590476Y-101804761D01*
X138542857Y-101757142D01*
X154838095Y-100700000D02*
X154742857Y-100652380D01*
X154600000Y-100652380D01*
X154457142Y-100700000D01*
X154361904Y-100795238D01*
X154314285Y-100890476D01*
X154266666Y-101080952D01*
X154266666Y-101223809D01*
X154314285Y-101414285D01*
X154361904Y-101509523D01*
X154457142Y-101604761D01*
X154600000Y-101652380D01*
X154695238Y-101652380D01*
X154838095Y-101604761D01*
X154885714Y-101557142D01*
X154885714Y-101223809D01*
X154695238Y-101223809D01*
X155314285Y-101652380D02*
X155314285Y-100652380D01*
X155885714Y-101652380D01*
X155885714Y-100652380D01*
X156361904Y-101652380D02*
X156361904Y-100652380D01*
X156600000Y-100652380D01*
X156742857Y-100700000D01*
X156838095Y-100795238D01*
X156885714Y-100890476D01*
X156933333Y-101080952D01*
X156933333Y-101223809D01*
X156885714Y-101414285D01*
X156838095Y-101509523D01*
X156742857Y-101604761D01*
X156600000Y-101652380D01*
X156361904Y-101652380D01*
X127819047Y-69252380D02*
X127819047Y-68252380D01*
X128200000Y-68252380D01*
X128295238Y-68300000D01*
X128342857Y-68347619D01*
X128390476Y-68442857D01*
X128390476Y-68585714D01*
X128342857Y-68680952D01*
X128295238Y-68728571D01*
X128200000Y-68776190D01*
X127819047Y-68776190D01*
X128819047Y-69252380D02*
X128819047Y-68585714D01*
X128819047Y-68252380D02*
X128771428Y-68300000D01*
X128819047Y-68347619D01*
X128866666Y-68300000D01*
X128819047Y-68252380D01*
X128819047Y-68347619D01*
X129485714Y-68252380D02*
X129676190Y-68252380D01*
X129771428Y-68300000D01*
X129866666Y-68395238D01*
X129914285Y-68585714D01*
X129914285Y-68919047D01*
X129866666Y-69109523D01*
X129771428Y-69204761D01*
X129676190Y-69252380D01*
X129485714Y-69252380D01*
X129390476Y-69204761D01*
X129295238Y-69109523D01*
X129247619Y-68919047D01*
X129247619Y-68585714D01*
X129295238Y-68395238D01*
X129390476Y-68300000D01*
X129485714Y-68252380D01*
X130819047Y-69252380D02*
X130342857Y-69252380D01*
X130342857Y-68252380D01*
X131152380Y-68728571D02*
X131485714Y-68728571D01*
X131628571Y-69252380D02*
X131152380Y-69252380D01*
X131152380Y-68252380D01*
X131628571Y-68252380D01*
X132057142Y-69252380D02*
X132057142Y-68252380D01*
X132295238Y-68252380D01*
X132438095Y-68300000D01*
X132533333Y-68395238D01*
X132580952Y-68490476D01*
X132628571Y-68680952D01*
X132628571Y-68823809D01*
X132580952Y-69014285D01*
X132533333Y-69109523D01*
X132438095Y-69204761D01*
X132295238Y-69252380D01*
X132057142Y-69252380D01*
X138209523Y-73652380D02*
X137638095Y-73652380D01*
X137923809Y-73652380D02*
X137923809Y-72652380D01*
X137828571Y-72795238D01*
X137733333Y-72890476D01*
X137638095Y-72938095D01*
X139161904Y-73652380D02*
X138590476Y-73652380D01*
X138876190Y-73652380D02*
X138876190Y-72652380D01*
X138780952Y-72795238D01*
X138685714Y-72890476D01*
X138590476Y-72938095D01*
X154314285Y-63271428D02*
X155076190Y-63271428D01*
X154695238Y-63652380D02*
X154695238Y-62890476D01*
X156028571Y-62652380D02*
X155552380Y-62652380D01*
X155504761Y-63128571D01*
X155552380Y-63080952D01*
X155647619Y-63033333D01*
X155885714Y-63033333D01*
X155980952Y-63080952D01*
X156028571Y-63128571D01*
X156076190Y-63223809D01*
X156076190Y-63461904D01*
X156028571Y-63557142D01*
X155980952Y-63604761D01*
X155885714Y-63652380D01*
X155647619Y-63652380D01*
X155552380Y-63604761D01*
X155504761Y-63557142D01*
X156361904Y-62652380D02*
X156695238Y-63652380D01*
X157028571Y-62652380D01*
X154809523Y-81252380D02*
X154238095Y-81252380D01*
X154523809Y-81252380D02*
X154523809Y-80252380D01*
X154428571Y-80395238D01*
X154333333Y-80490476D01*
X154238095Y-80538095D01*
X155380952Y-80680952D02*
X155285714Y-80633333D01*
X155238095Y-80585714D01*
X155190476Y-80490476D01*
X155190476Y-80442857D01*
X155238095Y-80347619D01*
X155285714Y-80300000D01*
X155380952Y-80252380D01*
X155571428Y-80252380D01*
X155666666Y-80300000D01*
X155714285Y-80347619D01*
X155761904Y-80442857D01*
X155761904Y-80490476D01*
X155714285Y-80585714D01*
X155666666Y-80633333D01*
X155571428Y-80680952D01*
X155380952Y-80680952D01*
X155285714Y-80728571D01*
X155238095Y-80776190D01*
X155190476Y-80871428D01*
X155190476Y-81061904D01*
X155238095Y-81157142D01*
X155285714Y-81204761D01*
X155380952Y-81252380D01*
X155571428Y-81252380D01*
X155666666Y-81204761D01*
X155714285Y-81157142D01*
X155761904Y-81061904D01*
X155761904Y-80871428D01*
X155714285Y-80776190D01*
X155666666Y-80728571D01*
X155571428Y-80680952D01*
X208514285Y-66671428D02*
X209276190Y-66671428D01*
X208895238Y-67052380D02*
X208895238Y-66290476D01*
X210228571Y-66052380D02*
X209752380Y-66052380D01*
X209704761Y-66528571D01*
X209752380Y-66480952D01*
X209847619Y-66433333D01*
X210085714Y-66433333D01*
X210180952Y-66480952D01*
X210228571Y-66528571D01*
X210276190Y-66623809D01*
X210276190Y-66861904D01*
X210228571Y-66957142D01*
X210180952Y-67004761D01*
X210085714Y-67052380D01*
X209847619Y-67052380D01*
X209752380Y-67004761D01*
X209704761Y-66957142D01*
X210561904Y-66052380D02*
X210895238Y-67052380D01*
X211228571Y-66052380D01*
X137038095Y-70500000D02*
X136942857Y-70452380D01*
X136800000Y-70452380D01*
X136657142Y-70500000D01*
X136561904Y-70595238D01*
X136514285Y-70690476D01*
X136466666Y-70880952D01*
X136466666Y-71023809D01*
X136514285Y-71214285D01*
X136561904Y-71309523D01*
X136657142Y-71404761D01*
X136800000Y-71452380D01*
X136895238Y-71452380D01*
X137038095Y-71404761D01*
X137085714Y-71357142D01*
X137085714Y-71023809D01*
X136895238Y-71023809D01*
X137514285Y-71452380D02*
X137514285Y-70452380D01*
X138085714Y-71452380D01*
X138085714Y-70452380D01*
X138561904Y-71452380D02*
X138561904Y-70452380D01*
X138800000Y-70452380D01*
X138942857Y-70500000D01*
X139038095Y-70595238D01*
X139085714Y-70690476D01*
X139133333Y-70880952D01*
X139133333Y-71023809D01*
X139085714Y-71214285D01*
X139038095Y-71309523D01*
X138942857Y-71404761D01*
X138800000Y-71452380D01*
X138561904Y-71452380D01*
X138466666Y-67652380D02*
X139133333Y-67652380D01*
X138704761Y-68652380D01*
X137638095Y-88147619D02*
X137685714Y-88100000D01*
X137780952Y-88052380D01*
X138019047Y-88052380D01*
X138114285Y-88100000D01*
X138161904Y-88147619D01*
X138209523Y-88242857D01*
X138209523Y-88338095D01*
X138161904Y-88480952D01*
X137590476Y-89052380D01*
X138209523Y-89052380D01*
X138542857Y-88052380D02*
X139161904Y-88052380D01*
X138828571Y-88433333D01*
X138971428Y-88433333D01*
X139066666Y-88480952D01*
X139114285Y-88528571D01*
X139161904Y-88623809D01*
X139161904Y-88861904D01*
X139114285Y-88957142D01*
X139066666Y-89004761D01*
X138971428Y-89052380D01*
X138685714Y-89052380D01*
X138590476Y-89004761D01*
X138542857Y-88957142D01*
X137638095Y-95747619D02*
X137685714Y-95700000D01*
X137780952Y-95652380D01*
X138019047Y-95652380D01*
X138114285Y-95700000D01*
X138161904Y-95747619D01*
X138209523Y-95842857D01*
X138209523Y-95938095D01*
X138161904Y-96080952D01*
X137590476Y-96652380D01*
X138209523Y-96652380D01*
X138685714Y-96652380D02*
X138876190Y-96652380D01*
X138971428Y-96604761D01*
X139019047Y-96557142D01*
X139114285Y-96414285D01*
X139161904Y-96223809D01*
X139161904Y-95842857D01*
X139114285Y-95747619D01*
X139066666Y-95700000D01*
X138971428Y-95652380D01*
X138780952Y-95652380D01*
X138685714Y-95700000D01*
X138638095Y-95747619D01*
X138590476Y-95842857D01*
X138590476Y-96080952D01*
X138638095Y-96176190D01*
X138685714Y-96223809D01*
X138780952Y-96271428D01*
X138971428Y-96271428D01*
X139066666Y-96223809D01*
X139114285Y-96176190D01*
X139161904Y-96080952D01*
X138209523Y-83852380D02*
X137638095Y-83852380D01*
X137923809Y-83852380D02*
X137923809Y-82852380D01*
X137828571Y-82995238D01*
X137733333Y-83090476D01*
X137638095Y-83138095D01*
X138685714Y-83852380D02*
X138876190Y-83852380D01*
X138971428Y-83804761D01*
X139019047Y-83757142D01*
X139114285Y-83614285D01*
X139161904Y-83423809D01*
X139161904Y-83042857D01*
X139114285Y-82947619D01*
X139066666Y-82900000D01*
X138971428Y-82852380D01*
X138780952Y-82852380D01*
X138685714Y-82900000D01*
X138638095Y-82947619D01*
X138590476Y-83042857D01*
X138590476Y-83280952D01*
X138638095Y-83376190D01*
X138685714Y-83423809D01*
X138780952Y-83471428D01*
X138971428Y-83471428D01*
X139066666Y-83423809D01*
X139114285Y-83376190D01*
X139161904Y-83280952D01*
X154809523Y-71252380D02*
X154238095Y-71252380D01*
X154523809Y-71252380D02*
X154523809Y-70252380D01*
X154428571Y-70395238D01*
X154333333Y-70490476D01*
X154238095Y-70538095D01*
X155428571Y-70252380D02*
X155523809Y-70252380D01*
X155619047Y-70300000D01*
X155666666Y-70347619D01*
X155714285Y-70442857D01*
X155761904Y-70633333D01*
X155761904Y-70871428D01*
X155714285Y-71061904D01*
X155666666Y-71157142D01*
X155619047Y-71204761D01*
X155523809Y-71252380D01*
X155428571Y-71252380D01*
X155333333Y-71204761D01*
X155285714Y-71157142D01*
X155238095Y-71061904D01*
X155190476Y-70871428D01*
X155190476Y-70633333D01*
X155238095Y-70442857D01*
X155285714Y-70347619D01*
X155333333Y-70300000D01*
X155428571Y-70252380D01*
X198714285Y-99571428D02*
X199476190Y-99571428D01*
X199095238Y-99952380D02*
X199095238Y-99190476D01*
X200428571Y-98952380D02*
X199952380Y-98952380D01*
X199904761Y-99428571D01*
X199952380Y-99380952D01*
X200047619Y-99333333D01*
X200285714Y-99333333D01*
X200380952Y-99380952D01*
X200428571Y-99428571D01*
X200476190Y-99523809D01*
X200476190Y-99761904D01*
X200428571Y-99857142D01*
X200380952Y-99904761D01*
X200285714Y-99952380D01*
X200047619Y-99952380D01*
X199952380Y-99904761D01*
X199904761Y-99857142D01*
X200761904Y-98952380D02*
X201095238Y-99952380D01*
X201428571Y-98952380D01*
X137590476Y-98252380D02*
X138209523Y-98252380D01*
X137876190Y-98633333D01*
X138019047Y-98633333D01*
X138114285Y-98680952D01*
X138161904Y-98728571D01*
X138209523Y-98823809D01*
X138209523Y-99061904D01*
X138161904Y-99157142D01*
X138114285Y-99204761D01*
X138019047Y-99252380D01*
X137733333Y-99252380D01*
X137638095Y-99204761D01*
X137590476Y-99157142D01*
X139161904Y-99252380D02*
X138590476Y-99252380D01*
X138876190Y-99252380D02*
X138876190Y-98252380D01*
X138780952Y-98395238D01*
X138685714Y-98490476D01*
X138590476Y-98538095D01*
%TO.C,*%
D11*
%TO.C,J8*%
X150870000Y-110190000D02*
X153530000Y-110190000D01*
X150870000Y-60600000D02*
X150870000Y-59270000D01*
X150870000Y-61870000D02*
X153530000Y-61870000D01*
X153530000Y-61870000D02*
X153530000Y-110190000D01*
X150870000Y-59270000D02*
X152200000Y-59270000D01*
X150870000Y-61870000D02*
X150870000Y-110190000D01*
%TO.C,J3*%
X130195000Y-61870000D02*
X130195000Y-59270000D01*
X127595000Y-61870000D02*
X127595000Y-67010000D01*
X127595000Y-61870000D02*
X130195000Y-61870000D01*
X127595000Y-60600000D02*
X127595000Y-59270000D01*
X127595000Y-67010000D02*
X132795000Y-67010000D01*
X130195000Y-59270000D02*
X132795000Y-59270000D01*
X127595000Y-59270000D02*
X128925000Y-59270000D01*
X132795000Y-59270000D02*
X132795000Y-67010000D01*
%TO.C,J7*%
X139870000Y-60600000D02*
X139870000Y-59270000D01*
X139870000Y-110190000D02*
X142530000Y-110190000D01*
X139870000Y-61870000D02*
X139870000Y-110190000D01*
X139870000Y-61870000D02*
X142530000Y-61870000D01*
X142530000Y-61870000D02*
X142530000Y-110190000D01*
X139870000Y-59270000D02*
X141200000Y-59270000D01*
%TO.C,J4*%
X159965000Y-74570000D02*
X159965000Y-97430000D01*
X210765000Y-74570000D02*
X159965000Y-74570000D01*
X210765000Y-97430000D02*
X210765000Y-74570000D01*
X159965000Y-97430000D02*
X210765000Y-97430000D01*
%TO.C,J2*%
X144070000Y-110190000D02*
X149270000Y-110190000D01*
X146670000Y-59270000D02*
X149270000Y-59270000D01*
X149270000Y-59270000D02*
X149270000Y-110190000D01*
X146670000Y-61870000D02*
X146670000Y-59270000D01*
X144070000Y-61870000D02*
X146670000Y-61870000D01*
X144070000Y-59270000D02*
X145400000Y-59270000D01*
X144070000Y-60600000D02*
X144070000Y-59270000D01*
X144070000Y-61870000D02*
X144070000Y-110190000D01*
%TD*%
M02*
