M48
; DRILL file {KiCad (6.0.10)} date Fri Jun  2 17:32:59 2023
; FORMAT={-:-/ absolute / inch / decimal}
; #@! TF.CreationDate,2023-06-02T17:32:59+09:00
; #@! TF.GenerationSoftware,Kicad,Pcbnew,(6.0.10)
; #@! TF.FileFunction,Plated,1,2,PTH
FMAT,2
INCH
; #@! TA.AperFunction,Plated,PTH,ViaDrill
T1C0.0157
; #@! TA.AperFunction,Plated,PTH,ComponentDrill
T2C0.0354
; #@! TA.AperFunction,Plated,PTH,ComponentDrill
T3C0.0394
%
G90
G05
T1
X5.2461Y-2.2835
X5.315Y-2.9843
X5.3583Y-2.9252
X5.437Y-2.6969
X5.4429Y-2.3524
X5.6417Y-2.2835
X6.4921Y-4.0216
X7.6772Y-3.2283
T2
X4.9205Y-3.6496
X5.0197Y-3.937
X5.0197Y-4.237
X5.1197Y-3.937
X5.1197Y-4.237
X5.1205Y-3.6496
X5.2205Y-3.6496
X5.3205Y-3.6496
X6.5478Y-2.9858
X6.5478Y-3.7858
X6.6478Y-2.9858
X6.6478Y-3.7858
X6.7478Y-2.9858
X6.7478Y-3.7858
X6.8478Y-2.9858
X6.8478Y-3.7858
X6.9478Y-2.9858
X6.9478Y-3.7858
X7.0478Y-2.9858
X7.0478Y-3.7858
X7.1478Y-2.9858
X7.1478Y-3.7858
X7.2478Y-2.9858
X7.2478Y-3.7858
X7.3478Y-2.9858
X7.3478Y-3.7858
X7.4478Y-2.9858
X7.4478Y-3.7858
X7.5478Y-2.9858
X7.5478Y-3.7858
X7.6478Y-2.9858
X7.6478Y-3.7858
X7.7478Y-2.9858
X7.8478Y-2.9858
X7.8866Y-4.0236
X7.9478Y-2.9858
X8.0478Y-2.9858
X8.0866Y-4.0236
X8.122Y-2.4252
X8.122Y-2.6252
T3
X5.0758Y-2.3858
X5.0758Y-2.4858
X5.0758Y-2.5858
X5.1758Y-2.3858
X5.1758Y-2.4858
X5.1758Y-2.5858
X5.5591Y-2.3858
X5.5591Y-2.4858
X5.5591Y-2.5858
X5.5591Y-2.6858
X5.5591Y-2.7858
X5.5591Y-2.8858
X5.5591Y-2.9858
X5.5591Y-3.0858
X5.5591Y-3.1858
X5.5591Y-3.2858
X5.5591Y-3.3858
X5.5591Y-3.4858
X5.5591Y-3.5858
X5.5591Y-3.6858
X5.5591Y-3.7858
X5.5591Y-3.8858
X5.5591Y-3.9858
X5.5591Y-4.0858
X5.5591Y-4.1858
X5.5591Y-4.2858
X5.7244Y-2.3858
X5.7244Y-2.4858
X5.7244Y-2.5858
X5.7244Y-2.6858
X5.7244Y-2.7858
X5.7244Y-2.8858
X5.7244Y-2.9858
X5.7244Y-3.0858
X5.7244Y-3.1858
X5.7244Y-3.2858
X5.7244Y-3.3858
X5.7244Y-3.4858
X5.7244Y-3.5858
X5.7244Y-3.6858
X5.7244Y-3.7858
X5.7244Y-3.8858
X5.7244Y-3.9858
X5.7244Y-4.0858
X5.7244Y-4.1858
X5.7244Y-4.2858
X5.8244Y-2.3858
X5.8244Y-2.4858
X5.8244Y-2.5858
X5.8244Y-2.6858
X5.8244Y-2.7858
X5.8244Y-2.8858
X5.8244Y-2.9858
X5.8244Y-3.0858
X5.8244Y-3.1858
X5.8244Y-3.2858
X5.8244Y-3.3858
X5.8244Y-3.4858
X5.8244Y-3.5858
X5.8244Y-3.6858
X5.8244Y-3.7858
X5.8244Y-3.8858
X5.8244Y-3.9858
X5.8244Y-4.0858
X5.8244Y-4.1858
X5.8244Y-4.2858
X5.9921Y-2.3858
X5.9921Y-2.4858
X5.9921Y-2.5858
X5.9921Y-2.6858
X5.9921Y-2.7858
X5.9921Y-2.8858
X5.9921Y-2.9858
X5.9921Y-3.0858
X5.9921Y-3.1858
X5.9921Y-3.2858
X5.9921Y-3.3858
X5.9921Y-3.4858
X5.9921Y-3.5858
X5.9921Y-3.6858
X5.9921Y-3.7858
X5.9921Y-3.8858
X5.9921Y-3.9858
X5.9921Y-4.0858
X5.9921Y-4.1858
X5.9921Y-4.2858
X6.4Y-2.0
X6.4Y-2.1
X6.4Y-2.2
X6.4Y-2.3
X6.4Y-2.4
X6.4Y-2.5
X6.4Y-2.6
X6.4Y-2.7
X6.4Y-4.2
X6.4Y-4.3
X6.4Y-4.4
X6.4Y-4.5
X6.5Y-2.0
X6.5Y-2.1
X6.5Y-2.2
X6.5Y-2.3
X6.5Y-2.4
X6.5Y-2.5
X6.5Y-2.6
X6.5Y-2.7
X6.5Y-4.2
X6.5Y-4.3
X6.5Y-4.4
X6.5Y-4.5
X6.6Y-2.0
X6.6Y-2.1
X6.6Y-2.2
X6.6Y-2.3
X6.6Y-2.4
X6.6Y-2.5
X6.6Y-2.6
X6.6Y-2.7
X6.6Y-4.2
X6.6Y-4.3
X6.6Y-4.4
X6.6Y-4.5
X6.7Y-2.0
X6.7Y-2.1
X6.7Y-2.2
X6.7Y-2.3
X6.7Y-2.4
X6.7Y-2.5
X6.7Y-2.6
X6.7Y-2.7
X6.7Y-4.1
X6.7Y-4.2
X6.7Y-4.3
X6.7Y-4.4
X6.7Y-4.5
X6.8Y-2.0
X6.8Y-2.1
X6.8Y-2.2
X6.8Y-2.3
X6.8Y-2.4
X6.8Y-2.5
X6.8Y-2.6
X6.8Y-2.7
X6.8Y-4.1
X6.8Y-4.2
X6.8Y-4.3
X6.8Y-4.4
X6.8Y-4.5
X6.9Y-2.0
X6.9Y-2.1
X6.9Y-2.2
X6.9Y-2.3
X6.9Y-2.4
X6.9Y-2.5
X6.9Y-2.6
X6.9Y-2.7
X6.9Y-4.1
X6.9Y-4.2
X6.9Y-4.3
X6.9Y-4.4
X6.9Y-4.5
X7.0Y-2.0
X7.0Y-2.1
X7.0Y-2.2
X7.0Y-2.3
X7.0Y-2.4
X7.0Y-2.5
X7.0Y-2.6
X7.0Y-2.7
X7.0Y-4.1
X7.0Y-4.2
X7.0Y-4.3
X7.0Y-4.4
X7.0Y-4.5
X7.1Y-2.0
X7.1Y-2.1
X7.1Y-2.2
X7.1Y-2.3
X7.1Y-2.4
X7.1Y-2.5
X7.1Y-2.6
X7.1Y-2.7
X7.1Y-4.1
X7.1Y-4.2
X7.1Y-4.3
X7.1Y-4.4
X7.1Y-4.5
X7.2Y-2.0
X7.2Y-2.1
X7.2Y-2.2
X7.2Y-2.3
X7.2Y-2.4
X7.2Y-2.5
X7.2Y-2.6
X7.2Y-2.7
X7.2Y-4.1
X7.2Y-4.2
X7.2Y-4.3
X7.2Y-4.4
X7.2Y-4.5
X7.3Y-2.0
X7.3Y-2.1
X7.3Y-2.2
X7.3Y-2.3
X7.3Y-2.4
X7.3Y-2.5
X7.3Y-2.6
X7.3Y-2.7
X7.3Y-4.1
X7.3Y-4.2
X7.3Y-4.3
X7.3Y-4.4
X7.3Y-4.5
X7.4Y-2.0
X7.4Y-2.1
X7.4Y-2.2
X7.4Y-2.3
X7.4Y-2.4
X7.4Y-2.5
X7.4Y-2.6
X7.4Y-2.7
X7.4Y-4.1
X7.4Y-4.2
X7.4Y-4.3
X7.4Y-4.4
X7.4Y-4.5
X7.5Y-2.0
X7.5Y-2.1
X7.5Y-2.2
X7.5Y-2.3
X7.5Y-2.4
X7.5Y-2.5
X7.5Y-2.6
X7.5Y-2.7
X7.5Y-4.1
X7.5Y-4.2
X7.5Y-4.3
X7.5Y-4.4
X7.5Y-4.5
X7.6Y-2.0
X7.6Y-2.1
X7.6Y-2.2
X7.6Y-2.3
X7.6Y-2.4
X7.6Y-2.5
X7.6Y-2.6
X7.6Y-2.7
X7.6Y-4.1
X7.6Y-4.2
X7.6Y-4.3
X7.6Y-4.4
X7.6Y-4.5
X7.7Y-2.0
X7.7Y-2.1
X7.7Y-2.2
X7.7Y-2.3
X7.7Y-2.4
X7.7Y-2.5
X7.7Y-2.6
X7.7Y-2.7
X7.7Y-4.2
X7.7Y-4.3
X7.7Y-4.4
X7.7Y-4.5
X7.8Y-2.0
X7.8Y-2.1
X7.8Y-2.2
X7.8Y-2.3
X7.8Y-2.4
X7.8Y-2.5
X7.8Y-2.6
X7.8Y-2.7
X7.8Y-4.3
X7.8Y-4.4
X7.8Y-4.5
X7.9Y-2.0
X7.9Y-2.1
X7.9Y-2.2
X7.9Y-2.3
X7.9Y-2.4
X7.9Y-2.5
X7.9Y-2.6
X7.9Y-2.7
X7.9Y-4.3
X7.9Y-4.4
X7.9Y-4.5
X8.0Y-2.0
X8.0Y-2.1
X8.0Y-2.2
X8.0Y-4.3
X8.0Y-4.4
X8.0Y-4.5
X8.1Y-2.0
X8.1Y-2.1
X8.1Y-2.2
X8.1Y-4.3
X8.1Y-4.4
X8.1Y-4.5
T0
M30
